/* XPM */
static char * coin_2_xpm[] = {
"32 32 879 2",
"  	c #60A33B",
". 	c #6FB14D",
"+ 	c #75B656",
"@ 	c #69AA4D",
"# 	c #5EA041",
"$ 	c #5EA03C",
"% 	c #65A93D",
"& 	c #7CC051",
"* 	c #64A839",
"= 	c #71B44A",
"- 	c #65A83F",
"; 	c #5EA13B",
"> 	c #68AA45",
", 	c #6EB048",
"' 	c #64A73C",
") 	c #72B547",
"! 	c #65A438",
"~ 	c #7CBA4E",
"{ 	c #71B047",
"] 	c #6BAD48",
"^ 	c #73B654",
"/ 	c #6AB04F",
"( 	c #5BA244",
"_ 	c #5AA142",
": 	c #62A335",
"< 	c #7DBD4D",
"[ 	c #6FB242",
"} 	c #6AAE3F",
"| 	c #6FB346",
"1 	c #5CA134",
"2 	c #5FA73B",
"3 	c #6DB549",
"4 	c #5EA232",
"5 	c #63A63B",
"6 	c #6CAE47",
"7 	c #6AAC46",
"8 	c #69AC43",
"9 	c #6FB245",
"0 	c #6FB441",
"a 	c #77BC47",
"b 	c #6FB342",
"c 	c #74B849",
"d 	c #6DB045",
"e 	c #73B64D",
"f 	c #72B54D",
"g 	c #63A63C",
"h 	c #69AD3F",
"i 	c #7DC04F",
"j 	c #7ABA46",
"k 	c #72B23F",
"l 	c #66A737",
"m 	c #62A538",
"n 	c #67AB3F",
"o 	c #69AF46",
"p 	c #63AA43",
"q 	c #6AB149",
"r 	c #70B141",
"s 	c #7ABA4A",
"t 	c #72B544",
"u 	c #6FB344",
"v 	c #71B548",
"w 	c #6FB448",
"x 	c #70B84C",
"y 	c #64AC40",
"z 	c #6DB13D",
"A 	c #67AC39",
"B 	c #6DB141",
"C 	c #69AD3D",
"D 	c #6CB03F",
"E 	c #79BD49",
"F 	c #75BB42",
"G 	c #72B83D",
"H 	c #6EB33E",
"I 	c #74B946",
"J 	c #73B748",
"K 	c #77BB50",
"L 	c #6AAC3D",
"M 	c #76B440",
"N 	c #7EBB46",
"O 	c #87C349",
"P 	c #78B43B",
"Q 	c #6BAF38",
"R 	c #6BAF3A",
"S 	c #68AD3A",
"T 	c #6BB140",
"U 	c #65AC3E",
"V 	c #74BB4B",
"W 	c #77B948",
"X 	c #76B646",
"Y 	c #6EB141",
"Z 	c #73B74A",
"` 	c #76BB4E",
" .	c #66AE42",
"..	c #80C456",
"+.	c #79BC4E",
"@.	c #77BB4D",
"#.	c #67AA3C",
"$.	c #67AB3B",
"%.	c #77BB49",
"&.	c #74B945",
"*.	c #6EB43D",
"=.	c #62A730",
"-.	c #73B844",
";.	c #74B847",
">.	c #9EB239",
",.	c #CDB832",
"'.	c #EEC234",
").	c #F3C12E",
"!.	c #EFBA2E",
"~.	c #E3A425",
"{.	c #DE9821",
"].	c #D19A2A",
"^.	c #B8A73C",
"/.	c #8DB446",
"(.	c #6FB345",
"_.	c #61A539",
":.	c #75B645",
"<.	c #73B343",
"[.	c #66A938",
"}.	c #6AAD3F",
"|.	c #6CB144",
"1.	c #60A83C",
"2.	c #72B94E",
"3.	c #64A644",
"4.	c #70B34F",
"5.	c #76B954",
"6.	c #66A841",
"7.	c #6EB149",
"8.	c #81C45A",
"9.	c #70B44A",
"0.	c #66A93E",
"a.	c #78BD48",
"b.	c #BEB334",
"c.	c #FCC42E",
"d.	c #FCC52E",
"e.	c #FBC22C",
"f.	c #F4BF4B",
"g.	c #E29321",
"h.	c #DF8D1B",
"i.	c #DD8B1A",
"j.	c #DE8C1A",
"k.	c #DF8C1D",
"l.	c #D98E23",
"m.	c #99A843",
"n.	c #5FA13C",
"o.	c #82C35E",
"p.	c #79B94A",
"q.	c #67A738",
"r.	c #73B645",
"s.	c #79BD4F",
"t.	c #5FA438",
"u.	c #5DA539",
"v.	c #6FB74B",
"w.	c #5FA044",
"x.	c #67A849",
"y.	c #6AAC4A",
"z.	c #65A841",
"A.	c #6CAF47",
"B.	c #74B64F",
"C.	c #69AB47",
"D.	c #6DB04B",
"E.	c #7ABF4D",
"F.	c #D0BE39",
"G.	c #FFCC36",
"H.	c #FECF46",
"I.	c #FDCF55",
"J.	c #F4CD7E",
"K.	c #E19524",
"L.	c #DF8A19",
"M.	c #DE891A",
"N.	c #E0901B",
"O.	c #E1901A",
"P.	c #DE8D1A",
"Q.	c #DF8D1A",
"R.	c #DD8D1E",
"S.	c #9B9C39",
"T.	c #79B753",
"U.	c #6DAD3E",
"V.	c #6BAB3B",
"W.	c #77BA49",
"X.	c #73B648",
"Y.	c #6CB044",
"Z.	c #6FB447",
"`.	c #65AC40",
" +	c #5C9E3D",
".+	c #64A641",
"++	c #65A83E",
"@+	c #6DB140",
"#+	c #61A535",
"$+	c #69AC41",
"%+	c #77BA51",
"&+	c #A0BF4E",
"*+	c #F6CC51",
"=+	c #FCD672",
"-+	c #FEEAA5",
";+	c #FBEABE",
">+	c #DD953E",
",+	c #DD8A19",
"'+	c #E08D1A",
")+	c #E39018",
"!+	c #E29118",
"~+	c #E2911A",
"{+	c #E08E1A",
"]+	c #D68E25",
"^+	c #75A53C",
"/+	c #69A838",
"(+	c #75B545",
"_+	c #7BBE4D",
":+	c #68AC3D",
"<+	c #68AB3F",
"[+	c #7BC053",
"}+	c #6BB246",
"|+	c #5EA63A",
"1+	c #60A43B",
"2+	c #7BBF54",
"3+	c #7CC14F",
"4+	c #7FC54D",
"5+	c #66AB36",
"6+	c #78BC4B",
"7+	c #78B748",
"8+	c #EBD869",
"9+	c #FDEDA3",
"0+	c #FDF2BC",
"a+	c #FEF7D6",
"b+	c #E9BF93",
"c+	c #E08C1B",
"d+	c #DD8A1B",
"e+	c #E29119",
"f+	c #E09119",
"g+	c #E09118",
"h+	c #E09019",
"i+	c #DE8B1D",
"j+	c #B29429",
"k+	c #74B544",
"l+	c #76B848",
"m+	c #76B948",
"n+	c #6AAD3E",
"o+	c #66A93B",
"p+	c #70B546",
"q+	c #62A73A",
"r+	c #67AC3F",
"s+	c #5BA339",
"t+	c #64AC41",
"u+	c #66AF3F",
"v+	c #77BF4E",
"w+	c #73BA4A",
"x+	c #5DA336",
"y+	c #65A941",
"z+	c #B1B946",
"A+	c #FEC839",
"B+	c #FDD15A",
"C+	c #FCD56C",
"D+	c #F8D992",
"E+	c #E18C12",
"F+	c #DC881B",
"G+	c #E2901A",
"H+	c #E19118",
"I+	c #E19019",
"J+	c #E18F1A",
"K+	c #E08F19",
"L+	c #E09018",
"M+	c #E08E1B",
"N+	c #DD8B1B",
"O+	c #DB8B22",
"P+	c #77A138",
"Q+	c #6EB245",
"R+	c #74B846",
"S+	c #74B640",
"T+	c #6FB039",
"U+	c #6EAC36",
"V+	c #82BE48",
"W+	c #7DB844",
"X+	c #67AF44",
"Y+	c #6BB347",
"Z+	c #63AB3C",
"`+	c #65AD3D",
" @	c #6AB041",
".@	c #6BB045",
"+@	c #6AAE46",
"@@	c #DCBB37",
"#@	c #FEC630",
"$@	c #FEC832",
"%@	c #FCC734",
"&@	c #E7B151",
"*@	c #DE8A1A",
"=@	c #DE8B1A",
"-@	c #E08F1A",
";@	c #DA881A",
">@	c #DD8B19",
",@	c #DE8C1D",
"'@	c #A4A33A",
")@	c #65AD41",
"!@	c #74BB49",
"~@	c #70B23B",
"{@	c #6BAA34",
"]@	c #82BF4B",
"^@	c #7EBA47",
"/@	c #75BA4A",
"(@	c #68AE3D",
"_@	c #61A734",
":@	c #68AE3C",
"<@	c #71B74A",
"[@	c #75AE44",
"}@	c #F4BC2A",
"|@	c #FFC42E",
"1@	c #FEC32E",
"2@	c #FCC230",
"3@	c #E49B2A",
"4@	c #DB871B",
"5@	c #E08E1C",
"6@	c #DE8D1B",
"7@	c #DF8F19",
"8@	c #C59D31",
"9@	c #5AA53C",
"0@	c #6CB547",
"a@	c #76BE4A",
"b@	c #70B540",
"c@	c #6CAF3B",
"d@	c #7ABB48",
"e@	c #75B442",
"f@	c #7CBF4E",
"g@	c #7ABD4A",
"h@	c #72B742",
"i@	c #6DB23D",
"j@	c #6EB340",
"k@	c #6CB143",
"l@	c #9CAC39",
"m@	c #FEBD28",
"n@	c #FEBD29",
"o@	c #FCB926",
"p@	c #FAB62D",
"q@	c #DC871B",
"r@	c #DF8D1C",
"s@	c #E08F18",
"t@	c #DF8E1B",
"u@	c #D7941F",
"v@	c #5FA137",
"w@	c #5FAA3F",
"x@	c #6FB847",
"y@	c #75BD49",
"z@	c #79BE4A",
"A@	c #6FAF40",
"B@	c #6FAE39",
"C@	c #7FBF48",
"D@	c #86C850",
"E@	c #78BC44",
"F@	c #68AE3F",
"G@	c #BDB63A",
"H@	c #FEBF29",
"I@	c #FCB927",
"J@	c #FCB626",
"K@	c #F2A723",
"L@	c #DB861B",
"M@	c #DD891A",
"N@	c #DD8B1C",
"O@	c #E0901A",
"P@	c #E19119",
"Q@	c #DD8C19",
"R@	c #DA901B",
"S@	c #84AF45",
"T@	c #69B549",
"U@	c #6FB947",
"V@	c #6CB441",
"W@	c #65AA37",
"X@	c #7EC04F",
"Y@	c #78B849",
"Z@	c #75B139",
"`@	c #80BE43",
" #	c #87C74C",
".#	c #82C449",
"+#	c #76BA43",
"@#	c #69AF3E",
"##	c #C6B133",
"$#	c #FCB524",
"%#	c #EB9C1F",
"&#	c #D77F1E",
"*#	c #DD881C",
"=#	c #DF8D19",
"-#	c #DB891A",
";#	c #DD8A1D",
">#	c #DF9018",
",#	c #D9871A",
"'#	c #D98919",
")#	c #DE8C19",
"!#	c #DF8D18",
"~#	c #D98D1C",
"{#	c #92A73C",
"]#	c #6BB546",
"^#	c #6EB13D",
"/#	c #85C553",
"(#	c #77B644",
"_#	c #82BC41",
":#	c #85C143",
"<#	c #84C244",
"[#	c #81C346",
"}#	c #79BD44",
"|#	c #67AD3A",
"1#	c #D2B031",
"2#	c #FDB927",
"3#	c #FCB827",
"4#	c #FBB621",
"5#	c #E99A20",
"6#	c #D37F1D",
"7#	c #DB881E",
"8#	c #DF8E1A",
"9#	c #DC8A1A",
"0#	c #E18E1A",
"a#	c #D78519",
"b#	c #D8851C",
"c#	c #DE8C18",
"d#	c #E18F19",
"e#	c #A0A136",
"f#	c #78BC47",
"g#	c #7EC048",
"h#	c #7CBB45",
"i#	c #86C24E",
"j#	c #77B340",
"k#	c #8EC748",
"l#	c #8BC646",
"m#	c #7FBC3B",
"n#	c #78B83A",
"o#	c #6EB136",
"p#	c #5FA530",
"q#	c #DDB130",
"r#	c #FCB325",
"s#	c #FBB423",
"t#	c #FBB622",
"u#	c #E79722",
"v#	c #D57E1D",
"w#	c #DD881E",
"x#	c #D5821B",
"y#	c #D67F19",
"z#	c #DD8A18",
"A#	c #B0A73B",
"B#	c #66AB39",
"C#	c #73B53E",
"D#	c #82C24A",
"E#	c #78B63D",
"F#	c #7BB63E",
"G#	c #88C24C",
"H#	c #8FC841",
"I#	c #8BC63F",
"J#	c #8AC742",
"K#	c #83C441",
"L#	c #76B93A",
"M#	c #63A92C",
"N#	c #DBB22E",
"O#	c #F9AF23",
"P#	c #FAB223",
"Q#	c #E69722",
"R#	c #D57B1F",
"S#	c #DA821F",
"T#	c #DE891C",
"U#	c #DC8A1B",
"V#	c #D9801E",
"W#	c #D67E1D",
"X#	c #D8811D",
"Y#	c #D67F1C",
"Z#	c #DE8B1B",
"`#	c #DB8919",
" $	c #AFAD44",
".$	c #6AAE40",
"+$	c #6CAF3D",
"@$	c #74B540",
"#$	c #6FB036",
"$$	c #83C347",
"%$	c #7FBF42",
"&$	c #8CC447",
"*$	c #7EB73A",
"=$	c #78B43A",
"-$	c #81BF48",
";$	c #79BB47",
">$	c #65A838",
",$	c #CDAD30",
"'$	c #F9AC20",
")$	c #F9A91E",
"!$	c #F9AD1F",
"~$	c #E7931F",
"{$	c #D47A1F",
"]$	c #D87D21",
"^$	c #DB8320",
"/$	c #DB811E",
"($	c #DC891D",
"_$	c #D7801D",
":$	c #D7801C",
"<$	c #D67F1E",
"[$	c #DE8C1B",
"}$	c #D98717",
"|$	c #A0A53B",
"1$	c #69AC3B",
"2$	c #6DAE3A",
"3$	c #79BA42",
"4$	c #7EBE44",
"5$	c #79B93E",
"6$	c #89C24E",
"7$	c #6BA533",
"8$	c #66A233",
"9$	c #7AB74C",
"0$	c #77B750",
"a$	c #64A642",
"b$	c #BDA535",
"c$	c #F5A41D",
"d$	c #F4A51C",
"e$	c #F7A71B",
"f$	c #EA961D",
"g$	c #D47B20",
"h$	c #D67C20",
"i$	c #D98020",
"j$	c #DA811F",
"k$	c #DF891C",
"l$	c #D6801E",
"m$	c #D77F1C",
"n$	c #D97F1C",
"o$	c #D97F1D",
"p$	c #DC871D",
"q$	c #DF8C1A",
"r$	c #DB8A1A",
"s$	c #DA871E",
"t$	c #8C9C34",
"u$	c #6FB248",
"v$	c #6FB145",
"w$	c #70B041",
"x$	c #7FBF4E",
"y$	c #75B441",
"z$	c #75B43F",
"A$	c #7DB947",
"B$	c #69A634",
"C$	c #72B041",
"D$	c #7AB94E",
"E$	c #6EAE48",
"F$	c #64A643",
"G$	c #B0AD42",
"H$	c #F2A71E",
"I$	c #F7A71A",
"J$	c #EE9C1D",
"K$	c #D57C21",
"L$	c #D87F20",
"M$	c #D9821E",
"N$	c #DC871C",
"O$	c #D5821C",
"P$	c #D87F1C",
"Q$	c #D67E1C",
"R$	c #DB861E",
"S$	c #DE8A1D",
"T$	c #DF8C1C",
"U$	c #D9851E",
"V$	c #D9841E",
"W$	c #7FA23A",
"X$	c #6CAF46",
"Y$	c #76B84E",
"Z$	c #7EBE52",
"`$	c #7EBE50",
" %	c #66A435",
".%	c #65A333",
"+%	c #7BBC46",
"@%	c #7EC04A",
"#%	c #71B346",
"$%	c #67AB40",
"%%	c #89A538",
"&%	c #F0A51D",
"*%	c #F4A41C",
"=%	c #F5A51C",
"-%	c #F2A11D",
";%	c #D77E20",
">%	c #D17A1F",
",%	c #D97F20",
"'%	c #DB821F",
")%	c #DA831F",
"!%	c #D9831E",
"~%	c #DA811E",
"{%	c #DB821E",
"]%	c #DC841F",
"^%	c #DD871C",
"/%	c #DC871E",
"(%	c #D4801D",
"_%	c #D28A22",
":%	c #6FAE45",
"<%	c #74B74D",
"[%	c #77B94E",
"}%	c #76B54B",
"|%	c #6DAC40",
"1%	c #79B74A",
"2%	c #6BAF3D",
"3%	c #79BD4B",
"4%	c #79BD4A",
"5%	c #6CB13D",
"6%	c #68AC39",
"7%	c #62A632",
"8%	c #66A733",
"9%	c #E2A426",
"0%	c #EFA21A",
"a%	c #F2A51B",
"b%	c #DA821E",
"c%	c #D27A1E",
"d%	c #D77C21",
"e%	c #D97E20",
"f%	c #D77F20",
"g%	c #D98120",
"h%	c #D97E21",
"i%	c #DA8020",
"j%	c #DB841E",
"k%	c #DB851E",
"l%	c #DC851F",
"m%	c #D57E1C",
"n%	c #B79029",
"o%	c #77BB4C",
"p%	c #71B546",
"q%	c #6FB144",
"r%	c #71B143",
"s%	c #66A538",
"t%	c #6FAD40",
"u%	c #5EA23D",
"v%	c #6BB048",
"w%	c #70B44B",
"x%	c #66AB3E",
"y%	c #60A434",
"z%	c #65A936",
"A%	c #69AE39",
"B%	c #C5AE34",
"C%	c #EA9F1A",
"D%	c #EAA01A",
"E%	c #EDA21B",
"F%	c #E3911F",
"G%	c #D37A1F",
"H%	c #D87D20",
"I%	c #D77C20",
"J%	c #D87E20",
"K%	c #D87F1F",
"L%	c #DA8320",
"M%	c #DC831F",
"N%	c #D97B20",
"O%	c #979D31",
"P%	c #6FB440",
"Q%	c #6DB03D",
"R%	c #73B342",
"S%	c #67A736",
"T%	c #6CAA3B",
"U%	c #5CA144",
"V%	c #5CA041",
"W%	c #66A946",
"X%	c #68AC44",
"Y%	c #6CAF44",
"Z%	c #78BC4D",
"`%	c #75B947",
" &	c #9CB53F",
".&	c #E8A01C",
"+&	c #EA9F1B",
"@&	c #EBA11A",
"#&	c #EFA11F",
"$&	c #D67D20",
"%&	c #D0781E",
"&&	c #D77B20",
"*&	c #DA8120",
"=&	c #DB8220",
"-&	c #D27B1E",
";&	c #D28324",
">&	c #81BC44",
",&	c #75BB45",
"'&	c #74BA44",
")&	c #75B844",
"!&	c #77B845",
"~&	c #7BBB49",
"{&	c #7FBE4D",
"]&	c #66A434",
"^&	c #7ABF4C",
"/&	c #73B845",
"(&	c #68AD3C",
"_&	c #75B94B",
":&	c #71B446",
"<&	c #CCA828",
"[&	c #ECA41B",
"}&	c #EEA41A",
"|&	c #F1A71E",
"1&	c #E18E23",
"2&	c #D47A20",
"3&	c #D27A20",
"4&	c #D87C22",
"5&	c #DA7F20",
"6&	c #D97F21",
"7&	c #D57B1D",
"8&	c #D57E1F",
"9&	c #A5A536",
"0&	c #70B946",
"a&	c #6FB846",
"b&	c #66AD3C",
"c&	c #69AE3D",
"d&	c #74B747",
"e&	c #75B546",
"f&	c #6EAC3E",
"g&	c #74B144",
"h&	c #75BA46",
"i&	c #6AAE3D",
"j&	c #7CC04F",
"k&	c #70B444",
"l&	c #88B13C",
"m&	c #EAA820",
"n&	c #F1A71A",
"o&	c #F0A71B",
"p&	c #EEA521",
"q&	c #DA7E22",
"r&	c #D2791F",
"s&	c #D67B1F",
"t&	c #D77B21",
"u&	c #D4791F",
"v&	c #D67B21",
"w&	c #C28925",
"x&	c #7EBB4E",
"y&	c #75BB4B",
"z&	c #6BB242",
"A&	c #69AE3F",
"B&	c #72B647",
"C&	c #61A335",
"D&	c #78B94B",
"E&	c #5EA134",
"F&	c #6DB142",
"G&	c #67AB3A",
"H&	c #7BC04D",
"I&	c #6DB23E",
"J&	c #7DC04C",
"K&	c #ADB33B",
"L&	c #EEA81E",
"M&	c #F1A91A",
"N&	c #F1A81B",
"O&	c #ECA121",
"P&	c #DA7D22",
"Q&	c #D57B21",
"R&	c #D57A1F",
"S&	c #D57C1F",
"T&	c #D87A21",
"U&	c #CE8329",
"V&	c #81A140",
"W&	c #7EBE59",
"X&	c #74B549",
"Y&	c #65A739",
"Z&	c #77B94C",
"`&	c #7ABE4F",
" *	c #63A839",
".*	c #64AA3A",
"+*	c #69B040",
"@*	c #5DA037",
"#*	c #5FA238",
"$*	c #66AA3D",
"%*	c #6AAE3E",
"&*	c #66AA38",
"**	c #65AA36",
"=*	c #74B944",
"-*	c #76B945",
";*	c #65A735",
">*	c #A3B441",
",*	c #ECB127",
"'*	c #F2AE20",
")*	c #F3AF21",
"!*	c #EDA220",
"~*	c #DB8322",
"{*	c #D77C22",
"]*	c #D77C23",
"^*	c #D97A20",
"/*	c #C98329",
"(*	c #78A23E",
"_*	c #66A943",
":*	c #68AA43",
"<*	c #65A337",
"[*	c #73B144",
"}*	c #7BBB4E",
"|*	c #6BAE3F",
"1*	c #7BC353",
"2*	c #6CB545",
"3*	c #5CA836",
"4*	c #5EA13A",
"5*	c #76B951",
"6*	c #76B950",
"7*	c #7BBF53",
"8*	c #70B446",
"9*	c #65A938",
"0*	c #73B744",
"a*	c #63A533",
"b*	c #7CAE40",
"c*	c #A3A733",
"d*	c #CAB134",
"e*	c #D9B633",
"f*	c #D8A72B",
"g*	c #C69D30",
"h*	c #BF9531",
"i*	c #AE972E",
"j*	c #95A53C",
"k*	c #7EBA4D",
"l*	c #63A638",
"m*	c #73B044",
"n*	c #77B649",
"o*	c #69AC3E",
"p*	c #66AA3B",
"q*	c #6FB747",
"r*	c #60A939",
"s*	c #61AD3B",
"t*	c #5FA239",
"u*	c #74B64D",
"v*	c #75B84E",
"w*	c #75B84C",
"x*	c #5FA336",
"y*	c #6EB244",
"z*	c #73B747",
"A*	c #76B946",
"B*	c #68AB38",
"C*	c #6CAE40",
"D*	c #6BAD41",
"E*	c #70B246",
"F*	c #72B445",
"G*	c #74B745",
"H*	c #72B541",
"I*	c #69AF3A",
"J*	c #76BD47",
"K*	c #69B03A",
"L*	c #6AB03B",
"M*	c #74BA45",
"N*	c #75BC46",
"O*	c #7DC44E",
"P*	c #5FA631",
"Q*	c #6BAC3E",
"R*	c #74B648",
"S*	c #76B84A",
"T*	c #6EB243",
"U*	c #65A93A",
"V*	c #6CB142",
"W*	c #6EB545",
"X*	c #5FA335",
"Y*	c #69AC40",
"Z*	c #75B84F",
"`*	c #72B54B",
" =	c #67AA41",
".=	c #77BA47",
"+=	c #76B947",
"@=	c #67A93C",
"#=	c #74B64B",
"$=	c #80C256",
"%=	c #70B243",
"&=	c #6BAE3C",
"*=	c #63AA36",
"==	c #77BF4B",
"-=	c #6EB643",
";=	c #64AD39",
">=	c #65AE3A",
",=	c #6BB340",
"'=	c #77C04C",
")=	c #63AC38",
"!=	c #5FA636",
"~=	c #6AB040",
"{=	c #76BB4C",
"]=	c #75B94A",
"^=	c #7FC153",
"/=	c #7ABB4D",
"(=	c #75B948",
"_=	c #65A93B",
":=	c #5EA135",
"<=	c #72B54E",
"[=	c #6EB14C",
"}=	c #7FC14F",
"|=	c #78BB48",
"1=	c #67A93B",
"2=	c #6DAE43",
"3=	c #77B94D",
"4=	c #75B848",
"5=	c #70B341",
"6=	c #64A835",
"7=	c #6DB446",
"8=	c #71B94C",
"9=	c #72BA4D",
"0=	c #70B84B",
"a=	c #69B144",
"b=	c #5BA336",
"c=	c #61A93C",
"d=	c #6EB649",
"e=	c #6EB848",
"f=	c #5FA938",
"g=	c #72B94A",
"h=	c #7BC051",
"i=	c #6DAF41",
"j=	c #69A93C",
"k=	c #7BB94C",
"l=	c #79B549",
"  . + @ # $ % & * = - ; > , ' ) ! ~ { ] ^ / ( _ : < [ } | 1 2 3 ",
"4 5 6 7 8 9 0 a b c d e f g h i j k l m n o p q r s t u v w x y ",
"z A B C D E F G H I J K = L M N O P Q R S T U V W X Y u Z ` x  .",
"..+.@.#.$.%.&.*.=.-.;.>.,.'.).!.~.{.].^./.(._.Z :.<.[.}.Z |.1.2.",
"3.4.5.6.7.8.9.0.a.a.b.c.d.e.f.g.h.i.j.k.l.m.n.o.p.q.r.s.| t.u.v.",
"w.x.y.z.A.B.C.D.E.F.G.H.I.J.K.L.M.N.O.P.Q.R.S.T.U.V.W.X.Y.Z.`.y ",
" +.+++u @+#+$+%+&+*+=+-+;+>+,+'+)+!+!+~+{+i.]+^+/+(+_+:+<+[+}+|+",
"1+2+3+4+F 5+6+7+8+9+0+a+b+c+d+e+!+!+f+g+h+j.i+j+k+l+m+n+o+p+q+r+",
"s+t+u+v+w+x+y+z+A+B+C+D+E+F+G+H+H+I+J+K+L+M+N+O+P+Q+R+S+T+U+V+W+",
"X+Y+Z+`+ @.@+@@@#@$@%@&@*@=@-@K+K+;@>@J+h+-@j.,@'@)@!@a.~@{@]@^@",
"` /@(@_@:@<@[@}@|@1@2@3@4@5@{+-@{+j.6@h+7@{+{+Q.8@9@0@a@b@c@d@e@",
"f@g@h@i@j@k@l@m@n@o@p@J+q@{+'+r@{+M+K+s@t@{+{+N+u@v@w@x@y@z@m+A@",
"B@C@D@E@H F@G@H@I@J@K@L@M@'+j.N@O@N@j.P@>@j.K+Q@R@S@T@U@V@W@X@Y@",
"Z@`@ #.#+#@###m@o@$#%#&#*#=#-#;#>#,#'#P@>@)#K+!#~#{#]#y@&.^#/#(#",
"_#:#<#[#}#|#1#2#3#4#5#6#7#8#{+9#0#a#b#h+c#K+d#)#9#e#@#f#g#h#i#j#",
"k#l#m#n#o#p#q#r#s#t#u#v#w#J+{+-#L@x#y#F+4@{+{+=#z#A#B#C#D#E#F#G#",
"H#I#J#K#L#M#N#O#P#t#Q#R#S#T#P.U#V#W#X#Y#Z#'+{+Q.`# $.$+$@$#$$$%$",
"&$*$=$-$;$>$,$'$)$!$~${$]$^$/$($_$V#:$<$[$r@h.Q.}$|$| 1$2$3$4$5$",
"6$7$8$9$0$a$b$c$d$e$f$g$h$i$j$k$l$m$n$o$p$q$h.r$s$t$u$v$w$x$y$z$",
"A$B$C$D$E$F$G$H$d$I$J$K$K$L$M$N$O$P$Q$m$R$S$T$U$V$W$X$Y$Z$`$ %.%",
"+%@%d@W #%$%%%&%*%=%-%;%>%;%,%'%)%!%~%{%]%^%/%(%_%:%<%[%}%|%1%1%",
"2%3%4%5%6%7%8%9%0%0%a%b%c%d%e%,%f%g%h%i%j%k%l%m%n%o%p%q%r%s%t%1%",
"u%v%w%x%y%z%A%B%C%D%E%F%G%K$H%I%I%I%J%K%L%M%Y#N%O%E P%Q%R%S%T%C$",
"U%V%W%X%Y%Z%`% &.&+&@&#&$&%&d%&&&&J%L$i$*&=&-&;&>&,&'&)&!&~&{&]&",
"^&&./&(&C o%_&:&<&[&}&|&1&2&3&4&&&H%J%5&6&7&8&9&0&a&b&c&d&e&f&g&",
"h@h&h&A i&j&k&} l&m&n&o&p&q&{$r&s&t&d%d%u&v&w&x&y&z&A&B&) o+C&D&",
"E&F&p%G&@+H&I&S J&K&L&M&N&O&P&Q&R&S&h$R&T&U&V&W&X&Y&Z&`&F& *.*+*",
"@*@*#*$*%*&***=*-*;*>*,*'*)*!*~*{*]*$&^*/*(*_*:*<*[*}*|*A&1*2*3*",
"4*5*6*7*8*9*0*-.)&a*#%b*c*d*e*f*g*h*i*j*k*o%s.l*m*n*D&o*p*q*r*s*",
"t*u*v*2+w*x*y*z*A*B*C*D*E*F*G*H*I*J*K*L*M*N*O*P*Q*R*S*T*U*V*V*W*",
"X*$*Y*Z*`*t* =u$.=+=@=#=$=%=&=E *===-=;=>=,='=)=!=~={=]=T*o*^=/=",
"(=z*_=:= =<=[=_*}=|=1=2=3=4=5=6=7=8=9=0=a=b=c=d=e=f=g=h=i=j=k=l="};
