/* XPM */
static char * enemy_xpm[] = {
"32 32 527 2",
"  	c #60A33B",
". 	c #6FB14D",
"+ 	c #75B656",
"@ 	c #69AA4D",
"# 	c #5EA041",
"$ 	c #5EA03C",
"% 	c #65A93D",
"& 	c #7CC051",
"* 	c #64A839",
"= 	c #71B44A",
"- 	c #65A83F",
"; 	c #5EA13B",
"> 	c #68AA45",
", 	c #6EB048",
"' 	c #64A73C",
") 	c #72B547",
"! 	c #65A438",
"~ 	c #7CBA4E",
"{ 	c #71B047",
"] 	c #6BAD48",
"^ 	c #73B654",
"/ 	c #6AB04F",
"( 	c #5BA244",
"_ 	c #5AA142",
": 	c #62A335",
"< 	c #7DBD4D",
"[ 	c #6FB242",
"} 	c #6AAE3F",
"| 	c #6FB346",
"1 	c #5CA134",
"2 	c #5FA73B",
"3 	c #6DB549",
"4 	c #5EA232",
"5 	c #63A63B",
"6 	c #6CAE47",
"7 	c #6AAC46",
"8 	c #69AC43",
"9 	c #6FB245",
"0 	c #6FB441",
"a 	c #77BC47",
"b 	c #6FB342",
"c 	c #74B849",
"d 	c #6DB045",
"e 	c #73B64D",
"f 	c #72B54D",
"g 	c #63A63C",
"h 	c #69AD3F",
"i 	c #7DC04F",
"j 	c #7ABA46",
"k 	c #72B23F",
"l 	c #66A737",
"m 	c #62A538",
"n 	c #67AB3F",
"o 	c #69AF46",
"p 	c #63AA43",
"q 	c #6AB149",
"r 	c #70B141",
"s 	c #7ABA4A",
"t 	c #72B544",
"u 	c #6FB344",
"v 	c #71B548",
"w 	c #6FB448",
"x 	c #70B84C",
"y 	c #64AC40",
"z 	c #6DB13D",
"A 	c #67AC39",
"B 	c #6DB141",
"C 	c #69AD3D",
"D 	c #6CB03F",
"E 	c #79BD49",
"F 	c #75BB42",
"G 	c #72B83D",
"H 	c #6EB33E",
"I 	c #74B946",
"J 	c #73B748",
"K 	c #77BB50",
"L 	c #68AC3D",
"M 	c #77BB47",
"N 	c #81C34A",
"O 	c #71B33B",
"P 	c #6BAF38",
"Q 	c #6BAF3A",
"R 	c #68AD3A",
"S 	c #6BB140",
"T 	c #65AC3E",
"U 	c #74BB4B",
"V 	c #77B948",
"W 	c #76B646",
"X 	c #6EB141",
"Y 	c #73B74A",
"Z 	c #76BB4E",
"` 	c #66AE42",
" .	c #80C456",
"..	c #79BC4E",
"+.	c #77BB4D",
"@.	c #67AA3C",
"#.	c #67AB3B",
"$.	c #77BB49",
"%.	c #74B945",
"&.	c #6EB43D",
"*.	c #62A730",
"=.	c #73B844",
"-.	c #74B847",
";.	c #66AA3C",
">.	c #79BD4C",
",.	c #C06020",
"'.	c #7DC14F",
").	c #76BA4A",
"!.	c #6FB345",
"~.	c #61A539",
"{.	c #75B645",
"].	c #73B343",
"^.	c #66A938",
"/.	c #6AAD3F",
"(.	c #6CB144",
"_.	c #60A83C",
":.	c #72B94E",
"<.	c #64A644",
"[.	c #70B34F",
"}.	c #76B954",
"|.	c #66A841",
"1.	c #6EB149",
"2.	c #81C45A",
"3.	c #70B44A",
"4.	c #66A93E",
"5.	c #607070",
"6.	c #66AA3A",
"7.	c #5EA233",
"8.	c #A04000",
"9.	c #70B34D",
"0.	c #5FA13C",
"a.	c #82C35E",
"b.	c #79B94A",
"c.	c #67A738",
"d.	c #73B645",
"e.	c #79BD4F",
"f.	c #5FA438",
"g.	c #5DA539",
"h.	c #6FB74B",
"i.	c #5FA044",
"j.	c #67A849",
"k.	c #6AAC4A",
"l.	c #65A841",
"m.	c #6CAF47",
"n.	c #74B64F",
"o.	c #69AB47",
"p.	c #200800",
"q.	c #684018",
"r.	c #66A442",
"s.	c #79B753",
"t.	c #6DAD3E",
"u.	c #6BAB3B",
"v.	c #77BA49",
"w.	c #73B648",
"x.	c #6CB044",
"y.	c #6FB447",
"z.	c #65AC40",
"A.	c #5C9E3D",
"B.	c #64A641",
"C.	c #65A83E",
"D.	c #6DB140",
"E.	c #61A535",
"F.	c #69AC41",
"G.	c #889090",
"H.	c #75B94A",
"I.	c #382818",
"J.	c #69A73D",
"K.	c #69A838",
"L.	c #75B545",
"M.	c #7BBE4D",
"N.	c #68AB3F",
"O.	c #7BC053",
"P.	c #6BB246",
"Q.	c #5EA63A",
"R.	c #60A43B",
"S.	c #7BBF54",
"T.	c #7CC14F",
"U.	c #7FC54D",
"V.	c #66AB36",
"W.	c #78BC4B",
"X.	c #73B747",
"Y.	c #63A232",
"Z.	c #74B544",
"`.	c #76B848",
" +	c #76B948",
".+	c #6AAD3E",
"++	c #66A93B",
"@+	c #70B546",
"#+	c #62A73A",
"$+	c #67AC3F",
"%+	c #5BA339",
"&+	c #64AC41",
"*+	c #66AF3F",
"=+	c #77BF4E",
"-+	c #73BA4A",
";+	c #5DA336",
">+	c #65A941",
",+	c #73B74F",
"'+	c #5FA43A",
")+	c #6EB245",
"!+	c #74B846",
"~+	c #74B640",
"{+	c #6FB039",
"]+	c #6EAC36",
"^+	c #82BE48",
"/+	c #7DB844",
"(+	c #67AF44",
"_+	c #6BB347",
":+	c #63AB3C",
"<+	c #65AD3D",
"[+	c #6AB041",
"}+	c #6BB045",
"|+	c #6AAE46",
"1+	c #6BB048",
"2+	c #C8C8C8",
"3+	c #F8F8F8",
"4+	c #384848",
"5+	c #67AF46",
"6+	c #65AD41",
"7+	c #74BB49",
"8+	c #78BD48",
"9+	c #70B23B",
"0+	c #6BAA34",
"a+	c #82BF4B",
"b+	c #7EBA47",
"c+	c #75BA4A",
"d+	c #68AE3D",
"e+	c #61A734",
"f+	c #68AE3C",
"g+	c #71B74A",
"h+	c #69AE45",
"i+	c #A8B0B0",
"j+	c #5AA53C",
"k+	c #6CB547",
"l+	c #76BE4A",
"m+	c #70B540",
"n+	c #6CAF3B",
"o+	c #7ABB48",
"p+	c #75B442",
"q+	c #7CBF4E",
"r+	c #7ABD4A",
"s+	c #72B742",
"t+	c #6DB23D",
"u+	c #6EB340",
"v+	c #6CB143",
"w+	c #63A83F",
"x+	c #53A138",
"y+	c #5FAA3F",
"z+	c #6FB847",
"A+	c #75BD49",
"B+	c #79BE4A",
"C+	c #6FAF40",
"D+	c #6FAE39",
"E+	c #7FBF48",
"F+	c #86C850",
"G+	c #78BC44",
"H+	c #68AE3F",
"I+	c #69B549",
"J+	c #6FB947",
"K+	c #6CB441",
"L+	c #65AA37",
"M+	c #7EC04F",
"N+	c #78B849",
"O+	c #75B139",
"P+	c #80BE43",
"Q+	c #87C74C",
"R+	c #82C449",
"S+	c #76BA43",
"T+	c #6BB546",
"U+	c #6EB13D",
"V+	c #85C553",
"W+	c #77B644",
"X+	c #82BC41",
"Y+	c #85C143",
"Z+	c #84C244",
"`+	c #81C346",
" @	c #79BD44",
".@	c #78BC47",
"+@	c #7EC048",
"@@	c #7CBB45",
"#@	c #86C24E",
"$@	c #77B340",
"%@	c #8EC748",
"&@	c #8BC646",
"*@	c #7FBC3B",
"=@	c #78B83A",
"-@	c #82C24A",
";@	c #78B63D",
">@	c #7BB63E",
",@	c #88C24C",
"'@	c #8FC841",
")@	c #8BC63F",
"!@	c #8AC742",
"~@	c #83C441",
"{@	c #74B540",
"]@	c #6FB036",
"^@	c #83C347",
"/@	c #7FBF42",
"(@	c #8CC447",
"_@	c #7EB73A",
":@	c #78B43A",
"<@	c #81BF48",
"[@	c #6DAE3A",
"}@	c #79BA42",
"|@	c #7EBE44",
"1@	c #79B93E",
"2@	c #89C24E",
"3@	c #6BA533",
"4@	c #66A233",
"5@	c #7AB74C",
"6@	c #70B041",
"7@	c #7FBF4E",
"8@	c #75B441",
"9@	c #75B43F",
"0@	c #7DB947",
"a@	c #69A634",
"b@	c #72B041",
"c@	c #7AB94E",
"d@	c #7EBE52",
"e@	c #7EBE50",
"f@	c #66A435",
"g@	c #65A333",
"h@	c #7BBC46",
"i@	c #7EC04A",
"j@	c #71B346",
"k@	c #77B94E",
"l@	c #76B54B",
"m@	c #6DAC40",
"n@	c #79B74A",
"o@	c #6BAF3D",
"p@	c #79BD4B",
"q@	c #79BD4A",
"r@	c #6CB13D",
"s@	c #68AC39",
"t@	c #62A632",
"u@	c #71B546",
"v@	c #6FB144",
"w@	c #71B143",
"x@	c #66A538",
"y@	c #6FAD40",
"z@	c #5EA23D",
"A@	c #70B44B",
"B@	c #66AB3E",
"C@	c #60A434",
"D@	c #65A936",
"E@	c #69AE39",
"F@	c #7AC049",
"G@	c #62AD38",
"H@	c #905010",
"I@	c #C07010",
"J@	c #6FB440",
"K@	c #6DB03D",
"L@	c #73B342",
"M@	c #67A736",
"N@	c #6CAA3B",
"O@	c #5CA144",
"P@	c #5CA041",
"Q@	c #66A946",
"R@	c #68AC44",
"S@	c #6CAF44",
"T@	c #78BC4D",
"U@	c #75B947",
"V@	c #75BA46",
"W@	c #6DBB45",
"X@	c #70BC4A",
"Y@	c #72B84C",
"Z@	c #6BAE3C",
"`@	c #78BA3F",
" #	c #78BF46",
".#	c #75BB45",
"+#	c #74BA44",
"@#	c #75B844",
"##	c #77B845",
"$#	c #7BBB49",
"%#	c #7FBE4D",
"&#	c #66A434",
"*#	c #7ABF4C",
"=#	c #73B845",
"-#	c #68AD3C",
";#	c #77BB4C",
">#	c #75B94B",
",#	c #70B446",
"'#	c #65AA36",
")#	c #604018",
"!#	c #F0B058",
"~#	c #65A62F",
"{#	c #74B740",
"]#	c #70B946",
"^#	c #6FB846",
"/#	c #66AD3C",
"(#	c #69AE3D",
"_#	c #74B747",
":#	c #75B546",
"<#	c #6EAC3E",
"[#	c #74B144",
"}#	c #6AAE3D",
"|#	c #7CC04F",
"1#	c #70B444",
"2#	c #61A033",
"3#	c #7BBC4F",
"4#	c #75BB4B",
"5#	c #6BB242",
"6#	c #69AE3F",
"7#	c #72B647",
"8#	c #61A335",
"9#	c #78B94B",
"0#	c #5EA134",
"a#	c #6DB142",
"b#	c #67AB3A",
"c#	c #7BC04D",
"d#	c #6DB23E",
"e#	c #402810",
"f#	c #7EBE59",
"g#	c #74B549",
"h#	c #65A739",
"i#	c #77B94C",
"j#	c #7ABE4F",
"k#	c #63A839",
"l#	c #64AA3A",
"m#	c #69B040",
"n#	c #5DA037",
"o#	c #5FA238",
"p#	c #66AA3D",
"q#	c #6AAE3E",
"r#	c #66AA38",
"s#	c #74B944",
"t#	c #75B750",
"u#	c #65A337",
"v#	c #73B144",
"w#	c #7BBB4E",
"x#	c #6BAE3F",
"y#	c #7BC353",
"z#	c #6CB545",
"A#	c #5CA836",
"B#	c #5EA13A",
"C#	c #76B951",
"D#	c #76B950",
"E#	c #7BBF53",
"F#	c #65A938",
"G#	c #73B744",
"H#	c #66A836",
"I#	c #73B044",
"J#	c #77B649",
"K#	c #69AC3E",
"L#	c #66AA3B",
"M#	c #6FB747",
"N#	c #60A939",
"O#	c #61AD3B",
"P#	c #5FA239",
"Q#	c #74B64D",
"R#	c #75B84E",
"S#	c #75B84C",
"T#	c #5FA336",
"U#	c #6EB244",
"V#	c #76B946",
"W#	c #68AB38",
"X#	c #6CAE40",
"Y#	c #6BAD41",
"Z#	c #70B246",
"`#	c #72B445",
" $	c #74B745",
".$	c #72B541",
"+$	c #69AF3A",
"@$	c #76BD47",
"#$	c #5FA631",
"$$	c #6BAC3E",
"%$	c #74B648",
"&$	c #76B84A",
"*$	c #6EB243",
"=$	c #65A93A",
"-$	c #6CB142",
";$	c #6EB545",
">$	c #5FA335",
",$	c #69AC40",
"'$	c #75B84F",
")$	c #72B54B",
"!$	c #67AA41",
"~$	c #6FB248",
"{$	c #77BA47",
"]$	c #76B947",
"^$	c #67A93C",
"/$	c #74B64B",
"($	c #80C256",
"_$	c #70B243",
":$	c #63AA36",
"<$	c #77BF4B",
"[$	c #6EB643",
"}$	c #64AD39",
"|$	c #65AE3A",
"1$	c #6BB340",
"2$	c #77C04C",
"3$	c #63AC38",
"4$	c #5FA636",
"5$	c #6AB040",
"6$	c #76BB4C",
"7$	c #7FC153",
"8$	c #7ABB4D",
"9$	c #75B948",
"0$	c #65A93B",
"a$	c #5EA135",
"b$	c #72B54E",
"c$	c #6EB14C",
"d$	c #66A943",
"e$	c #7FC14F",
"f$	c #78BB48",
"g$	c #67A93B",
"h$	c #6DAE43",
"i$	c #77B94D",
"j$	c #75B848",
"k$	c #70B341",
"l$	c #64A835",
"m$	c #6DB446",
"n$	c #71B94C",
"o$	c #72BA4D",
"p$	c #70B84B",
"q$	c #69B144",
"r$	c #5BA336",
"s$	c #61A93C",
"t$	c #6EB649",
"u$	c #6EB848",
"v$	c #5FA938",
"w$	c #72B94A",
"x$	c #7BC051",
"y$	c #6DAF41",
"z$	c #69A93C",
"A$	c #7BB94C",
"B$	c #79B549",
"  . + @ # $ % & * = - ; > , ' ) ! ~ { ] ^ / ( _ : < [ } | 1 2 3 ",
"4 5 6 7 8 9 0 a b c d e f g h i j k l m n o p q r s t u v w x y ",
"z A B C D E F G H I J K = L 0 M N O P Q R S T U V W X u Y Z x ` ",
" ...+.@.#.$.%.&.*.=.-.h ;.>.,.,.,.,.,.'.).!.~.Y {.].^./.Y (._.:.",
"<.[.}.|.1.2.3.4.5.5.6.7.,.,.,.,.,.,.8.8.8.9.0.a.b.c.d.e.| f.g.h.",
"i.j.k.l.m.n.o.5.p.p.8.,.,.,.,.,.,.8.q.q.q.8.r.s.t.u.v.w.x.y.z.y ",
"A.B.C.u D.E.F.G.H.I.p.,.,.,.,.,.8.p.p.p.I.q.8.J.K.L.M.L N.O.P.Q.",
"R.S.T.U.F V.W.J X.q.I.,.8.,.,.8.p.q.8.8.8.q.8.Y.Z.`. +.+++@+#+$+",
"%+&+*+=+-+;+>+,+q.q.I.q.,.q.8.I.q.8.8.8.8.8.8.8.'+)+!+~+{+]+^+/+",
"(+_+:+<+[+}+|+1+q.2+3+4+8.p.I.2+3+2+8.8.8.8.8.8.5+6+7+8+9+0+a+b+",
"Z c+d+e+f+g+h+8.2+3+5.5.q.q.5.G.i+3+2+8.8.8.8.8.8.j+k+l+m+n+o+p+",
"q+r+s+t+u+v+w+8.2+3+p.5.8.q.5.p.i+3+3+8.8.8.8.8.8.x+y+z+A+B+ +C+",
"D+E+F+G+H H+8.8.2+3+i+2+8.8.G.G.i+3+3+8.8.8.8.8.8.8.I+J+K+L+M+N+",
"O+P+Q+R+S+8.8.8.2+3+3+3+8.8.2+3+3+3+2+8.8.8.8.8.8.8.T+A+%.U+V+W+",
"X+Y+Z+`+ @8.8.8.8.2+2+8.8.8.8.2+3+3+8.8.8.8.8.8.8.8.8..@+@@@#@$@",
"%@&@*@=@8.8.8.3+8.8.8.8.8.8.8.8.8.8.8.8.8.8.8.8.8.8.8.8.-@;@>@,@",
"'@)@!@~@8.8.2+i+8.8.8.8.8.8.8.8.8.8.3+8.8.8.8.8.8.8.8.8.{@]@^@/@",
"(@_@:@<@8.8.i+5.q.q.q.q.q.q.q.q.q.G.3+i+8.8.8.8.8.8.8.8.[@}@|@1@",
"2@3@4@5@8.q.I.I.I.8.8.8.8.8.8.8.8.q.i+G.q.8.8.8.8.8.8.8.6@7@8@9@",
"0@a@b@c@q.8.8.8.8.8.8.8.8.8.8.8.8.8.8.I.I.q.8.8.8.8.8.q.d@e@f@g@",
"h@i@o+V j@q.q.8.8.8.q.q.q.q.q.q.8.8.8.8.8.8.8.8.q.q.q.k@l@m@n@n@",
"o@p@q@r@s@t@q.q.q.q.q.q.q.q.q.q.q.q.q.q.q.q.q.q.q.q.u@v@w@x@y@n@",
"z@1+A@B@C@D@E@F@G@q.q.H@I@I@I@I@H@q.q.q.q.q.q.q.L+E J@K@L@M@N@b@",
"O@P@Q@R@S@T@U@V@W@X@Y@I@I@I@I@I@I@I@I@I@I@I@Z@`@ #.#+#@###$#%#&#",
"*#%.=#-#C ;#>#,#'#)#)#I@!#!#I@I@I@I@I@!#!#I@~#{#]#^#/#(#_#:#<#[#",
"s+V@V@A }#|#1#} )#)#)#)#I@!#!#!#!#!#)#)#)#)#2#3#4#5#6#7#) ++8#9#",
"0#a#u@b#D.c#d#R e#)#)#e#e#H@I@I@I@)#)#)#)#)#)#f#g#h#i#j#a#k#l#m#",
"n#n#o#p#q#r#'#s#e#e#e#e#e#e#e#e#t#)#)#)#)#)#)#)#u#v#w#x#6#y#z#A#",
"B#C#D#E#,#F#G#=.@#e#e#e#e#e#e#H#u@)#)#)#)#)#)#e#I#J#9#K#L#M#N#O#",
"P#Q#R#S.S#T#U#X.V#W#X#Y#Z#`# $.$+$@$)#)#)#e#e##$$$%$&$*$=$-$-$;$",
">$p#,$'$)$P#!$~${$]$^$/$($_$Z@E :$<$[$}$|$1$2$3$4$5$6$H.*$K#7$8$",
"9$X.0$a$!$b$c$d$e$f$g$h$i$j$k$l$m$n$o$p$q$r$s$t$u$v$w$x$y$z$A$B$"};
