/* XPM */
static char * collectible_xpm[] = {
"32 32 480 2",
"  	c #60A33B",
". 	c #6FB14D",
"+ 	c #75B656",
"@ 	c #69AA4D",
"# 	c #5EA041",
"$ 	c #5EA03C",
"% 	c #65A93D",
"& 	c #7CC051",
"* 	c #64A839",
"= 	c #71B44A",
"- 	c #65A83F",
"; 	c #5EA13B",
"> 	c #68AA45",
", 	c #6EB048",
"' 	c #64A73C",
") 	c #72B547",
"! 	c #65A438",
"~ 	c #7CBA4E",
"{ 	c #71B047",
"] 	c #6BAD48",
"^ 	c #73B654",
"/ 	c #6AB04F",
"( 	c #5BA244",
"_ 	c #5AA142",
": 	c #62A335",
"< 	c #7DBD4D",
"[ 	c #6FB242",
"} 	c #6AAE3F",
"| 	c #6FB346",
"1 	c #5CA134",
"2 	c #5FA73B",
"3 	c #6DB549",
"4 	c #5EA232",
"5 	c #63A63B",
"6 	c #6CAE47",
"7 	c #6AAC46",
"8 	c #69AC43",
"9 	c #6FB245",
"0 	c #6FB441",
"a 	c #77BC47",
"b 	c #6FB342",
"c 	c #74B849",
"d 	c #6DB045",
"e 	c #73B64D",
"f 	c #72B54D",
"g 	c #63A63C",
"h 	c #69AD3F",
"i 	c #7DC04F",
"j 	c #7ABA46",
"k 	c #72B23F",
"l 	c #66A737",
"m 	c #62A538",
"n 	c #67AB3F",
"o 	c #69AF46",
"p 	c #63AA43",
"q 	c #6AB149",
"r 	c #70B141",
"s 	c #7ABA4A",
"t 	c #72B544",
"u 	c #6FB344",
"v 	c #71B548",
"w 	c #6FB448",
"x 	c #70B84C",
"y 	c #64AC40",
"z 	c #6DB13D",
"A 	c #67AC39",
"B 	c #6DB141",
"C 	c #69AD3D",
"D 	c #6CB03F",
"E 	c #79BD49",
"F 	c #75BB42",
"G 	c #72B83D",
"H 	c #6EB33E",
"I 	c #74B946",
"J 	c #73B748",
"K 	c #77BB50",
"L 	c #68AC3D",
"M 	c #77BB47",
"N 	c #81C34A",
"O 	c #71B33B",
"P 	c #6BAF38",
"Q 	c #6BAF3A",
"R 	c #68AD3A",
"S 	c #6BB140",
"T 	c #65AC3E",
"U 	c #74BB4B",
"V 	c #77B948",
"W 	c #76B646",
"X 	c #6EB141",
"Y 	c #73B74A",
"Z 	c #76BB4E",
"` 	c #66AE42",
" .	c #80C456",
"..	c #79BC4E",
"+.	c #77BB4D",
"@.	c #67AA3C",
"#.	c #67AB3B",
"$.	c #77BB49",
"%.	c #74B945",
"&.	c #6EB43D",
"*.	c #62A730",
"=.	c #73B844",
"-.	c #74B847",
";.	c #E6BC30",
">.	c #E6CD38",
",.	c #76BA4A",
"'.	c #6FB345",
").	c #61A539",
"!.	c #75B645",
"~.	c #73B343",
"{.	c #66A938",
"].	c #6AAD3F",
"^.	c #6CB144",
"/.	c #60A83C",
"(.	c #72B94E",
"_.	c #64A644",
":.	c #70B34F",
"<.	c #76B954",
"[.	c #66A841",
"}.	c #6EB149",
"|.	c #81C45A",
"1.	c #70B44A",
"2.	c #66A93E",
"3.	c #78BD48",
"4.	c #66AA3A",
"5.	c #76B953",
"6.	c #70B34D",
"7.	c #5FA13C",
"8.	c #82C35E",
"9.	c #79B94A",
"0.	c #67A738",
"a.	c #73B645",
"b.	c #79BD4F",
"c.	c #5FA438",
"d.	c #5DA539",
"e.	c #6FB74B",
"f.	c #5FA044",
"g.	c #67A849",
"h.	c #6AAC4A",
"i.	c #65A841",
"j.	c #6CAF47",
"k.	c #74B64F",
"l.	c #69AB47",
"m.	c #6DAD3E",
"n.	c #6BAB3B",
"o.	c #77BA49",
"p.	c #73B648",
"q.	c #6CB044",
"r.	c #6FB447",
"s.	c #65AC40",
"t.	c #5C9E3D",
"u.	c #64A641",
"v.	c #65A83E",
"w.	c #6DB140",
"x.	c #61A535",
"y.	c #69AC41",
"z.	c #69A838",
"A.	c #75B545",
"B.	c #7BBE4D",
"C.	c #68AB3F",
"D.	c #7BC053",
"E.	c #6BB246",
"F.	c #5EA63A",
"G.	c #60A43B",
"H.	c #7BBF54",
"I.	c #7CC14F",
"J.	c #7FC54D",
"K.	c #76B948",
"L.	c #6AAD3E",
"M.	c #66A93B",
"N.	c #70B546",
"O.	c #62A73A",
"P.	c #67AC3F",
"Q.	c #5BA339",
"R.	c #64AC41",
"S.	c #66AF3F",
"T.	c #77BF4E",
"U.	c #73BA4A",
"V.	c #74B846",
"W.	c #74B640",
"X.	c #6FB039",
"Y.	c #6EAC36",
"Z.	c #82BE48",
"`.	c #7DB844",
" +	c #67AF44",
".+	c #6BB347",
"++	c #63AB3C",
"@+	c #65AD3D",
"#+	c #6AB041",
"$+	c #EEDD51",
"%+	c #AC7217",
"&+	c #E6E6E6",
"*+	c #74BB49",
"=+	c #70B23B",
"-+	c #6BAA34",
";+	c #82BF4B",
">+	c #7EBA47",
",+	c #75BA4A",
"'+	c #68AE3D",
")+	c #61A734",
"!+	c #68AE3C",
"~+	c #6CB547",
"{+	c #76BE4A",
"]+	c #70B540",
"^+	c #6CAF3B",
"/+	c #7ABB48",
"(+	c #75B442",
"_+	c #7CBF4E",
":+	c #7ABD4A",
"<+	c #72B742",
"[+	c #75BD49",
"}+	c #79BE4A",
"|+	c #6FAF40",
"1+	c #6FAE39",
"2+	c #7FBF48",
"3+	c #86C850",
"4+	c #6CB441",
"5+	c #65AA37",
"6+	c #7EC04F",
"7+	c #78B849",
"8+	c #75B139",
"9+	c #80BE43",
"0+	c #87C74C",
"a+	c #6EB13D",
"b+	c #85C553",
"c+	c #77B644",
"d+	c #82BC41",
"e+	c #85C143",
"f+	c #84C244",
"g+	c #7EC048",
"h+	c #7CBB45",
"i+	c #86C24E",
"j+	c #77B340",
"k+	c #8EC748",
"l+	c #8BC646",
"m+	c #7FBC3B",
"n+	c #82C24A",
"o+	c #78B63D",
"p+	c #7BB63E",
"q+	c #88C24C",
"r+	c #8FC841",
"s+	c #8BC63F",
"t+	c #8AC742",
"u+	c #74B540",
"v+	c #6FB036",
"w+	c #83C347",
"x+	c #7FBF42",
"y+	c #8CC447",
"z+	c #7EB73A",
"A+	c #78B43A",
"B+	c #DDAC20",
"C+	c #6DAE3A",
"D+	c #79BA42",
"E+	c #7EBE44",
"F+	c #79B93E",
"G+	c #89C24E",
"H+	c #6BA533",
"I+	c #66A233",
"J+	c #70B041",
"K+	c #7FBF4E",
"L+	c #75B441",
"M+	c #75B43F",
"N+	c #7DB947",
"O+	c #69A634",
"P+	c #72B041",
"Q+	c #7EBE52",
"R+	c #7EBE50",
"S+	c #66A435",
"T+	c #65A333",
"U+	c #7BBC46",
"V+	c #7EC04A",
"W+	c #71B346",
"X+	c #74B74D",
"Y+	c #77B94E",
"Z+	c #76B54B",
"`+	c #6DAC40",
" @	c #79B74A",
".@	c #6BAF3D",
"+@	c #79BD4B",
"@@	c #79BD4A",
"#@	c #6CB13D",
"$@	c #68AC39",
"%@	c #71B546",
"&@	c #6FB144",
"*@	c #71B143",
"=@	c #66A538",
"-@	c #6FAD40",
";@	c #5EA23D",
">@	c #6BB048",
",@	c #70B44B",
"'@	c #66AB3E",
")@	c #60A434",
"!@	c #BC8B20",
"~@	c #6FB440",
"{@	c #6DB03D",
"]@	c #73B342",
"^@	c #67A736",
"/@	c #6CAA3B",
"(@	c #5CA144",
"_@	c #5CA041",
":@	c #66A946",
"<@	c #68AC44",
"[@	c #6CAF44",
"}@	c #74BA44",
"|@	c #75B844",
"1@	c #77B845",
"2@	c #7BBB49",
"3@	c #7FBE4D",
"4@	c #66A434",
"5@	c #7ABF4C",
"6@	c #73B845",
"7@	c #68AD3C",
"8@	c #77BB4C",
"9@	c #75B94B",
"0@	c #70B946",
"a@	c #6FB846",
"b@	c #66AD3C",
"c@	c #69AE3D",
"d@	c #74B747",
"e@	c #75B546",
"f@	c #6EAC3E",
"g@	c #74B144",
"h@	c #75BA46",
"i@	c #6AAE3D",
"j@	c #7CC04F",
"k@	c #70B444",
"l@	c #75BB4B",
"m@	c #6BB242",
"n@	c #69AE3F",
"o@	c #72B647",
"p@	c #61A335",
"q@	c #78B94B",
"r@	c #5EA134",
"s@	c #6DB142",
"t@	c #67AB3A",
"u@	c #7BC04D",
"v@	c #6DB23E",
"w@	c #7DC04C",
"x@	c #76B946",
"y@	c #6AAC3E",
"z@	c #C59B28",
"A@	c #71B14E",
"B@	c #6EAE4B",
"C@	c #67A744",
"D@	c #7EBE59",
"E@	c #74B549",
"F@	c #65A739",
"G@	c #77B94C",
"H@	c #7ABE4F",
"I@	c #63A839",
"J@	c #64AA3A",
"K@	c #69B040",
"L@	c #5DA037",
"M@	c #5FA238",
"N@	c #66AA3D",
"O@	c #6AAE3E",
"P@	c #66AA38",
"Q@	c #65AA36",
"R@	c #74B944",
"S@	c #76B945",
"T@	c #65A735",
"U@	c #75B749",
"V@	c #5FA23C",
"W@	c #63A640",
"X@	c #66A943",
"Y@	c #68AA43",
"Z@	c #65A337",
"`@	c #73B144",
" #	c #7BBB4E",
".#	c #6BAE3F",
"+#	c #7BC353",
"@#	c #6CB545",
"##	c #5CA836",
"$#	c #5EA13A",
"%#	c #76B951",
"&#	c #76B950",
"*#	c #7BBF53",
"=#	c #70B446",
"-#	c #65A938",
";#	c #73B744",
">#	c #63A533",
",#	c #6CAE42",
"'#	c #63A539",
")#	c #70B343",
"!#	c #7BBE4C",
"~#	c #66A836",
"{#	c #66AA3B",
"]#	c #6DB143",
"^#	c #63A638",
"/#	c #73B044",
"(#	c #77B649",
"_#	c #69AC3E",
":#	c #6FB747",
"<#	c #60A939",
"[#	c #61AD3B",
"}#	c #5FA239",
"|#	c #74B64D",
"1#	c #75B84E",
"2#	c #75B84C",
"3#	c #5FA336",
"4#	c #6EB244",
"5#	c #73B747",
"6#	c #68AB38",
"7#	c #6CAE40",
"8#	c #6BAD41",
"9#	c #70B246",
"0#	c #72B445",
"a#	c #74B745",
"b#	c #72B541",
"c#	c #69AF3A",
"d#	c #76BD47",
"e#	c #69B03A",
"f#	c #6AB03B",
"g#	c #74BA45",
"h#	c #75BC46",
"i#	c #7DC44E",
"j#	c #5FA631",
"k#	c #6BAC3E",
"l#	c #74B648",
"m#	c #76B84A",
"n#	c #6EB243",
"o#	c #65A93A",
"p#	c #6CB142",
"q#	c #6EB545",
"r#	c #5FA335",
"s#	c #69AC40",
"t#	c #75B84F",
"u#	c #72B54B",
"v#	c #67AA41",
"w#	c #6FB248",
"x#	c #77BA47",
"y#	c #76B947",
"z#	c #67A93C",
"A#	c #74B64B",
"B#	c #80C256",
"C#	c #70B243",
"D#	c #6BAE3C",
"E#	c #63AA36",
"F#	c #77BF4B",
"G#	c #6EB643",
"H#	c #64AD39",
"I#	c #65AE3A",
"J#	c #6BB340",
"K#	c #77C04C",
"L#	c #63AC38",
"M#	c #5FA636",
"N#	c #6AB040",
"O#	c #76BB4C",
"P#	c #75B94A",
"Q#	c #7FC153",
"R#	c #7ABB4D",
"S#	c #75B948",
"T#	c #65A93B",
"U#	c #5EA135",
"V#	c #72B54E",
"W#	c #6EB14C",
"X#	c #7FC14F",
"Y#	c #78BB48",
"Z#	c #67A93B",
"`#	c #6DAE43",
" $	c #77B94D",
".$	c #75B848",
"+$	c #70B341",
"@$	c #64A835",
"#$	c #6DB446",
"$$	c #71B94C",
"%$	c #72BA4D",
"&$	c #70B84B",
"*$	c #69B144",
"=$	c #5BA336",
"-$	c #61A93C",
";$	c #6EB649",
">$	c #6EB848",
",$	c #5FA938",
"'$	c #72B94A",
")$	c #7BC051",
"!$	c #6DAF41",
"~$	c #69A93C",
"{$	c #7BB94C",
"]$	c #79B549",
"  . + @ # $ % & * = - ; > , ' ) ! ~ { ] ^ / ( _ : < [ } | 1 2 3 ",
"4 5 6 7 8 9 0 a b c d e f g h i j k l m n o p q r s t u v w x y ",
"z A B C D E F G H I J K = L 0 M N O P Q R S T U V W X u Y Z x ` ",
" ...+.@.#.$.%.&.*.=.-.;.;.>.>.>.>.;.;.;.,.'.).Y !.~.{.].Y ^./.(.",
"_.:.<.[.}.|.1.2.3.3.4.;.;.>.>.>.>.;.;.;.5.6.7.8.9.0.a.b.| c.d.e.",
"f.g.h.i.j.k.l.;.;.>.>.>.>.>.>.>.>.>.>.>.>.>.;.;.m.n.o.p.q.r.s.y ",
"t.u.v.u w.x.y.;.;.>.>.>.>.>.>.>.>.>.>.>.>.>.;.;.z.A.B.L C.D.E.F.",
"G.H.I.J.F ;.;.>.>.>.>.>.>.>.>.>.>.>.>.>.>.>.>.>.;.;.K.L.M.N.O.P.",
"Q.R.S.T.U.;.;.>.>.>.>.>.>.>.>.>.>.>.>.>.>.>.>.>.;.;.V.W.X.Y.Z.`.",
" +.+++@+#+$+$+$+$+$+$+%+%+$+$+$+$+&+&+&+$+$+$+$+$+$+*+3.=+-+;+>+",
"Z ,+'+)+!+$+$+$+$+$+$+%+%+$+$+$+$+&+&+&+$+$+$+$+$+$+~+{+]+^+/+(+",
"_+:+<+>.>.$+$+$+$+$+$+%+%+$+$+$+$+&+&+&+$+$+$+$+$+$+>.>.[+}+K.|+",
"1+2+3+>.>.$+$+$+$+$+$+%+%+$+$+$+$+&+&+&+$+$+$+$+$+$+>.>.4+5+6+7+",
"8+9+0+>.>.>.>.>.>.>.>.%+%+>.>.>.>.&+&+&+>.>.>.>.>.>.>.>.%.a+b+c+",
"d+e+f+>.>.>.>.>.>.>.>.%+%+>.>.>.>.&+&+&+>.>.>.>.>.>.>.>.g+h+i+j+",
"k+l+m+;.;.;.;.;.;.;.;.%+%+;.;.;.;.&+&+&+;.;.;.;.;.;.;.;.n+o+p+q+",
"r+s+t+;.;.;.;.;.;.;.;.%+%+;.;.;.;.&+&+&+;.;.;.;.;.;.;.;.u+v+w+x+",
"y+z+A+;.;.;.;.;.;.;.;.%+%+;.;.;.;.&+&+&+;.;.;.;.;.;.B+B+C+D+E+F+",
"G+H+I+;.;.;.;.;.;.;.;.%+%+;.;.;.;.&+&+&+;.;.;.;.;.;.B+B+J+K+L+M+",
"N+O+P+;.;.;.;.;.;.;.;.%+%+;.;.;.;.&+&+&+;.;.;.;.;.;.B+B+Q+R+S+T+",
"U+V+/+V W+B+B+B+B+B+B+%+%+B+B+B+B+&+&+&+B+B+;.;.B+B+X+Y+Z+`+ @ @",
".@+@@@#@$@B+B+B+B+B+B+%+%+B+B+B+B+&+&+&+B+B+;.;.B+B+%@&@*@=@-@ @",
";@>@,@'@)@!@!@B+B+B+B+!@!@&+&+&+&+&+&+&+B+B+B+B+!@!@~@{@]@^@/@P+",
"(@_@:@<@[@!@!@B+B+B+B+!@!@&+&+&+&+&+&+&+B+B+B+B+!@!@}@|@1@2@3@4@",
"5@%.6@7@C 8@9@!@!@B+B+B+B+B+B+B+B+B+B+B+B+B+!@!@0@a@b@c@d@e@f@g@",
"<+h@h@A i@j@k@!@!@B+B+B+B+B+B+B+B+B+B+B+B+B+!@!@l@m@n@o@) M.p@q@",
"r@s@%@t@w.u@v@R w@x@y@z@z@B+B+B+B+z@z@z@A@B@C@D@E@F@G@H@s@I@J@K@",
"L@L@M@N@O@P@Q@R@S@T@U@z@z@B+B+B+B+z@z@z@V@W@X@Y@Z@`@ #.#n@+#@###",
"$#%#&#*#=#-#;#=.|@>#W+,#'#)#!#~#%@%@{#]#..8@b.^#/#(#q@_#{#:#<#[#",
"}#|#1#H.2#3#4#5#x@6#7#8#9#0#a#b#c#d#e#f#g#h#i#j#k#l#m#n#o#p#p#q#",
"r#N@s#t#u#}#v#w#x#y#z#A#B#C#D#E E#F#G#H#I#J#K#L#M#N#O#P#n#_#Q#R#",
"S#5#T#U#v#V#W#X@X#Y#Z#`# $.$+$@$#$$$%$&$*$=$-$;$>$,$'$)$!$~${$]$"};
