/* XPM */
static char *collectible1678715727[] = {
/* columns rows colors chars-per-pixel */
"64 64 242 2 ",
"   c #946C2D",
".  c #9A692D",
"X  c #9D6B33",
"o  c #9A6C35",
"O  c #8B7A36",
"+  c #967635",
"@  c #91722D",
"#  c #A5672E",
"$  c #A76836",
"%  c #B46C3C",
"&  c #B66C3B",
"*  c #A6763B",
"=  c #B9733D",
"-  c #AE7B42",
";  c #B57544",
":  c #BD7444",
">  c #B57C46",
",  c #BC7B46",
"<  c #BE7D4B",
"1  c #BE7548",
"2  c #BA6F42",
"3  c #C37946",
"4  c #CB764A",
"5  c #C37C4B",
"6  c #CB7A4C",
"7  c #C47647",
"8  c #D3764C",
"9  c #D5784D",
"0  c #C57C50",
"q  c #CA7E52",
"w  c #569C2B",
"e  c #5A9D2D",
"r  c #599927",
"t  c #549C32",
"y  c #5B9D33",
"u  c #5B9D3A",
"i  c #539934",
"p  c #4F9D25",
"a  c #619E2C",
"s  c #629D27",
"d  c #798A37",
"f  c #639E35",
"g  c #699A3A",
"h  c #77963B",
"j  c #6C8D3E",
"k  c #5DA12D",
"l  c #57A22A",
"z  c #54A335",
"x  c #5DA234",
"c  c #5DAA34",
"v  c #56A43C",
"b  c #5CA43B",
"n  c #5CAA3B",
"m  c #62A32D",
"M  c #6BA52D",
"N  c #67A82C",
"B  c #62A534",
"V  c #6AA533",
"C  c #64AA35",
"Z  c #6AAB34",
"A  c #62A43B",
"S  c #6AA43C",
"D  c #64AB3C",
"F  c #6BAC3C",
"G  c #73AD3C",
"H  c #75A73B",
"J  c #64B23C",
"K  c #6CB23D",
"L  c #67B739",
"P  c #73B33C",
"I  c #7BB43D",
"U  c #7ABA3D",
"Y  c #75B83A",
"T  c #7CC23D",
"R  c #5D9E41",
"E  c #579C43",
"W  c #798C42",
"Q  c #619D49",
"!  c #689B44",
"~  c #799944",
"^  c #5CA243",
"/  c #5DAA43",
"(  c #5EB345",
")  c #63A443",
"_  c #6AA543",
"`  c #65AB42",
"'  c #6BAD43",
"]  c #6AA44B",
"[  c #66AC4B",
"{  c #6BAD4A",
"}  c #62A549",
"|  c #73A444",
" . c #71AC43",
".. c #75A44A",
"X. c #7BA54A",
"o. c #7DAC4C",
"O. c #78AB46",
"+. c #66B344",
"@. c #6CB243",
"#. c #6DBA44",
"$. c #64B34C",
"%. c #6CB44A",
"&. c #66BA4B",
"*. c #6DBA4B",
"=. c #65BC46",
"-. c #72B544",
";. c #7BB444",
":. c #74BA45",
">. c #7BBB44",
",. c #73B54B",
"<. c #7AB54B",
"1. c #74BA4B",
"2. c #7ABC4C",
"3. c #6CAC52",
"4. c #75AC52",
"5. c #7BAA55",
"6. c #6BB951",
"7. c #73B553",
"8. c #75BB52",
"9. c #7BBD52",
"0. c #76B559",
"q. c #7CB654",
"w. c #69C24B",
"e. c #7EC244",
"r. c #75C14B",
"t. c #7CC24C",
"y. c #75C448",
"u. c #6EC052",
"i. c #74C152",
"p. c #7CC353",
"a. c #7DC857",
"s. c #8D8439",
"d. c #8B8C3D",
"f. c #868838",
"g. c #93823B",
"h. c #98863C",
"j. c #88963D",
"k. c #92913F",
"l. c #A7803F",
"z. c #87BE3D",
"x. c #83A13F",
"c. c #8AC33C",
"v. c #92C43F",
"b. c #958E43",
"n. c #9A8743",
"m. c #8B9443",
"M. c #879A46",
"N. c #939849",
"B. c #8C9A52",
"V. c #999A55",
"C. c #8A8D45",
"Z. c #A88747",
"A. c #B18145",
"S. c #BB834C",
"D. c #B58548",
"F. c #BE8650",
"G. c #A8995A",
"H. c #B69559",
"J. c #AB8D51",
"K. c #82AA4D",
"L. c #88A549",
"P. c #94A74B",
"I. c #82B644",
"U. c #82BC44",
"Y. c #82BD4B",
"T. c #86B84B",
"R. c #8AAA52",
"E. c #8CA453",
"W. c #97A656",
"Q. c #82BC53",
"!. c #88B755",
"~. c #96BA5A",
"^. c #A9A45D",
"/. c #B29C60",
"(. c #A7A563",
"). c #B6A768",
"_. c #B4B16C",
"`. c #C2814D",
"'. c #C48554",
"]. c #C38A55",
"[. c #CA8A5A",
"{. c #C98858",
"}. c #D4885B",
"|. c #CA925E",
" X c #C69159",
".X c #CC9463",
"XX c #CD9B6A",
"oX c #C99A68",
"OX c #DE956B",
"+X c #D59D6C",
"@X c #DB9D6E",
"#X c #D59565",
"$X c #D59D73",
"%X c #DB9D72",
"&X c #D89771",
"*X c #D4946B",
"=X c #E19A6E",
"-X c #E1946A",
";X c #E49A72",
":X c #E89D74",
">X c #D4A16D",
",X c #D9A06F",
"<X c #CEA373",
"1X c #C8A674",
"2X c #D4A172",
"3X c #DAA173",
"4X c #D5A47B",
"5X c #DAA67B",
"6X c #DDAB7D",
"7X c #C7B075",
"8X c #E1A478",
"9X c #84C245",
"0X c #84C44C",
"qX c #8AC64B",
"wX c #85CA4D",
"eX c #89C747",
"rX c #94C848",
"tX c #82C453",
"yX c #83C953",
"uX c #83C45A",
"iX c #84CA5B",
"pX c #8CCB5B",
"aX c #8AC754",
"sX c #93C855",
"dX c #92D049",
"fX c #8BCA62",
"gX c #8ECD62",
"hX c #C8C37F",
"jX c #DABB86",
"kX c #DAA980",
"lX c #E7B488",
"zX c #F1BE8F",
"xX c #EBB88D",
"cX c #DAC88B",
"vX c #CDC483",
"bX c #F6C99B",
"nX c #ECD69C",
"mX c #EECE98",
"MX c #FBCCA2",
"NX c #FDD4A5",
"BX c #FEDBAB",
"VX c #FBD8A7",
/* pixels */
"t A { 7.0.0.3.} R ) R u u ' 2.tXG f G T._ f f ) u 7.8./ z ( &.*.n z =.a.8.t u 0.0.0.0.3.Q E R R f a -.pXt.x y 1.1.' B y x D %.%.",
"A ` { ,.8.0.7.} u R A b b @.9.tXV a G Y. .f f f b { ,.` n ` =.=.c z +.uXp.` ^ 8.7.0.0.] Q Q Q Q A B -.tX2.B B -.1.F x t z ` %.*.",
"x A _ ' { 7.%._ u ` _ D D -.2.t.G C -.2. ._ ' _ 7.-.' D A ' 1.2.K K K 1.-.A A @.' -.,.{ } } [ ` F F ;.q.1.F D -.,.@.D ` +.%.@.[ ",
"w e y x D ' { D ' ,.2.1.P :.:.:.2.-.-.1.-. .Q.uXQ. .f f F  .tXsXaX0XI C a a m k y ` ' ` } { %.1.-.;.2.2.1.-.-.,.,.1.1.9.p.,.D x ",
"B N k k D @.@.D ' 1.t.t.:.:.Y Y 2.%.:.1.,.,.tXuXuX .f V  .O.U.sXsXqXI M s M V m k D K D n +.1.i.1.>.2.;.-.-.-.-.,.1.p.p.p.6.` x ",
"1.:.-.K -.:.K A B K :.>.:.U U L C C #.2.,.,.,.' ,._ ' ;.;.G Z G I.z.U P P >.U K K L #.J c J #.1.:.-.-.-.F F F @.,.,.,.%.$.@.@.%.",
"yXtX9.1.1.2.@.B x K :.:.:.:.:.K k x #.9.,.,.%.A A F 1.t.>.P M m P I :.>.t.wXt.t.#.1.#.J c c +.1.:.-. .-.F B B #.,.-.@.D b D %.i.",
"iXa.9.8.2.2.' x B K 2.2.:.-.#.K B B @.r.*.1.%.n x +.t.t.>.L C m 2.:.:.:.1.y.i.a.#.r.r.D k c @.2.>.-.-.;.F x B %.%.2.1.@.b b %.p.",
"` [ { ,.8.7.' A A 8.fX8.%.@.' B :.2.Q.2.' n v c n n #.u.#.y.y.r.n z / i.&.z z 6.&.i.&.%.w u pXtX2.:.Z B ' t.p.,.,.@.A c b D @.8.",
"u ) 3.0.q.8.{ u A 9.fXuX8.%.` y Q.0XY.-.D x z t n +.*.*.#.%.#.-.D / / 6.$./ / &.u.i.8.%.u f fXQ.Y.:.S f F 2.p.t.,.@.x e z b #.8.",
"u R { 7.0.7.{ A ` 8.uX9.,.{ _ ` tXQ.<.F ' ' ` n n ` @.%.,.<.T.q.3.] 3.[ ^ ^ / [ $.6.[ { A _ Q.q.-. .F B K 2.p.1.@.@.D A x b [ #.",
"} Q R ) ^ A A ` _ @.%.) ) _ { 8.Y.;.G C @.p.a.0.{ ` _ ..o.!.!.!.R.5.5.Q ! R R ^ R b ^ A g _ q.<.f Z F G 1.t.-.A D ,.9.8.*.+.b u ",
"R u u u t y b @.@.D x x u D 7.uX>.-.C B -.iXfX!.q...~ ~ E.W.W.V.W.W.B.W W ! ! g g u A A S ' S ' r C  .;.2.0X@.e x %.uXuX2.+.b t ",
"u u ` %.,.K -.2.>.D m C @.@.,.2.t.:.C e _ q.q...~ ~ C.B.^.).).H./.(.V.C.W W X.X.!.{ 4.' q.2.B Z F P ;.-.2.p.-.A y #.p.,.+.` ` D ",
"u A ,.iXyXt.t.yXt.Z m K t.1.-.-.y.:.C e A q.0.! W B.(.).7X2X2X2XoXoXH.J.n.C.M.R.~.!.Q.2.pXa.l B :.>.1.-.;.2.-.C y @.2.+.b A ` ` ",
"x ` ,.iXyX:.y.yXwXZ e K t.2.1.*.L L C a F !.R.W B._.jXjXkX3X&X&XkX&X.XH.- O b.W.~.!.uX1.gXyXw k -.1.2.1.-.1.@.x e -.2.K x B D D ",
"u b ` ` D D *.a.p.K x x D ` %.8.y.L Z 2.R.h d.^.1XjXnXMXxXkX&X$X>X>X#X}.'.3 A.n.m.h _ 1.a.a._ r y b ' 1.1.-.P Y :.N s P U.U.;.;.",
"z b D ` D +.#.p.p.+.x u b ` %.8.w.L P ;.L.d.N.1XjXMXBXMXkXkX&X$X>X,X=X#X}.6 > A.b.~ O.8.fXa. .y y A ' -.-.:.:.P >.V m I eXY.U.U.",
"A ` ` @.` D J ,.-.@.` D ` ` { 7.T w.y.I.j.N.).jXMXBXBXbXkX&X&X*X>X3X=XOX}.9 5 A.n.m.X.O.7.7.@.` ^ +.` D %.t.y.Y >.Z m P Y.aXY.Y.",
"%.%.*.%.D x x c D D %.2.,.{ ` ` =.y.wXI.M.^.vXMXMXBXMXkXkX*X&X&X>X3X=X-X-X}.`.A.J.b.d h f _ %.8.%.%.+.D @.p.tX:.:.N k Z >.Y.>.;.",
"8.2.1.1.@.x k x x K 2.8.,.{ ) A :.tXaXL.W.hXnXVXBXMXxXkX$X$X%X%X,X>X=X,X#X}.`.> D.Z.s.d g V %.6.&.6./ z ( i.a.:.:.C B Z >.Y.;.-.",
"2.1.1.1.#.D C C D K %.@.` A A b -.>.R.R._.cXnXVXMXbXxXkX$X$X%X%X,X>X@X>X#X|.`., `.D.l.h.j.| @.&.$.[ ^ z n 1.2.#.1.Y K -.1.2.:.G ",
"p.1.2.>.:.K K K K @.@.D b A b u | o.R._.hXnXBXVXMXxXkXkXkX&X&X%X@X@X@X>X+X X].3 3 `.D.Z.N.X.$.( $./ v i b J #.#.y.1.2.1.1.:.-.G ",
"tXt.2.2.:.K K P K :.,.@.` ` u i ! L.~._.cXVXBXVXxXkX/.$XkX$X&X8X;X@X+X>X>X|.{.3 8 8 3 l.b.M.' $.$./ i z v J %.1.:.t.0XY.1.-.' F ",
"Z P ;.0XpXwX>.K :.K D @.%.%.' { ~ B.(.vXnXBXVXbXkX5X4X4X$X$X$X%X@X&X>X<X<X.X].6 9 9 8 ; h.M._ $./ $.$.$.+.#.*.#.r.c l P tXp.-.-.",
"Z G >.0XaXwXt.U Y K D ' %.@.%.4.B.W._.cXVXBXbXzX8X5X4X2X$X$X%X%X&X@X>X<X<XoX[.6 9 9 8 7 l.d.h ) 6.$.%.$.%.*.*.#.t.x w Z t.p.2.Y.",
"Z P U 9XqXwX0Xe.:.K K J +.[ $.4.B.G.jXnXBXVXzX6X5X2X<X$X$X$X3X;X%X%X2X2XXXXX[.5 8 9 8 , + s.h | 7.$.$.+.$.%.1.:.t.C l F 0XtX2.;.",
"I I U 9XeXwXwX0X9X:.#.' D b ` ..B.).cXVXVXbX8X+X3X2X<X$X>X$X3X3X%X%X2X2X2XXX[.0 4 8 8 3 - g.m.K._ ^ b D +.#.-.t.tXK F 0XpXaX;.F ",
"I z.z.U.9X9X9XwX0X:.#.D D n ^ | V.).cXbXbXlX8X@X$X+X>X>X>X>X,X,X$X$X$X2X2XXX{.0 4 4 6 5 - + s.L._ v b D J @.:.t.0X:.:.qXpXaXP V ",
"U.U.eX9X9Xz.T c.e.P Z C D ` ` X.V.1XxXzX8X:X@X8X+X>X>X>X>X>X+X+X2X$X<X2X2X*X[.0 q 7 5 < -   O f.| ` ` @.@.C K 0X0X>.I I Y.U.>.;.",
"eXeXeXeXT U U U Y Z k C @.%.%.o.G.1XkXkX8X@X@X=X+X>X>X>X>X>X+X+X2X<X<X2X$X*X[.0 '.7 3 S.- o @ O X.%.,.1.@.k Z U.wX>.I P I I Y.qX",
"rXrXrXeXz.Y Y Z Y B l B #.,.,.K./.oX$X$X8X=X@X@X,X>X>X>X>X+X+X+X$X$X$X$X$XXX[.< 0 , , S.A.*   O | @.1.i.K k C >.wX0X>.I P I qXsX",
"rXrXc.c.eXT T eXc.N m N U.U.I j.G.&X$X4X$X$X$X$X4X<X<X>X,X,X=X,X%X2X2X2X2X.X].S.`.3 `.`.= * o O ..%.8.iX1.w k 2.0XP N Y 0X0X9XU ",
"v.v.v.eXdXc.T wXe.N m M z.T.U.P.H.XX5X%X$X$X$X4X<X<X1X<X2X,X,X=X%X%X%X$X+X|.F.> `.`.`.3 > $ - O E.3.9.iX1.B B :.P V m P 9XeX9Xe.",
"z.v.z.z.c.T e.wXy.Y M V O.I.L.L.J.oX%X%X&X&X$X$X<X<X<X<X2X,X=X=X%X$X$X2X+X XF.> 5 5 6 5 ; $ o O K.%.8.2.,.F A F F C K U 9X>.Y U ",
"rXrXz.M N C -.yXa.#.S S g g g d J.XX%X%X&X&X%X%X2X4X2X2X2X,X@X=X&X%X%X$XXX X`., 5 3 3 3 ; $ o O h ` A ` ' ,.-.C F I >.0X>.>.:.I ",
"sXrXH s r m G p.tX,.` g ! g g j Z..X&X%XOX;X%X%X2X4X2X2X>X,X,X,X%X$X%X+X.X[.`.5 5 3 4 3 ; $ $ O j b b y _ 2.,.C V P 2.0X2.>.>.>.",
"T.T.H s f F -.q.9.{ ` ] ] ! ! W n.].#XOX@X;X;X%X%X2X2X2X,X,X,X@X%X%X$XXX X].`.`.6 4 3 = $ $ o s...' A x D 8.7.F F 2.tX2.P Z F G ",
"I.<.H a G -.2.8.8._ ! _ 4.4.] W n.D. X#X=X:X;XOX%X%X2X2X,X,X,X,X,X+X*X.X].`.5 5 6 4 7 & $ # X h.K.%._ b ` 7.8.<.8.tXpX<.B a m B ",
"2.T.V s F ,.1.8.,.` u { 4.4.] j s.Z.F.[.-X:X;XOX;X%X3X%X>X>X@X>X@X+XXX[.S.< 7 3 6 4 = % $   + h.K.%.D A A -.2.8.q.Q.uX-.V f B V ",
"U.;.>.2.>.-.#.1.1.` _ ` u ! 4.K.s.l.D. X#X#X-X=X;X&X&X%X,X>X@X+X+X|.{.S.1 < 0 0 q 4 % # . @ + m.| ` _ ' ,.,.,.,.tX .A S <.<.2.<.",
"2.>.t.yX0X2.>.2.1.K K F x S -.o.M.g.h.l.].}.-X=XOX&X@X@X+X+X+X#X[.].'.< < < 0 0 4 2 $ X @ g.k.M.g D ' ,.8.1.8.9.2. .F -.2.2.2.<.",
"I :.>.tX0X:.-.K :.K F C k C >.T.L.j.s.h.D.`.{.}.}.}.#X*X#X|. X].`.S., , 1 0 0 4 2 $ #   O d.m.L.f x @.p.9.-.@.9.,.F F  .-.;.<.<.",
"x D -.t.2.:.K C B k k k e C 2.0XH j.f.d.l.l., 3 0 q q {.'.`.`.< < 5 < 5 0 0 1 2 $ $ . @ f.f.g g m x -.yX1.B B -.<.F y e f F -.Q.",
"x A %.,.1.,.' A x w k k k K t.t.a s h d.h.l.`.`.0 0 < S.< S.S., 5 5 3 3 5 3 2 % $ X @ O d h f x x c -.wX:.k x P 1.F a e f C  .2.",
"u ^ [ { %.%.' A D B F K Z K e.y.F G H j.k.+ * `.5 0 0 0 0 5 `.`.`.5 3 7 7 = $ $ $ o + d.h S F J D Z -.t.2.Z K :.;.G F F -.G G F ",
"E ^ E ^ } { { A @.' -.t.#.:.y.#.y.2.I.L.k.g.* & 1 1 0 < < < < , 3 = = & & $ $ # $ o n.m.~  .*.w.y.#.:.e.>.-.:.>.>.-.:.Y.0X2.V a ",
"E ^ u u b { %.` ' @.i.a.1.1.r.K =.+.I.T.P.k.h.+ o * - ; > > = = = & # # # . # .   O C.M.O.F =.w.a.t.:.-.:.:.:.:.t.-.>.tXaX2.S r ",
"1.1.:.K K :.@.x D -.2.2.1.1.,.@.D @.-.<.!.L.M.M.f.O O o o . # * # # .   @ g.k.d.L.M.I.G m c L #.y.+.@.1.#.C A -.-.1.2.-.G G  . .",
"tXyXt.:.:.t.-.B B F 1.2.1.,.1.%.C C F %.8.<.X.~ j d d.s.@     . . X + g.k.N.P.~.T.I.T.:.m B :.:.#.#.#.#.D x x @.-.1.1. .S F -.1.",
">.t.t.:.>.1.K x k @.2.2.,.-.@.-.F V F  .<.O.| g g B.E.m.d.k.g.g.b.b.b.V.P.M.R.!.T.<.q.-.e k -.2.1.1.%.@.A C F @.-.:.-.C y D ;.Q.",
"C K -.:.:.:.K B C :.tXp.-.F A C <.>.<.,.4.' A f g K.!.R.R.W.P.N.N.N.E.W.R.~ ~ q.Q.7.,._ y V q.pX1.1.%.C D 1.9.2.-.%.D y e B ,.2.",
"e A ' :.1.1.K C D 1.yX0X:.D C C 0XaXQ.;.' F A u u ' ,.<.o.!.R.I.| ! ..!.4.Q } 0.0.4.7. .g  .Q.fX2.-.S x ' tXiX2.-.@.A l y D @.#.",
"y x F ' -.@.D B C -.t.1.K K F F U.Y.I.G F K +.` D / +.+.1.:.1.,.] ] 3.3.[ ^ ) [ %.[ { { S | !.Q.<.-.C B @.tX2.-.F @.J A D K D A ",
"x y b b A B A A D F K C C F P :.>.;.G C F 2.i.#.*.n n =.1.#.#.*.6.0.3.^ ^ v b v ^ b A ` A S O.S S S F -.2.9.-.D A #.i.2.#.+.D z ",
"b u y y y y A @.@.F C e k C :.e.Y.I C e #.a.iXw.u.c z J :.#.#.r.8.6.[ ^ z b n v v t y D S F  .C r f G q.tX<.' D y -.iXiXr.K n l ",
"A A  .8.,.' ,.tX2.F x C #.-.-.:.K e.J l D t.*.A A n D -.t.>.Z e ,.,.-.@._ b D #.1.#.+.y.2.:.C k S <.;. .-.9.-.x B %.1.#.C C n J ",
"t b 0.iXuX9.9.iX2.D B @.1.>.-.Y :.:.B l J :.@.x l B K >.0XU.Z s ;.<.;.<.P B Z 1.uXr.t.t.tXy.Z l -.2.2.1.<.2.@.A e K %.@.x v n J ",
"u A 7.iXa.8.8.uXp.F x F 1.1.-.#.1.#.c x +.K D F D F O.Y.T.I.H M ;.H I.Y.;.m C 2.p.e.:.y.a.y.c l -.-.<.1.2.,.@.F y D %.K A A J @.",
"u x ` ,.%._ ,.uXuX' t e A @.%.2.2.#.J ' %.D D <.Y.<.;.G G I I.eXV V G qX;.a k P Y C J y.a.y.c p V C ' 1.2.-.-.-.D F K @.:.1.1.1.",
"y y y A F ` ,.iXuX' r i x _ %.1.2.*.1.8.-.y S iXfXtX;.H V G U.pXm B -.tX2.x k K K B J 1.a.y.+.l t x C #.2.1.,.1.-.F D -.t.uX9.<.",
"C B F %.@.D ' 7.,._ ` ` _ @.%.' 1.2.1.2. .y A fXQ.Q.<.F Z K P :.c D #.a.r.K D K @.A C #.i.*.+.n A D D @.1.t.2.1.1.A B ' p.yX9.-.",
"1.-.:.2.@.x y A D ' ,.7.,.%._ ` q.Q.8.<.{ y f q.8.,.1.-.K L L c J =.u.u.i.*.*.%.%.` b b ` ` [ %.%.#.D n @.i.p.1.1.A y ' 2.2.2.;.",
"2.:.%.-.F y e b b ' ,.7.7.{ } A uXpXQ.<.4.A A ,.1.2.,.1.#.L c z ( w.w.( &.u.8.&.6.` b t b / 6.i.1.#.n e D p.iX1.-.F V -.<.<.<.<."
};
