/* XPM */
static char *grass1678715727[] = {
/* columns rows colors chars-per-pixel */
"64 64 129 2 ",
"   c #4F962C",
".  c #5D9726",
"X  c #549A25",
"o  c #5A9926",
"O  c #55972E",
"+  c #569C2B",
"@  c #5B9D2C",
"#  c #579736",
"$  c #559C33",
"%  c #5B9D33",
"&  c #549C39",
"*  c #5C9E3B",
"=  c #619E2E",
"-  c #629E34",
";  c #629E3C",
":  c #5DA326",
">  c #5CA22D",
",  c #53A235",
"<  c #5DA234",
"1  c #5EA935",
"2  c #5DA33B",
"3  c #5DA93B",
"4  c #60A026",
"5  c #62A42D",
"6  c #6CA62E",
"7  c #64AA2D",
"8  c #6AAB2E",
"9  c #62A534",
"0  c #6BA634",
"q  c #65AA35",
"w  c #6AAC35",
"e  c #62A53B",
"r  c #6AA63C",
"t  c #65AA3C",
"y  c #6AAD3C",
"u  c #72AE34",
"i  c #71AD3B",
"p  c #6BB236",
"a  c #66B13C",
"s  c #6CB23D",
"d  c #74B335",
"f  c #7BB435",
"g  c #7DB837",
"h  c #73B43C",
"j  c #7AB53B",
"k  c #73BA3D",
"l  c #7BBA3D",
"z  c #579D42",
"x  c #5C9F42",
"c  c #609D46",
"v  c #629E48",
"b  c #5CA243",
"n  c #5CAA43",
"m  c #5AA349",
"M  c #63A542",
"N  c #69A641",
"B  c #65AB42",
"V  c #6BAD43",
"C  c #64A44A",
"Z  c #65AC4A",
"A  c #6BAD4A",
"S  c #72AF43",
"D  c #66B244",
"F  c #6DB244",
"G  c #6EB945",
"H  c #65B34B",
"J  c #6DB34A",
"K  c #6EB94A",
"L  c #72B544",
"P  c #7AB543",
"I  c #74BA45",
"U  c #7BBB44",
"Y  c #73B54B",
"T  c #79B64B",
"R  c #75BA4B",
"E  c #7ABC4B",
"W  c #65AC50",
"Q  c #6DAD52",
"!  c #70AC52",
"~  c #6DB451",
"^  c #73B552",
"/  c #7AB752",
"(  c #75BA52",
")  c #7BBD52",
"_  c #76B759",
"`  c #7CBD59",
"'  c #76C044",
"]  c #7DC244",
"[  c #75C14C",
"{  c #7CC24D",
"}  c #7DC253",
"|  c #7FC853",
" . c #7FC159",
".. c #85BA34",
"X. c #83BD3C",
"o. c #86C131",
"O. c #8CC634",
"+. c #84C13E",
"@. c #8CC43B",
"#. c #8FCA3A",
"$. c #91C53F",
"%. c #82BD43",
"&. c #82BE4A",
"*. c #82BD52",
"=. c #84C245",
"-. c #8AC544",
";. c #8CC944",
":. c #83C44B",
">. c #8BC64B",
",. c #84CA4B",
"<. c #89C94C",
"1. c #94CD46",
"2. c #92CB4A",
"3. c #88D14C",
"4. c #96D141",
"5. c #82C553",
"6. c #8AC553",
"7. c #84C954",
"8. c #8BCA54",
"9. c #83C55B",
"0. c #88C75D",
"q. c #85C95C",
"w. c #8BCC5A",
"e. c #91CA55",
"r. c #91CB5C",
"t. c #8FD251",
"y. c #8DD05D",
"u. c #87C862",
"i. c #8ACB65",
/* pixels */
"$ e A ^ _ _ Q C x M x * * V ) 5.y 9 V ( B * * e * ^ ) N * y R Y r - S 6.` % * _ _ _ ~ Z m z m & < = L w.} @ < R R V 2 $ < e D K ",
"2 N J ^ ^ _ ~ C * b e 2 < V ) 5.9 < F ) V 9 * 2 2 J Y N e t F L 9 9 L 9.*.r e ^ ^ ^ ( Z b b b b 2 9 L 5.E 9 9 L R B < @ < B J ( ",
"< t N B A ^ J B * N V t y F E { B t F ) A r N B Y A B e t y I R y y L U L r q N B Y J B n M Z B y y P E I y N L Y F t t F H D D ",
"@ @ @ < r F A N V Y R R h I I I ] F I R L J }  .9.F < 2 t F } y.6.=.j 9 @ @ < < < t J B t V K ^ L P E E R L G L Y R R ` } R B < ",
"9 9 > > t s y t B R { { I I k k [ F I R L Y 9.9.9.V < t y F E w.8.>.l 5 : 7 q > > t s s t F R ) Y E E T L L Y L Y R ` }  .( B , ",
"I I L s F I F t q s I U I k k k w q h { I R Y B Y B y L I s s p ' U I s h P I s p F I t 3 e K E R P P S B w y F Y Y L K D D D J ",
"7.5.} R E E F < < y I I I I k p : > s R R L F 9 e y R } { s 9 : h k U I ] } 5.{ F E R y < t J R P h L L y 9 q F Y I L t 3 e K } ",
"9.9.) ( ) E V < 9 F E E I I F s 7 9 h E L R L t < y E } I s q 5 U E I R E { } 5.R ) E B < 2 J ) R L L L y > e L Y R R B 3 2 H } ",
"M A A Y ( ^ V e e E 9.) J F V 9 F ' :.R s 9 < < 9 B R I I I I R t 3 B } Y e e Y Y ) J Y # % i.*.( P r 9 s ) } Y R V t < 2 t F R ",
"* M A _ ` _ A 2 e ) i.9.( J N * { :.{ L t < < @ 9 y L R I U I I e 2 B Y J 2 M J _ ` ^ ^ * e i.` ) P w - w E 5.E R B 2 + , 2 J ( ",
"z C Q ! _ ^ A e N ( 9.` ^ A B r 5.{ I y y y B e t t y L R ' I I V Z B Z M 2 M A A ^ A A ; N *.` P L w 9 B { } R F V y t 2 3 D J ",
"C x x e b 2 e y B J A t 2 M J ( ) I s t F } 9.E Y B e t G U E E ( K Z M * * * 2 * 2 ; c c N _ Y 9 q y i E } I e t Y ) ( K B 3 < ",
"x * # % # $ e B F t < < * N Y  .R L t < F u.q.` Y r * t R R I I ( ( K M < & 2 M 2 * ; e N V N V o 9 i T ) { F @ < K 9.9.R D 3 $ ",
"* * N Y K y L { R w < q F L Y ) E I q % N ) ) B A e M R  .E B t K K D D e < e F Y L Y V ) E - r r L P P E { L e $ F } R D B B e ",
"2 M Y q.q.{ { 7.{ p 5 s { R K Y R Y y $ e ( J * M 2 N } 0.E 9 * G F G K a < t { 5.E :.U 8.5.. 9 L U R L I R L t % F E D 2 3 D B ",
"< e R q.7.I ' ,.,.w @ s { E R L L L t < t } Y < N e y ` 9.Y t 9 R F ' } F : 1 { w.E E E r.8.o 0 L R E R P R F 9 . L E s < 9 t t ",
", 2 3 D t t K 7.} s < < M D J ) R I p k h > 9 :.{ 5.E y r L E 5.9 9 L 7.{ < > a G t y ( u.9.N $ % 9 F R R L h I j 9 5 h &.&.P P ",
", 2 M B t D K | } F < % 2 N ~ ( I k s k p 5 9 5.5.5.P 0 0 S *.6.q e L 5.E q < F F e N ( u.9.V & * 2 B F L I I h I 8 5 f &.>.%.%.",
"e M D F D 3 t K G B e e M M J Y I ' k k p : 7 { 5.:.Y w 9 V T E y y G ) R t t F F e t F ^ Y B N M D B B G E { h U w 5 h &.6.&.P ",
"J J K K t < < 1 t D R ( R J B B { | ] I t : > I E E E T L y r 0 F V R E R F s G G q $ < t N J ^ H J D t F | } I k 0 4 w &.&.T P ",
"( E R R F 1 > < 9 s R ) R V M 2 R | [ ' a < > I I R E E E V 9 % J J J R K I G I I t > , 1 1 G [ K ~ n , D } 7.I I w 9 w U E P L ",
"E R R R F w q t t F G V B M M , a ' [ I I a s { R G F L L V y B B J J F G [ [ I G p q q a a D K H H , , 3 K [ G I k s L E T P i ",
") R U R I s p s s F G N 2 2 2 $ a G G K [ K G { E F y y V V L R B H D J R | { I ' p p k G a 3 ' H n , , 2 D K G R R E E R U L y ",
"5.{ E { U s s F s G L F B B 2   t D G R | R G R { F t y L s F Y n B H B G | { ' ] k p a a a a D H n & , 3 3 D [ ' [ { E E L S y ",
"w h P :.8.,.E h I s t F K J J J a I G R G + + 7.R { E R E E E E R H D D q q k { ,.,.| ] ' a a D n H H H H G K G [ 1 > L 7.} P L ",
"w i P :.8.,.] I h t w B D J J J D G G R F X X } 5.] U E E E E :.F Z t t 1 7 p l ;.,.,.] ' a 3 3 H ~ H H D K K G { < X w E } E E ",
"u d l :.,.<.:.] I s a y D B J J F I I [ L : 5 5.w.] I I U U E } H H D F p p d +.;.,.,.:.{ G a 3 K ~ H D H K I I { q : y 5.5.E T ",
"h j l =.>.>.,.:.:.I F t B 3 M D F h R { E p L t.8.U w d j h j :.R J R { ] k g +.=.;.=.>.3.} K H n n 3 t D G R { | h t { w.6.P w ",
"j X.%.%.=.=.:.,.,.I a t t 3 n N s p E 8.] L U 8.<.P u h d u f =.G R R { =.l X...@.-.=.:.7.9.( K 3 2 2 n y F I } ,.l L 6.r.5.P 0 ",
"%.%.-.-.=.=.+.] ] s w q t B B J F w %.8.&.d U %.:.%.j f f X.%.-.h F R =.=.+.X.@.-.X.X.%.:.[ J M D n D F s q s ] 5.P j U %.&.P P ",
">.-.>.-.X.l k l k w > 9 D K J J q 5 U 8.U j P d l =.-.f f %.-.-.F I U ,.>.-.@.@.$...f j E Y M & Z F Y R F 9 p U ,.U j i f P %.6.",
"2.2.2.-.X.f d d d 7 : < G R Y G 9 @ P e.=.U %.d u -.>.X.f %.>.&.F F U :.;.@.O.$.$...f u L Y B & B J R [ y > q U 7.=.U j j j -.e.",
"1.1.@.+.;.+.g ,.] 8 : 7 k ' ' [ t < y 5.P 4 6 >.-.-.%.X.X.%.%.E V M B P f #.4.O.O.O.;.%.5.` x * A V ) q.R + % E ,.h 8 d :.>.] l ",
"@.@.@.1.4.;.+.>.+.p : q I ' [ } t < t R p 5 u :.%.=.%.-.>.>.&.P e b N h j =.;.o.#.O.;.=.6.5.x * ^ Y } q.R 9 9 L h 0 5 k :.=.=.] ",
"+.-.-.X.=.U %.>.,.p 5 w s I R E t t y w y w f %.%.%.l &.E E L i V t L P P %.;.l X.X.%.&.w.5.q e F K Y ) Y y w r y w w P %.%.P k ",
"e.2.f 6 6 6 L 5.5.L t t e 2 n N K L y 9 w %.&.&.%.U i u w i L I :.E ] 5.:.6.>.h 0 0 i i 5.7.w q 2 M N t J Y V q y j E =.] U k j ",
"e.6.u = = = i *.5.Y e N M * & x Y E L 9 i 6.6.P &.U P 0 9 t L { ,.,.3.8.5.0.*.S - - r i =.,.7 w < 2 * % B E Y q 9 L *.:.E P P U ",
"&.&.0 = - r P *.` A C M Z C x x Y E L 0 P 6.6.i 0 i L B B t B F k d ' { &.*./ c ; c S P { ,.7 7 t B e < N ( E B w T 5.E L w i h ",
"P %.0 = i T T ) / M * Z ~ Q C M Y P P i &.r.*.0 = - e r A B 3 , : 7 h U T ) T e N N E P { ' : 7 L J N e N Y ( L T 9.6.E 9 = = 9 ",
"&.&.0 = w T E / Y N * B ^ Q b * S E E &.*.r.*.- 0 * % r Y J n , @ > i E E &.T e q S E E E E @ 9 Y K N 2 e K ) ( T 9.9.Y 0 = 9 0 ",
"P P U ] E L L E P N B N 2 n J Y P L E { P r r T T Y Y _ Y Z H ~ M N e e s ' ' k :.' k U E Y N N B B N V Y T R Y *.L e y T T E T ",
"E E :.5.5.U I E E F F t % e Y Y U L P P r ; N T ) ( / ) ( R K ( x * # % q k ,.3.=.k k R ( _ ! Q M e V R ( R ( ) / S r L T E T T ",
"h I U 5.5.I L s I y t q > q R I I I I L y - r / Y _ ( ( K R ( ^ v v x N 1 7 k ] ] k s I Y Q Q Q < 2 F } ) F F ) L y r S L T T T ",
"9 t L E E I y q q > > > @ w E { q t L E Y e - N r Y Y N e B G H C C ^ ` [ 7 7 k ] ' s s N C c c $ < L 5.E 9 < L T y - @ 0 r P *.",
"< M J Y R Y B q 9 X > 5 > s { { : 1 F K L * % - - S Y r @ 1 s I ; v ^ u.) t q G ' [ G t e * ; ; 9 < I ,.I > < h E y 9 @ % 0 S E ",
"* b B V J J V e t 9 w F p s { ' a a D K Y r N Y N Y L q 5 w I ] i V Y R J 3 3 B D G J B e r V y t w I { E a y U P i w y S i y y ",
"z x m x M A A n J B R E I I ' G [ ' K [ R K / 9.) S w q p h ] ,.<.=.L r 2 * z m m W ~ B N s k l I I I I U k I R P L L &.5.E r = ",
"x m x & 2 A J N V F ) } R I [ D ' D G R ( Y ( 9.0.V @ 5 s I ] :.t.:.p 9 % M m z b n A B t h l U | { I I I I I L E P P 5.6.&.w . ",
"R E I y s I F < t L E E R R Y F q w G E E Y Y V S V L L F p s I P ] P 0 w E R y s s L L 5 7 h j ' a F [ G q q L G R E L S i S S ",
"{ 7.{ I I E L 9 < s R E R Y Y L 9 9 t L E Y F N e V Y E P y 9 5 I ] ] P E 5.8.=.U P U j 5 5 L U R G G G t < < F L T T V r r L T ",
"E { { I I E F 5 > F E E L L F F w q w h Y P B 9 % V E { I L 0 @ L U E E E E E E ) E E i . > L E R R K F t 9 y F L Y L q < 9 P *.",
"q p L I I R p < q R 5.} L y t t I I R L L V q % % S E R I I I F r y S T L r N S ) L T V % e / 0.R R F t t R ) E Y G t @ @ e Y E ",
"@ e s Y E R F q t R 7.5.I w q q :.5.{ I V w e % q V P G L E { E e ; C Y Y e C / _ Y ^ A e B 9.i.E Y r < V 5.q.E F F 2 < % t F L ",
"$ < t V L F y 9 q L { I F y s t E { E y r V V q r V V L P E I L B A V ! C 2 e A ! V A A M A _ ` P F q 9 L 5.` F y F s e t y a 3 ",
"< * < e 9 2 e 9 q V s t q p L I I I y 9 y E ) Y Y r e V R L h L ( _ ! N * # % * M 2 N N 2 M A N r r w S T ( L w q G [ [ G a t , ",
"e * % $ % % t V V s 9 > @ q I ' { j 9 @ V 9.q.R ) q @ y R L L { R Y J e * * 2 e 2 # * N M A V 9 O - S ) 5.T V t $ Y q.q.[ D 1 > ",
"2 e J ( Y V L  .E t < w F I s I h E p @ y ) R r r r y L { E y > Y L G F t e t Y E Y F ( } Y t < r P T S Y ) P < 9 G R D t 3 3 a ",
"# 2 ^ 9.9.( } q.E y 9 F E I I I L I t o y E V e $ 9 B E 5.E w o R L I R V 9 y R 7.} E } 5.E y > S E E Y T E F 9 $ y I F 1 < a 3 ",
"$ r R u.9.( ( 9.} y < y R R L L U I 9 > V V y N e y L E E I s q h a I { G < 9 ' } ' I } 7.[ q + L Y T E E Y S B @ t G y t 3 a D ",
"< 2 N Y J V Y 9.9.B @ $ t B R R E I y s L q r Y ) R L F y L I { q 9 k { I : > k G p p ' 7.{ q X 0 e y R E L F G y y B L L R R R ",
"$ @ $ t y N R q.9.V $ O % B Y R R I P U L < r 6.u.5.Y w q s E w.: 1 G | [ < : a a q a I | { a > @ $ q L E R R R Y y q L } 5.5.Y ",
"q e t L F t V ^ Y V t N B V V V P E R R V @ 2 9.5.) Y V y y L U 1 a K  .[ s t a a t 1 G R G a 3 t t t D R [ E R R t - V } 5.&.Y ",
"R Y Y E F < $ e N V Y Y Y Y A r { :.E I V % * E Y E R P G y w 9 s J R [ ( R K G K e < 3 t D B F K D a t F } } Y Y t - V T *.E Y ",
"E L G P y < @ 2 2 V ^ ^ ~ A C 2 5.5.E L L 9 e Y E Y R R I s 9 > J R R D K ( ( K R B , $ < 3 K | [ G 3 + t } q.E L t q S T T P T "
};
