/* XPM */
static char * empty_xpm[] = {
"32 32 911 2",
"  	c #60A33B",
". 	c #6FB14D",
"+ 	c #75B656",
"@ 	c #69AA4D",
"# 	c #5EA041",
"$ 	c #5EA03C",
"% 	c #65A93D",
"& 	c #7CC051",
"* 	c #64A839",
"= 	c #71B44A",
"- 	c #65A83F",
"; 	c #5EA13B",
"> 	c #68AA45",
", 	c #6EB048",
"' 	c #64A73C",
") 	c #72B547",
"! 	c #65A438",
"~ 	c #7CBA4E",
"{ 	c #71B047",
"] 	c #6BAD48",
"^ 	c #73B654",
"/ 	c #6AB04F",
"( 	c #5BA244",
"_ 	c #5AA142",
": 	c #62A335",
"< 	c #7DBD4D",
"[ 	c #6FB242",
"} 	c #6AAE3F",
"| 	c #6FB346",
"1 	c #5CA134",
"2 	c #5FA73B",
"3 	c #6DB549",
"4 	c #5EA232",
"5 	c #63A63B",
"6 	c #6CAE47",
"7 	c #6AAC46",
"8 	c #69AC43",
"9 	c #6FB245",
"0 	c #6FB441",
"a 	c #77BC47",
"b 	c #6FB342",
"c 	c #74B849",
"d 	c #6DB045",
"e 	c #73B64D",
"f 	c #72B54D",
"g 	c #63A63C",
"h 	c #69AD3F",
"i 	c #7DC04F",
"j 	c #7ABA46",
"k 	c #72B23F",
"l 	c #66A737",
"m 	c #62A538",
"n 	c #67AB3F",
"o 	c #69AF46",
"p 	c #63AA43",
"q 	c #6AB149",
"r 	c #70B141",
"s 	c #7ABA4A",
"t 	c #72B544",
"u 	c #6FB344",
"v 	c #71B548",
"w 	c #6FB448",
"x 	c #70B84C",
"y 	c #64AC40",
"z 	c #6DB13D",
"A 	c #67AC39",
"B 	c #6DB141",
"C 	c #69AD3D",
"D 	c #6CB03F",
"E 	c #79BD49",
"F 	c #75BB42",
"G 	c #72B83D",
"H 	c #6EB33E",
"I 	c #74B946",
"J 	c #73B748",
"K 	c #77BB50",
"L 	c #68AC3D",
"M 	c #77BB47",
"N 	c #81C34A",
"O 	c #71B33B",
"P 	c #6BAF38",
"Q 	c #6BAF3A",
"R 	c #68AD3A",
"S 	c #6BB140",
"T 	c #65AC3E",
"U 	c #74BB4B",
"V 	c #77B948",
"W 	c #76B646",
"X 	c #6EB141",
"Y 	c #73B74A",
"Z 	c #76BB4E",
"` 	c #66AE42",
" .	c #80C456",
"..	c #79BC4E",
"+.	c #77BB4D",
"@.	c #67AA3C",
"#.	c #67AB3B",
"$.	c #77BB49",
"%.	c #74B945",
"&.	c #6EB43D",
"*.	c #62A730",
"=.	c #73B844",
"-.	c #74B847",
";.	c #66AA3C",
">.	c #79BD4C",
",.	c #72B743",
"'.	c #63A832",
").	c #74B843",
"!.	c #77BA46",
"~.	c #7BBF4C",
"{.	c #7DC14F",
"].	c #76BA4A",
"^.	c #6FB345",
"/.	c #61A539",
"(.	c #75B645",
"_.	c #73B343",
":.	c #66A938",
"<.	c #6AAD3F",
"[.	c #6CB144",
"}.	c #60A83C",
"|.	c #72B94E",
"1.	c #64A644",
"2.	c #70B34F",
"3.	c #76B954",
"4.	c #66A841",
"5.	c #6EB149",
"6.	c #81C45A",
"7.	c #70B44A",
"8.	c #66A93E",
"9.	c #78BD48",
"0.	c #66AA3A",
"a.	c #5EA233",
"b.	c #65A93B",
"c.	c #75BA46",
"d.	c #64A83C",
"e.	c #6EB249",
"f.	c #6AAD44",
"g.	c #6AAD46",
"h.	c #76B953",
"i.	c #70B34D",
"j.	c #5FA13C",
"k.	c #82C35E",
"l.	c #79B94A",
"m.	c #67A738",
"n.	c #73B645",
"o.	c #79BD4F",
"p.	c #5FA438",
"q.	c #5DA539",
"r.	c #6FB74B",
"s.	c #5FA044",
"t.	c #67A849",
"u.	c #6AAC4A",
"v.	c #65A841",
"w.	c #6CAF47",
"x.	c #74B64F",
"y.	c #69AB47",
"z.	c #6DB04B",
"A.	c #7ABF4D",
"B.	c #6DB23F",
"C.	c #71B449",
"D.	c #69AD42",
"E.	c #76BB48",
"F.	c #6CB24A",
"G.	c #65AB45",
"H.	c #5EA23D",
"I.	c #62A441",
"J.	c #67A946",
"K.	c #67A745",
"L.	c #66A442",
"M.	c #79B753",
"N.	c #6DAD3E",
"O.	c #6BAB3B",
"P.	c #77BA49",
"Q.	c #73B648",
"R.	c #6CB044",
"S.	c #6FB447",
"T.	c #65AC40",
"U.	c #5C9E3D",
"V.	c #64A641",
"W.	c #65A83E",
"X.	c #6DB140",
"Y.	c #61A535",
"Z.	c #69AC41",
"`.	c #77BA51",
" +	c #75B94A",
".+	c #62A637",
"++	c #75B84E",
"@+	c #78BB52",
"#+	c #68AB43",
"$+	c #69AC42",
"%+	c #78BC4D",
"&+	c #6FB444",
"*+	c #70B94D",
"=+	c #68AF45",
"-+	c #5BA238",
";+	c #64A83F",
">+	c #69AB41",
",+	c #6BAA40",
"'+	c #73B248",
")+	c #69A73D",
"!+	c #69A838",
"~+	c #75B545",
"{+	c #7BBE4D",
"]+	c #68AB3F",
"^+	c #7BC053",
"/+	c #6BB246",
"(+	c #5EA63A",
"_+	c #60A43B",
":+	c #7BBF54",
"<+	c #7CC14F",
"[+	c #7FC54D",
"}+	c #66AB36",
"|+	c #78BC4B",
"1+	c #73B747",
"2+	c #62A638",
"3+	c #6EB247",
"4+	c #69AC44",
"5+	c #64A63E",
"6+	c #73B54B",
"7+	c #7CBE53",
"8+	c #65A83A",
"9+	c #6EB645",
"0+	c #73BC49",
"a+	c #64AC39",
"b+	c #70B544",
"c+	c #7FC250",
"d+	c #7CBD4B",
"e+	c #87C655",
"f+	c #63A232",
"g+	c #74B544",
"h+	c #76B848",
"i+	c #76B948",
"j+	c #6AAD3E",
"k+	c #66A93B",
"l+	c #70B546",
"m+	c #62A73A",
"n+	c #67AC3F",
"o+	c #5BA339",
"p+	c #64AC41",
"q+	c #66AF3F",
"r+	c #77BF4E",
"s+	c #73BA4A",
"t+	c #5DA336",
"u+	c #65A941",
"v+	c #73B74F",
"w+	c #74B942",
"x+	c #6FB53B",
"y+	c #68AC35",
"z+	c #73B642",
"A+	c #80C14F",
"B+	c #72B241",
"C+	c #6FAE3F",
"D+	c #7FBE4F",
"E+	c #67A939",
"F+	c #6EB342",
"G+	c #65AA3A",
"H+	c #6AAF40",
"I+	c #82C35C",
"J+	c #63A43E",
"K+	c #5FA43A",
"L+	c #6EB245",
"M+	c #74B846",
"N+	c #74B640",
"O+	c #6FB039",
"P+	c #6EAC36",
"Q+	c #82BE48",
"R+	c #7DB844",
"S+	c #67AF44",
"T+	c #6BB347",
"U+	c #63AB3C",
"V+	c #65AD3D",
"W+	c #6AB041",
"X+	c #6BB045",
"Y+	c #6AAE46",
"Z+	c #6BB048",
"`+	c #7AC149",
" @	c #75BC43",
".@	c #63A932",
"+@	c #6EB23E",
"@@	c #7DC04D",
"#@	c #75B646",
"$@	c #70B043",
"%@	c #6BAE41",
"&@	c #76BA4C",
"*@	c #6CB240",
"=@	c #69AE3E",
"-@	c #62A83B",
";@	c #6DB047",
">@	c #6CAF48",
",@	c #67AF46",
"'@	c #65AD41",
")@	c #74BB49",
"!@	c #70B23B",
"~@	c #6BAA34",
"{@	c #82BF4B",
"]@	c #7EBA47",
"^@	c #75BA4A",
"/@	c #68AE3D",
"(@	c #61A734",
"_@	c #68AE3C",
":@	c #71B74A",
"<@	c #69AE45",
"[@	c #60A63E",
"}@	c #73BD48",
"|@	c #75BE48",
"1@	c #68B13C",
"2@	c #6EB441",
"3@	c #75B948",
"4@	c #74B749",
"5@	c #70B244",
"6@	c #66A83B",
"7@	c #6AB046",
"8@	c #6FB64A",
"9@	c #72BA49",
"0@	c #73BB47",
"a@	c #6CB53F",
"b@	c #5FA834",
"c@	c #62AA3A",
"d@	c #6EB549",
"e@	c #68B44D",
"f@	c #5AA53C",
"g@	c #6CB547",
"h@	c #76BE4A",
"i@	c #70B540",
"j@	c #6CAF3B",
"k@	c #7ABB48",
"l@	c #75B442",
"m@	c #7CBF4E",
"n@	c #7ABD4A",
"o@	c #72B742",
"p@	c #6DB23D",
"q@	c #6EB340",
"r@	c #6CB143",
"s@	c #63A83F",
"t@	c #59A038",
"u@	c #67B13F",
"v@	c #70BA47",
"w@	c #75BE4B",
"x@	c #73BB48",
"y@	c #73B947",
"z@	c #6BAF3F",
"A@	c #6DB142",
"B@	c #70B446",
"C@	c #65AE46",
"D@	c #69B246",
"E@	c #76BE4B",
"F@	c #7AC147",
"G@	c #74BB40",
"H@	c #6BB53A",
"I@	c #6AB53D",
"J@	c #66B341",
"K@	c #61AF47",
"L@	c #53A138",
"M@	c #5FAA3F",
"N@	c #6FB847",
"O@	c #75BD49",
"P@	c #79BE4A",
"Q@	c #6FAF40",
"R@	c #6FAE39",
"S@	c #7FBF48",
"T@	c #86C850",
"U@	c #78BC44",
"V@	c #68AE3F",
"W@	c #6BB348",
"X@	c #6BB24A",
"Y@	c #6CB544",
"Z@	c #71BA47",
"`@	c #64AB39",
" #	c #6EB242",
".#	c #7CC14C",
"+#	c #78BC48",
"@#	c #79BC49",
"##	c #69B34A",
"$#	c #65AE41",
"%#	c #65AC36",
"&#	c #77BC3E",
"*#	c #84C949",
"=#	c #7EC648",
"-#	c #6EB941",
";#	c #62B03D",
">#	c #64B24A",
",#	c #66B44B",
"'#	c #69B549",
")#	c #6FB947",
"!#	c #6CB441",
"~#	c #65AA37",
"{#	c #7EC04F",
"]#	c #78B849",
"^#	c #75B139",
"/#	c #80BE43",
"(#	c #87C74C",
"_#	c #82C449",
":#	c #76BA43",
"<#	c #69AF3E",
"[#	c #64AB40",
"}#	c #68B047",
"|#	c #6EB442",
"1#	c #78BD49",
"2#	c #79BC48",
"3#	c #82C44E",
"4#	c #74B53E",
"5#	c #78B840",
"6#	c #7DBE48",
"7#	c #6DB649",
"8#	c #71B847",
"9#	c #73B63C",
"0#	c #7CBC3A",
"a#	c #88C745",
"b#	c #85C74A",
"c#	c #7AC24C",
"d#	c #67B344",
"e#	c #63AF48",
"f#	c #62AE44",
"g#	c #6BB546",
"h#	c #6EB13D",
"i#	c #85C553",
"j#	c #77B644",
"k#	c #82BC41",
"l#	c #85C143",
"m#	c #84C244",
"n#	c #81C346",
"o#	c #79BD44",
"p#	c #67AD3A",
"q#	c #63AA3E",
"r#	c #66AD44",
"s#	c #6DB03D",
"t#	c #82C24D",
"u#	c #7BBB43",
"v#	c #80C047",
"w#	c #82C045",
"x#	c #77B438",
"y#	c #79B439",
"z#	c #80BD42",
"A#	c #70B745",
"B#	c #7BBF48",
"C#	c #83C142",
"D#	c #85BE3A",
"E#	c #89C13F",
"F#	c #83C045",
"G#	c #80C352",
"H#	c #6BB349",
"I#	c #60A940",
"J#	c #78BC47",
"K#	c #7EC048",
"L#	c #7CBB45",
"M#	c #86C24E",
"N#	c #77B340",
"O#	c #8EC748",
"P#	c #8BC646",
"Q#	c #7FBC3B",
"R#	c #78B83A",
"S#	c #6EB136",
"T#	c #5FA530",
"U#	c #6DB546",
"V#	c #6FB649",
"W#	c #65A633",
"X#	c #83C14B",
"Y#	c #7DBB43",
"Z#	c #7AB73D",
"`#	c #81BB40",
" $	c #84BE41",
".$	c #81BA3C",
"+$	c #86C246",
"@$	c #70B543",
"#$	c #7EBF48",
"$$	c #8BC644",
"%$	c #8DC33B",
"&$	c #8BC03A",
"*$	c #7AB439",
"=$	c #76B648",
"-$	c #5FA43F",
";$	c #68AF46",
">$	c #74BA4C",
",$	c #66AB39",
"'$	c #73B53E",
")$	c #82C24A",
"!$	c #78B63D",
"~$	c #7BB63E",
"{$	c #88C24C",
"]$	c #8FC841",
"^$	c #8BC63F",
"/$	c #8AC742",
"($	c #83C441",
"_$	c #76B93A",
":$	c #63A92C",
"<$	c #74BB42",
"[$	c #78C14A",
"}$	c #62A838",
"|$	c #72B644",
"1$	c #6DAD37",
"2$	c #7CB83E",
"3$	c #86C144",
"4$	c #85C043",
"5$	c #85C147",
"6$	c #7CBA45",
"7$	c #66A743",
"8$	c #82BF3E",
"9$	c #8EC93A",
"0$	c #8BC638",
"a$	c #87C443",
"b$	c #81C154",
"c$	c #60A141",
"d$	c #6EB24A",
"e$	c #7EC256",
"f$	c #6AAE40",
"g$	c #6CAF3D",
"h$	c #74B540",
"i$	c #6FB036",
"j$	c #83C347",
"k$	c #7FBF42",
"l$	c #8CC447",
"m$	c #7EB73A",
"n$	c #78B43A",
"o$	c #81BF48",
"p$	c #79BB47",
"q$	c #65A838",
"r$	c #68AD3F",
"s$	c #6CB345",
"t$	c #6AB042",
"u$	c #68AB3A",
"v$	c #71B03C",
"w$	c #7FBB43",
"x$	c #81BC43",
"y$	c #78B53D",
"z$	c #77B541",
"A$	c #75B543",
"B$	c #73B745",
"C$	c #7BBC48",
"D$	c #83C049",
"E$	c #78B238",
"F$	c #7BB840",
"G$	c #84C652",
"H$	c #66A939",
"I$	c #68AD42",
"J$	c #6EB147",
"K$	c #69AC3B",
"L$	c #6DAE3A",
"M$	c #79BA42",
"N$	c #7EBE44",
"O$	c #79B93E",
"P$	c #89C24E",
"Q$	c #6BA533",
"R$	c #66A233",
"S$	c #7AB74C",
"T$	c #77B750",
"U$	c #64A642",
"V$	c #61A445",
"W$	c #5DA040",
"X$	c #76B74A",
"Y$	c #6FAE3D",
"Z$	c #80BC4B",
"`$	c #80BB49",
" %	c #76B340",
".%	c #6EAE3E",
"+%	c #70B445",
"@%	c #79BF41",
"#%	c #83C64C",
"$%	c #83C153",
"%%	c #75B04B",
"&%	c #659F3A",
"*%	c #71AF41",
"=%	c #80C44A",
"-%	c #67AD2F",
";%	c #63A83C",
">%	c #5FA239",
",%	c #6FB248",
"'%	c #6FB145",
")%	c #70B041",
"!%	c #7FBF4E",
"~%	c #75B441",
"{%	c #75B43F",
"]%	c #7DB947",
"^%	c #69A634",
"/%	c #72B041",
"(%	c #7AB94E",
"_%	c #6EAE48",
":%	c #64A643",
"<%	c #6CAF51",
"[%	c #62A445",
"}%	c #76B547",
"|%	c #7BB746",
"1%	c #88C254",
"2%	c #77B045",
"3%	c #63A035",
"4%	c #65A63D",
"5%	c #6AB048",
"6%	c #5DA63C",
"7%	c #60A42F",
"8%	c #73B742",
"9%	c #7CBC4D",
"0%	c #6EAE44",
"a%	c #6BAA3F",
"b%	c #7ABD49",
"c%	c #62A631",
"d%	c #6EB248",
"e%	c #64A73E",
"f%	c #6CAF46",
"g%	c #76B84E",
"h%	c #7EBE52",
"i%	c #7EBE50",
"j%	c #66A435",
"k%	c #65A333",
"l%	c #7BBC46",
"m%	c #7EC04A",
"n%	c #71B346",
"o%	c #67AB40",
"p%	c #61A43C",
"q%	c #6FB249",
"r%	c #75B745",
"s%	c #7AB948",
"t%	c #6FAA3E",
"u%	c #73AE46",
"v%	c #77B64E",
"w%	c #75B850",
"x%	c #6FB74E",
"y%	c #6CB54E",
"z%	c #62A241",
"A%	c #60A139",
"B%	c #70B33E",
"C%	c #7DC345",
"D%	c #7BC043",
"E%	c #75B944",
"F%	c #76B74F",
"G%	c #6AA949",
"H%	c #65A840",
"I%	c #6CAF45",
"J%	c #74B74D",
"K%	c #77B94E",
"L%	c #76B54B",
"M%	c #6DAC40",
"N%	c #79B74A",
"O%	c #6BAF3D",
"P%	c #79BD4B",
"Q%	c #79BD4A",
"R%	c #6CB13D",
"S%	c #68AC39",
"T%	c #62A632",
"U%	c #62A733",
"V%	c #78BC49",
"W%	c #6DB33F",
"X%	c #73B746",
"Y%	c #69A83D",
"Z%	c #6BA841",
"`%	c #72B149",
" &	c #73B54C",
".&	c #6AB245",
"+&	c #6EB74A",
"@&	c #64A249",
"#&	c #6DAE4C",
"$&	c #69AF3A",
"%&	c #73BD3B",
"&&	c #79C341",
"*&	c #6FB540",
"=&	c #6BAC4A",
"-&	c #66A44B",
";&	c #5EA237",
">&	c #77BB4C",
",&	c #71B546",
"'&	c #6FB144",
")&	c #71B143",
"!&	c #66A538",
"~&	c #6FAD40",
"{&	c #70B44B",
"]&	c #66AB3E",
"^&	c #60A434",
"/&	c #65A936",
"(&	c #69AE39",
"_&	c #7AC049",
":&	c #62AD38",
"<&	c #6DB746",
"[&	c #6AAD42",
"}&	c #68A73F",
"|&	c #6CAB42",
"1&	c #6BAE40",
"2&	c #74B944",
"3&	c #6BAA41",
"4&	c #78B951",
"5&	c #6CB246",
"6&	c #65AE3F",
"7&	c #6EB848",
"8&	c #69B043",
"9&	c #63A53C",
"0&	c #67A63D",
"a&	c #6FB440",
"b&	c #73B342",
"c&	c #67A736",
"d&	c #6CAA3B",
"e&	c #5CA144",
"f&	c #5CA041",
"g&	c #66A946",
"h&	c #68AC44",
"i&	c #6CAF44",
"j&	c #75B947",
"k&	c #6DBB45",
"l&	c #70BC4A",
"m&	c #72B84C",
"n&	c #7CBE55",
"o&	c #78B74E",
"p&	c #65A635",
"q&	c #70B43C",
"r&	c #7FC446",
"s&	c #84C64B",
"t&	c #6BAD3C",
"u&	c #5EA23C",
"v&	c #60A649",
"w&	c #69AE48",
"x&	c #6BAE3C",
"y&	c #78BA3F",
"z&	c #78BF46",
"A&	c #75BB45",
"B&	c #74BA44",
"C&	c #75B844",
"D&	c #77B845",
"E&	c #7BBB49",
"F&	c #7FBE4D",
"G&	c #66A434",
"H&	c #7ABF4C",
"I&	c #73B845",
"J&	c #68AD3C",
"K&	c #75B94B",
"L&	c #65AA36",
"M&	c #70B442",
"N&	c #77BA4C",
"O&	c #6EB044",
"P&	c #6CAE42",
"Q&	c #73B646",
"R&	c #6FB23F",
"S&	c #6CAF39",
"T&	c #7BBD44",
"U&	c #76B740",
"V&	c #7ABC49",
"W&	c #73B542",
"X&	c #74B642",
"Y&	c #65A62F",
"Z&	c #74B740",
"`&	c #70B946",
" *	c #6FB846",
".*	c #66AD3C",
"+*	c #69AE3D",
"@*	c #74B747",
"#*	c #75B546",
"$*	c #6EAC3E",
"%*	c #74B144",
"&*	c #6AAE3D",
"**	c #7CC04F",
"=*	c #70B444",
"-*	c #71B441",
";*	c #71B345",
">*	c #63A539",
",*	c #66A83C",
"'*	c #79BB4C",
")*	c #74B745",
"!*	c #6BAE3B",
"~*	c #77B749",
"{*	c #75B447",
"]*	c #75B547",
"^*	c #79B94C",
"/*	c #73B346",
"(*	c #61A033",
"_*	c #7BBC4F",
":*	c #75BB4B",
"<*	c #6BB242",
"[*	c #69AE3F",
"}*	c #72B647",
"|*	c #61A335",
"1*	c #78B94B",
"2*	c #5EA134",
"3*	c #67AB3A",
"4*	c #7BC04D",
"5*	c #6DB23E",
"6*	c #7DC04C",
"7*	c #76B946",
"8*	c #6AAC3E",
"9*	c #65A73B",
"0*	c #68AA3E",
"a*	c #71B344",
"b*	c #77BA48",
"c*	c #67A842",
"d*	c #6DAD4A",
"e*	c #66A744",
"f*	c #6BAB48",
"g*	c #71B14E",
"h*	c #6EAE4B",
"i*	c #67A744",
"j*	c #7EBE59",
"k*	c #74B549",
"l*	c #65A739",
"m*	c #77B94C",
"n*	c #7ABE4F",
"o*	c #63A839",
"p*	c #64AA3A",
"q*	c #69B040",
"r*	c #5DA037",
"s*	c #5FA238",
"t*	c #66AA3D",
"u*	c #6AAE3E",
"v*	c #66AA38",
"w*	c #76B945",
"x*	c #65A735",
"y*	c #75B749",
"z*	c #79BB50",
"A*	c #6EAF44",
"B*	c #67A93A",
"C*	c #75B846",
"D*	c #75B750",
"E*	c #69AB46",
"F*	c #5C9E39",
"G*	c #5FA23C",
"H*	c #63A640",
"I*	c #66A943",
"J*	c #68AA43",
"K*	c #65A337",
"L*	c #73B144",
"M*	c #7BBB4E",
"N*	c #6BAE3F",
"O*	c #7BC353",
"P*	c #6CB545",
"Q*	c #5CA836",
"R*	c #5EA13A",
"S*	c #76B951",
"T*	c #76B950",
"U*	c #7BBF53",
"V*	c #65A938",
"W*	c #73B744",
"X*	c #63A533",
"Y*	c #70B343",
"Z*	c #7BBE4C",
"`*	c #66A836",
" =	c #66AA3B",
".=	c #6DB143",
"+=	c #63A638",
"@=	c #73B044",
"#=	c #77B649",
"$=	c #69AC3E",
"%=	c #6FB747",
"&=	c #60A939",
"*=	c #61AD3B",
"==	c #74B64D",
"-=	c #75B84C",
";=	c #5FA336",
">=	c #6EB244",
",=	c #68AB38",
"'=	c #6CAE40",
")=	c #6BAD41",
"!=	c #70B246",
"~=	c #72B445",
"{=	c #72B541",
"]=	c #76BD47",
"^=	c #69B03A",
"/=	c #6AB03B",
"(=	c #74BA45",
"_=	c #75BC46",
":=	c #7DC44E",
"<=	c #5FA631",
"[=	c #6BAC3E",
"}=	c #74B648",
"|=	c #76B84A",
"1=	c #6EB243",
"2=	c #65A93A",
"3=	c #6CB142",
"4=	c #6EB545",
"5=	c #5FA335",
"6=	c #69AC40",
"7=	c #75B84F",
"8=	c #72B54B",
"9=	c #67AA41",
"0=	c #77BA47",
"a=	c #76B947",
"b=	c #67A93C",
"c=	c #74B64B",
"d=	c #80C256",
"e=	c #70B243",
"f=	c #63AA36",
"g=	c #77BF4B",
"h=	c #6EB643",
"i=	c #64AD39",
"j=	c #65AE3A",
"k=	c #6BB340",
"l=	c #77C04C",
"m=	c #63AC38",
"n=	c #5FA636",
"o=	c #6AB040",
"p=	c #76BB4C",
"q=	c #7FC153",
"r=	c #7ABB4D",
"s=	c #5EA135",
"t=	c #72B54E",
"u=	c #6EB14C",
"v=	c #7FC14F",
"w=	c #78BB48",
"x=	c #67A93B",
"y=	c #6DAE43",
"z=	c #77B94D",
"A=	c #75B848",
"B=	c #70B341",
"C=	c #64A835",
"D=	c #6DB446",
"E=	c #71B94C",
"F=	c #72BA4D",
"G=	c #70B84B",
"H=	c #69B144",
"I=	c #5BA336",
"J=	c #61A93C",
"K=	c #6EB649",
"L=	c #5FA938",
"M=	c #72B94A",
"N=	c #7BC051",
"O=	c #6DAF41",
"P=	c #69A93C",
"Q=	c #7BB94C",
"R=	c #79B549",
"  . + @ # $ % & * = - ; > , ' ) ! ~ { ] ^ / ( _ : < [ } | 1 2 3 ",
"4 5 6 7 8 9 0 a b c d e f g h i j k l m n o p q r s t u v w x y ",
"z A B C D E F G H I J K = L 0 M N O P Q R S T U V W X u Y Z x ` ",
" ...+.@.#.$.%.&.*.=.-.h ;.>.,.'.).!.~.{.].^./.Y (._.:.<.Y [.}.|.",
"1.2.3.4.5.6.7.8.9.9.0.a.b.-.c.%.d.e.f.g.h.i.j.k.l.m.n.o.| p.q.r.",
"s.t.u.v.w.x.y.z.A.B.^.C.D.} c.E.F.G.H.I.J.K.L.M.N.O.P.Q.R.S.T.y ",
"U.V.W.u X.Y.Z.`. +.+++@+#+$+%+&+*+=+-+;+>+,+'+)+!+~+{+L ]+^+/+(+",
"_+:+<+[+F }+|+J 1+2+3+4+5+6+7+8+9+0+a+b+c+d+e+f+g+h+i+j+k+l+m+n+",
"o+p+q+r+s+t+u+v+w+x+y+z+A+B+C+D+E+>.F+G+H+C.I+J+K+L+M+N+O+P+Q+R+",
"S+T+U+V+W+X+Y+Z+`+ @.@+@@@#@N.$@%@&@l+*@=@-@;@>@,@'@)@9.!@~@{@]@",
"Z ^@/@(@_@:@<@[@}@|@1@2@3@4@5@6@7@8@9@0@a@b@c@d@e@f@g@h@i@j@k@l@",
"m@n@o@p@q@r@s@t@u@v@w@x@y@z@A@B@C@D@E@F@G@H@I@J@K@L@M@N@O@P@i+Q@",
"R@S@T@U@H V@W@X@Y@Z@`@ #.#+#@#{+##$#%#&#*#=#-#;#>#,#'#)#!#~#{#]#",
"^#/#(#_#:#<#[#}#|#1#+@2#3#4#5#6#7#8#9#0#a#b#c#d#e#f#g#O@%.h#i#j#",
"k#l#m#n#o#p#q#r#s#t#u#v#w#x#y#z#A#B#C#D#E#F#G#H#I#y <#J#K#L#M#N#",
"O#P#Q#R#S#T#U#V#W#X#Y#Z#`# $.$+$@$#$$$%$&$*$=$-$;$>$,$'$)$!$~${$",
"]$^$/$($_$:$<$[$}$|$1$2$3$4$5$6$7$Q@8$9$0$a$b$c$d$e$f$g$h$i$j$k$",
"l$m$n$o$p$q$r$s$t$u$v$w$x$y$z$A$B$C$D$x$E$F$G$H$I$J$| K$L$M$N$O$",
"P$Q$R$S$T$U$V$W$X$Y$Z$`$ %.%b.+%@%#%$%%%&%*%=%-%;%>%,%'%)%!%~%{%",
"]%^%/%(%_%:%<%[%}%|%1%2%3%4%5%6%7%8%9%0%a%l.b%c%d%e%f%g%h%i%j%k%",
"l%m%k@V n%o%p%q%r%s%t%u%v%w%x%y%z%A%B%C%D%E%F%G%H%I%J%K%L%M%N%N%",
"O%P%Q%R%S%T%U%V%W%X%Y%Z%`% &.&+&@&#&$&%&&&*&=&-&;&>&,&'&)&!&~&N%",
"H.Z+{&]&^&/&(&_&:&<&[&}&|&1&U%2&3&4&5&6&7&8&9&0&~#E a&s#b&c&d&/%",
"e&f&g&h&i&%+j&c.k&l&m&n&o&p&q&r&s&t&u&( v&w&x&y&z&A&B&C&D&E&F&G&",
"H&%.I&J&C >&K&B@L&M&N&O&P&Q&R&S&T&U&p$V&W&X&Y&Z&`& *.*+*@*#*$*%*",
"o@c.c.A &***=*} R&-*;*>*,*'*)*!*)%~*{*]*^*/*(*_*:*<*[*}*) k+|*1*",
"2*A@,&3*X.4*5*R 6*7*8*9*0*a*b*b*c*d*e*f*g*h*i*j*k*l*m*n*A@o*p*q*",
"r*r*s*t*u*v*L&2&w*x*y*z*A*B*C*)*D*E*F*j.G*H*I*J*K*L*M*N*[*O*P*Q*",
"R*S*T*U*B@V*W*=.C&X*n%P&>*Y*Z*`*,&,& =.=..>&o.+=@=#=1*$= =%=&=*=",
">%==++:+-=;=>=1+7*,='=)=!=~=)*{=$&]=^=/=(=_=:=<=[=}=|=1=2=3=3=4=",
"5=t*6=7=8=>%9=,%0=a=b=c=d=e=x&E f=g=h=i=j=k=l=m=n=o=p= +1=$=q=r=",
"3@1+b.s=9=t=u=I*v=w=x=y=z=A=B=C=D=E=F=G=H=I=J=K=7&L=M=N=O=P=Q=R="};
