/* XPM */
static char *exit_1_1678717093[] = {
/* columns rows colors chars-per-pixel */
"64 64 235 2 ",
"   c #231711",
".  c #251912",
"X  c #2A1C14",
"o  c #2E1F18",
"O  c #2C2119",
"+  c #352314",
"@  c #3A2615",
"#  c #3E2915",
"$  c #33261C",
"%  c #37291E",
"&  c #39291E",
"*  c #38271F",
"=  c #362C23",
"-  c #392E25",
";  c #3C322A",
":  c #3A3027",
">  c #3F3631",
",  c #452C16",
"<  c #4C311A",
"1  c #4D3015",
"2  c #5D3A1A",
"3  c #573618",
"4  c #633B16",
"5  c #6A3D15",
"6  c #643D1A",
"7  c #693E1A",
"8  c #723E13",
"9  c #6A390E",
"0  c #423528",
"q  c #5C3D21",
"w  c #513C27",
"e  c #453C35",
"r  c #483F38",
"t  c #673F21",
"y  c #65421D",
"u  c #6A411E",
"i  c #694517",
"p  c #754315",
"a  c #7B4515",
"s  c #7D4A1A",
"d  c #784618",
"f  c #5A4625",
"g  c #4D433C",
"h  c #564636",
"j  c #515325",
"k  c #644122",
"l  c #6C4422",
"z  c #694A2A",
"x  c #724623",
"c  c #744B25",
"v  c #7B4D25",
"b  c #744E2A",
"n  c #7A4E29",
"m  c #675628",
"M  c #7C5127",
"N  c #74522A",
"B  c #7D522A",
"V  c #785D2C",
"C  c #785634",
"Z  c #674F35",
"A  c #58662D",
"S  c #5B792E",
"D  c #67642D",
"F  c #78672C",
"G  c #68792C",
"H  c #75792B",
"J  c #676C32",
"K  c #677734",
"L  c #787936",
"P  c #796C32",
"I  c #54461F",
"U  c #564C44",
"Y  c #574C44",
"T  c #755E44",
"R  c #76634A",
"E  c #854B16",
"W  c #8C4D14",
"Q  c #844B19",
"!  c #894E19",
"~  c #814614",
"^  c #904E14",
"/  c #8D521A",
"(  c #88571B",
")  c #93551C",
"_  c #9B5A1B",
"`  c #985618",
"'  c #A25D1B",
"]  c #A75B17",
"[  c #AC631D",
"{  c #A7611C",
"}  c #B2661D",
"|  c #B6691E",
" . c #B86A1F",
".. c #824E25",
"X. c #835326",
"o. c #8B5D22",
"O. c #84552B",
"+. c #8B562B",
"@. c #86582D",
"#. c #8B5B2C",
"$. c #875925",
"%. c #925C2E",
"&. c #935A23",
"*. c #8C5D32",
"=. c #865B34",
"-. c #935E32",
";. c #9B5D31",
":. c #95612E",
">. c #9C642F",
",. c #916921",
"<. c #8A6237",
"1. c #956233",
"2. c #9B6535",
"3. c #93653A",
"4. c #9D6738",
"5. c #9D6A3A",
"6. c #986939",
"7. c #866F2C",
"8. c #A46534",
"9. c #A26936",
"0. c #AA6A35",
"q. c #A36A39",
"w. c #AB6E3A",
"e. c #A96736",
"r. c #B26E39",
"t. c #B06F37",
"y. c #AE713B",
"u. c #B3743C",
"i. c #B8763E",
"p. c #BC7A3F",
"a. c #B6783F",
"s. c #B56820",
"d. c #9E641B",
"f. c #C0753E",
"g. c #896A45",
"h. c #956B42",
"j. c #9C7344",
"k. c #9C764B",
"l. c #99784D",
"z. c #9B7B55",
"x. c #8B724C",
"c. c #A37748",
"v. c #BC7A40",
"b. c #B87741",
"n. c #A47D53",
"m. c #A36F40",
"M. c #C17C41",
"N. c #5A9D2D",
"B. c #579A2A",
"V. c #5B9D33",
"C. c #5B9D3B",
"Z. c #589A33",
"A. c #5D8835",
"S. c #629D2D",
"D. c #688A38",
"F. c #778838",
"G. c #679939",
"H. c #75973B",
"J. c #68842D",
"K. c #5CA22D",
"L. c #5DA234",
"P. c #5EA33A",
"I. c #5AA735",
"U. c #64A32E",
"Y. c #62A434",
"T. c #64A935",
"R. c #62A53B",
"E. c #64AA3C",
"W. c #6BAC3C",
"Q. c #6AA738",
"!. c #73A93A",
"~. c #6CB13D",
"^. c #67B13C",
"/. c #73B43D",
"(. c #7AB53C",
"). c #79B93C",
"_. c #5B9E43",
"`. c #669741",
"'. c #779845",
"]. c #728844",
"[. c #5DA143",
"{. c #62A343",
"}. c #66AB42",
"|. c #6BAD43",
" X c #6BAD4A",
".X c #68A647",
"XX c #71AD42",
"oX c #76A949",
"OX c #6DB244",
"+X c #6EB34A",
"@X c #6AB544",
"#X c #72B544",
"$X c #7AB544",
"%X c #75BA45",
"&X c #7ABB45",
"*X c #73B54A",
"=X c #79B64A",
"-X c #75BA4B",
";X c #7ABC4B",
":X c #73B552",
">X c #76BA53",
",X c #7BBD52",
"<X c #78B95A",
"1X c #72AB53",
"2X c #7CC14D",
"3X c #7DC253",
"4X c #7FC556",
"5X c #818B3C",
"6X c #84BE3D",
"7X c #89C33D",
"8X c #A98559",
"9X c #B28B59",
"0X c #AA804E",
"qX c #81BC44",
"wX c #83BD4A",
"eX c #81B44F",
"rX c #83BB53",
"tX c #81A543",
"yX c #A98A63",
"uX c #B4946B",
"iX c #B9986E",
"pX c #9E805A",
"aX c #C9A576",
"sX c #85C245",
"dX c #83C24B",
"fX c #8BC54C",
"gX c #8CC745",
"hX c #93CC49",
"jX c #82C553",
"kX c #84CA53",
"lX c #83C55B",
"zX c #85CA5B",
"xX c #8BC956",
"cX c #8FCD59",
"vX c #87CA62",
/* pixels */
"Z.R. X:X<X<X1X{._.{.`.C.L.|.;X4XE.L.|.>X|.C.C.{.C.:X>XE.V.|.-X-XR.S.XXlX,XC.C.<X:X>X:X.X[.[._._.I.K.#XcX2XY.L.-X*X@XL.V.L.P.@X:X",
"P.}. X:X:X<X1X{._.[.R.C.P.|.,X4XT.L.OX,X|.L.R.C.R. X=X}.R.E.OX#XY.S.XXxXrXE.{.=X:X>X:X X[.[.[.[.I.L.$XlX-XY.Y.#X-XE.L.Z.L.}.@X-X",
"Y.R.}.}. X:X+X.XC.}.|.}.E.OX-X2XW.E.@X3X+XE.|.|.*X*X|.R.E.~.%X2XXXW.#X&X#XR.R.|.|.+X1X.X[.[.}.[.Q.W.%X;X-XW.W.@X-X|.E.E.}.@X@X}.",
"B.N.V.Y.E.|. X}.|.*X-X-X%X).%X%X2XOX#X-XOX*X,X<X4XOXV.C.E.~.2XcXxXdX/.T.N.U.N.S.L.G.7.H _. X:X2X#X=X;X;X-X#X#X*X*X-X;X,X4X3X[.I.",
"Y.Y.K.L.E.~.OXT.^.2X2X2X%X/././.2X/.%X%XOX-X4XlXlX|.L.E.~.OX2XxXkXsX/.U.K.Y.T.K.J.o.&.) o.F.*X,X-X&X=X=X#X#X*X#X*X*X3X4X3X:X}.I.",
"&X%X#X~.OX%XOXT.I.^.%X%X).2X).~.T.T./.2X%X*X*X|.*X}.W.#X%X~.T.^.2X2X)././.$XH.G o.` d a o.o.H.;X%X&X#X$X~.W.W.#X*X*X+X@X@X X@X@X",
"kXjX3X-X;X;X@XL.K.^.^.2X%X%X%X^.K.K.~.2X-X#XOXT.R.W.-X3X;XW.Y.K./.!.G 7.( p W / / 5 y u 5 W ) '.-XXX$X#XE.T.R.|.*X*X@XE.[.I.+X3X",
"lX4X,X>X,X;X|.L.T./.2X2X2X%X/.^.T.U.~.;X#X-X#XT.V.|.;X3X#X!.J.F ^ ` E ] ` 8 ) ) 7 u 3 < 7 4 E &.F./.XX#XW.K.T.OX*X2X>X@XI.[.@X3X",
"}..X X1X>X>X|.R.R.>XvX,X+XOX|.R.%X&X;X'.J.J.D.L.S.G.F.7.,.d.) ] } ` { W a / ! 7 7 7 6 @ , 6 6 ! &.F.E.R.W.3X3X#X:X@XE.P.P.P.@X>X",
"_.{.+X<X<X>X XC.R.,XvXlX:X+XE.C.dXoXo.i 4 1 1 i s W ] } } { ' } ` / W p ) ) 4 t t i.i.3 @ # 2 4 Q _ P S.E.2XjX;X+XW.L.N.K.P.@X3X",
"C._. X:X<X:X|.{.{.>XlX,X+X X|.{.'.! 3 p E E ' } ' a / _ ) _ ) ) } [ E _ ! 4 l 7 e.r.f.e.t @ @ 6 7 ! ` H ~.;X3X*X@XOXE.P.P.P.}.+X",
"{.`._.{.{.C.R.}.|.|. X}.[..X:X7./ 2 9 ] _ ! / ! ` ` _ / ' | ` s.] W ) ! 6 l 7 r.f.r.r.i.e.t + @ 3 7 ! ` F.,X*XR.E.*X3X,X-X}.I.P.",
"[.C.C.C.L.Z.P.OXOXT.L.C.P.G.7.v 4 E ` ` [ | { ` { / a ( _ _ _ W ~ ) Q 6 7 t ;.e.e.r.w.q.e.8.t , @ 3 4 ! &.5XXXN.L.*XlXlX2X@XI.I.",
"_.C.{.*X*X^.@X2X&XW.K.T..Xo...3 p } ^ s ( ! ! ( a ! _ ` ' } ] W ) ! 6 7 v r.i.M.b.M.M.b.M.M.r.x @ # 1 4 / ) F.Y.V.@X2X-X@X[.[.[.",
"P.R.-XzXkX2X2XkX2X^.Y.H.o.8 3 8 s / / | [ _  .` / | _ ( } ] ! ) Q 6 6 x 8.r.M.M.b.b.u.b.M.M.b.r.O.# @ 3 2 ! ) H V.OX*X@XI.E.@XE.",
"P.R.-XzX2X2X).kXfX^.G &.7 7 a E E E E / / / / ` / / _ / 5 8 &.Q 7 4 v 2.8.m.w.w.w.e.w.0.w.w.w.q.2.c # @ 1 2 Q ` F XX2XOXP.I.E.E.",
"C.P.E.@XI.^.@X4X4XF.M 7 6 ` ' ) _ _ s ` } [ _ } [ ' | ] ~ ) d 7 7 ..8.0.u.w.w.u.u.v.u.b.y.u.i.p.u.r.%., @ 1 4 E ) H S.!.sXqX=X$X",
"I.P.[.}.@X}.@X4XL / 7 3 ` _ Q _ | ) s [ } / ! ( ) ! E E &.Q 6 6 O.e.u.p.v.v.u.v.v.v.v.v.v.p.p.a.p.i.w.+.o @ , 4 / ( H (.sXsXqXqX",
"P.[.@X@X@XP.}.7.Q 6 i ^ W _ ' ' / _ { / / _ ' / ] ` Q ) ~ 6 t +.r.i.M.v.v.v.p.p.i.u.y.w.w.w.0.w.w.w.w.q.+., @ , 4 ! ) F.wXfXwX=X",
"+X+X+X@XE.G.$.d 2 p ] | ' { s.} ' | } _ | [ / a 9 ! &.d 7 7 +.1.8.q.1.1.q.9.q.q.w.w.u.u.b.u.a.i.w.w.u.u.u.;.< @ # 3 E ) F.eXqX$X",
">X-X>X=XG.o.d q 4 ^ ] ` ! _ _ ) / _ ) ! ` ! / p u ) a 7 7 X.0.0.b.b.w.r.b.u.v.a.b.b.b.u.a.a.a.a.b.w.w.u.u.w.%.< @ , 3 E &.5X$XXX",
";X-X=XH.o.u 6 a ] ] ^ ` } { ' { [ { ' [ _ [ ^ E ) d 7 l #.0.u.i.u.b.b.b.i.i.a.i.i.b.i.b.p.i.a.u.y.0.y.w.w.w.8.-.2 @ , 1 Q &.H.XX",
",X;XF.&.d 2 d ' ` | ' } | } ' }  ._  .[ _ ' ! ` d 7 6 $.8.r.a.i.b.b.w.w.q.q.9.9.9.q.q.q.5.9.9.9.q.5.q.4.1.1.9.%.X.1 + @ 3 ~ 7.#X",
"jX5X&.` v 5 W a a a E W ^ a E W ~ ^ W ~ ^ / ) p 7 7 +.;.#.-.4.1.-.1.q.q.u.u.u.u.u.u.u.u.u.u.u.u.u.u.u.u.u.u.u.8.>.;., , # 1 K W.",
"G.V ` ^ ) ) ) ) ) ) ) &.^ ) ) ) ) ) ) W ! ! d 7 3 v 8.8.u.u.u.u.u.u.u.u.u.u.u.u.u.u.u.u.u.u.u.y.u.u.u.u.u.u.u.u.e.8.I j A S .X#X",
"Q.m 5 5 7 7 7 5 5 5 7 4 5 5 7 4 7 4 4 7 4 6 7 6 x O.0.0.u.u.u.u.u.u.u.u.u.u.u.u.u.u.u.w.w.w.w.w.q.w.w.w.9.9.4.>.+.$.S T.-X2X;X,X",
"!.G y i 6 6 4 2 4 2 2 3 2 3 3 2 2 2 2 2 2 4 i v ..$.0.0.u.u.u.u.y.q.9.5.j.w.5.6.3.<.<.#.#.:.4.9.5.9.9.9.y.w.u.u.e.;.G ~.jXdXwX=X",
"/.(.&XdXfXfXL $.+.+.$.%.%.$.v ..X.X.O.$.$.X.s v x u %.1.1.1.6.1.q.y.4.iXuXyXyXuXiXiXaXaXaXiXuXyX8Xc.6.q.y.u.u.u.e.>.J.dXxXxX$XQ.",
"(.6XqXgXsXsXL X.&.:.#.#.:.>.:.2.>.>.>.>.#.:.:.$...v >.0.u.u.u.u.u.u.>.aXT % % % $ $ O $ * * 0 C <.yX5.a.u.u.u.u.r.0.'.fXcXfX$XY.",
"qXqXsXqXsXqXF.x $.+.+.#.#.:.%.-.+.%.:.:.:.o.:.:.....e.r.u.u.y.y.w.w.q.uXR % % % % % & % @ .   %.1.8X3.4.4.4.4.2.%.+.H.$XsX;X$X$X",
"gXfXgXgX7X).H.s b w h f z Z f z z z z c N B $.B d 7 O.+.1.1.-.O.*.9.q.8Xx.% & % % % % * = X   -.3.8X2.y.y.w.y.q.;.$.H.(.(.(.wXfX",
"hXhXhXsX6X(.S.u B g e e U g U r U g g g e w :.#.X.l -.2.w.0.q.y.y.y.y.z.pX% % % % % % * * X   ;.-.8X2.w.y.y.y.y.9.%.tX(.(.6XwXcX",
"hXhX7X7XgX6X!.B N R e Y g Y e U > U g : O Z :.*.X.u 8.0.y.y.y.y.y.y.y.h.yX% % % % % % & % X   ;.-.n.m.q.q.q.q.9.2.-.H./.sXfX2X).",
"7X7X7X7XhXgX6X@.#.R g g U e g g g : = : ; z :.#.O.x 8.;.q.q.q.q.9.9.w.h.yX; % % % % % % = X . >.h.c.8.4.4.q.9.9.-.O.S./.sXdXsX6X",
"7X7X6X6XsX6X$XF %.R g Y > Y e g $ = = ; $ Z B o.+.u +.-.9.4.-.-.2.5.9.5.yXf % % % & % % % X . ;.k.c.m.e.w.w.w.w.4.:.Q.).7X2X).).",
"hXhX6XU.U.T.$XD c C Y g U e e O : : : $ > N :.:.:.x +.1.w.w.y.m.y.y.w.q.yXh % % % % & * % . . ;.k.m.w.w.y.w.w.m.8.2.tXdX&X%X/.$X",
"cXhX6XJ.B.U.!.].O.C Y g e = O 0 $ : = : X Z #.#.%.x 8.8.w.w.w.w.w.w.y.q.yXZ - = * @ = * * X o +.l.3.;.3.;.3.*.*.O.N oXjX;X&X&X&X",
"wXwX!.S.G.!.#X'.X.@.h ; = = : = : = : = ; k O.O.B u %.%.3.;.-.-.1.1.1.*.8XT & & * * * * o   o ..n.h.q.m.q.q.w.q.4.*.eXwX/.Q.W./.",
"$XqXQ.S.!.-X=XoXu b l f q f w 0 w & $ ; = f #.#.#.7 O.%.9.q.q.5.w.w.q.q.8XR % % * * * * o . + +.n.4.w.m.q.w.q.0.9.2.rX=XQ.N.U.S.",
"eX&XQ.N.Q.*X;X,XN O.M O.B v v M b k f f k z @.#.+.x %.;.m.4.w.q.q.q.w.w.c.z.% % = * * * X . o =.h.;.-.-.-.-.-.1.#.<.eX-XY.S.Y.Q.",
"&X&X&X2X&X#X#X=XV #.+.O.#.#.#.#.#.$.+.O.M M B M M u v +.-.-.-.1.1.1.1.-.h.pX% * % % % O . . * 3.g.1.4.9.9.5.2.2.*.F G.W.#X=X;X=X",
"qX&XdXkXjX%X&X;XD c M O.O.@.@.#.#.#.@.#.#.#.#.B v l c #.1.1.1.;.3.1.2.1.h.z.% % % % & . . . @ -.h.q.q.5.5.4.q.2.1.V G.*X;X,X=X=X",
"#X$X2XdX3X&X#X~.J c B B M M n M B O.O.#.#.#.$.$.O.x l +.4.5.4.4.9.9.q.5.5.z.$ % = @ +       , h.3.9.q.4.q.9.5.q.2.<.Q.!.#X=X=X=X",
"Y.T.OX;X2X%X~.T.K B O.+.B O.@.O.M N n M b @.#.=.X...v ;.q.5.9.9.q.9.9.5.2.8XO % # 0 < < < 3 x -.-.q.9.q.4.2.1.1.#.F V.V.G.W.#XrX",
"P.E.@X:X-X+X~.P.S l B O.O.@.O.@.@.@.@.O.@.M v M c u l O.#.<.1.*.=.-.#.*.=.k.q c ;.O.q.r.-.=.V c.g.C N *.#.<.:.*.O.F S.N.U.Q.XX;X",
"C.[..X X+X+X}.E.G.x M z b B O.O.@.@.O.=.@.@.@.O.c u c +.>.2.1.1.2.4.4.5.2.@.b l O.;.*.j.l.9X9Xl.k.c.<.2.1.#.2.2.#.F Q.W.#XW.!.Q.",
"_._.[._.[. X XE..Xy M O.B M n b n n O.O.O.#.O.O.B x y O.1.2.2.2.2.6.4.4.4.4.6.M t C x.n.n.j.3.1.*.q.-.1.3.4.2.4.-.F /.rXjX;XW.U.",
"_.[.C.C.[. X+X}..Xz x N B B O.B O.b c b b B =.B X.v c #.2.2.2.6.2.4.2.>.2.>.>.2.l q 3.*.1.u.4.@.=.h.c.=.B *.#.*.v P =XwXxX;XQ.B.",
"*X-X&X~.~.-XOXK.E.@XoXF.f l M M B @.B B O.N N b b u c %.2.2.1.*.*.*.*.#.#.*.#.*.B l c <.g.l.pX9X9X8Xl.6.=.*.2.%.#.P ;X$XW.XXXXXX",
"3XkX2X#X@X2X%XY.Y.~.-X-XK < f m N u M M M M B B M u 3 x v O.#.1.1.1.1.1.1.1.1.-.1.@.t Z c.0Xj.5.=.@.1.1.r.O.v O.X.P ;X|.Q.W.$X=X",
"2X2X2X2X%X&X~.Y.L.OX2X;XD.3 N oXG.D.K D N b B M x t 6 B +.+.%.-.%.%.%.+.O.O.+.*.#.%.c 6 O.2.1.u.w.#.<.1.6.h.g.N v P *XR.V.Q.#XrX",
"T.~./.@X%X&X~.L.Q.#XjX3X`.3 x G.&X&X&X#X|.D.D c k 7 2 v +.v O.+.v v +.+.+.+.+.+.+.+.B 6 l 1.2.4.6.k.8Xl.9Xn.3.2 b G.E.N.N.R.#X,X",
"N.I.OX%X-X-X~.T.T.-XkX3X*X, l G.dXkX3X%X|.Q.R.G.D.J f k l V 7.].H K F.].].D.`.].< z 1X XD l =.x.8X0Xk.6.<.*.9.9.N '.T.V.V.E.@X#X",
"V.R.E.OX#XOXW.Y.T.OX2X&XOXI x D.;X2X&XW.T.|.W.E.E.E.G.I c F.%X#X.X X X:X.XP.{.`.3 m 1X X{.m k h.3.9.u.#.1.1.#.6.y.F.|.Q.T.|.E.E.",
"C.V.L.R.R.R.T.R.E.OX~.E.T.j k H.&X%XW.Y.E.;X,X*X+XT.G.j c L OX#X-X:X X}.L.Z.C.A.f m [.{.P.`.m @.6.6.u.w.@.1.3.<.m.x.].<X@X}.E.I.",
"R.C.Z.B.Z.V.R.|.~.~.T.K.N.G.D.=X&X#XY.N.#XlXlX=X,XR.C.j l L #X,X>X>X X{.C.C.P.Z.f A V.}.}. XD.y #.*.3.c.8X8Xl.0X9X9Xc.1X2X^.I.I.",
"R.{.+X<X*X|.+X4X;XE.K.T.#X#XOX&X/.;XW.K.W.,X-XR.R.E.|.A u L ~.K.#X*X#X@X|.T.E.*X%X*X@X;X3X*XE.D 7 g.l.9Xk.k.j.6.1.@.9.6.R.I.E.E.",
"Z.C.=XlXvX,X>XvX,XE.Y.OX;X%X@X%X%X%XT.B.W.=X|.R.V.R.|.K 2 P T.B.%X#X@X%XOXY.T.-XkX2X2X3X4X;XT.K.K k =.#.u.y.@.1.*.M q V A.P.I.@X",
"V.R.*XvXlX>X>XlX,XW.L.E.-X%X%X%X&X#XY.Y.OX#XE.}.R.E.#XD.3 L ~.T.~.~.%X2X/.K.T.-X4X2X%X2XkX2XI.B..Xm v 1.#.2.=.m m S G.G.E.I.@X@X",
"P.L.}.*X|.}.=XlXlXOXN.V.R.@X#X-X;X&XT.~.#XT.R.=X,X=X#X`.A H.-X2XT.T./.2X2XK.K.%X/.T.^.2X4X2XT.K.Y.D.m m K D.G. X^.E.W.@X*X-X%X#X",
"V.B.V.R.}.E.*XzXlX|.Z.Z.V.}.#X*X&X%X#X-X*XL.R.lXvXjX*XE.T.~.;XxXI.I.@X4X2XI.B.^.^.T.^.2X4X3X^.K.K.N.C.XX;X-X*X%X#XE.R.#X4XlXjX#X",
"R.T.E.OXOXE.|.>X*X|.R.E.}. X+X|.-X&X;X;X|.B.T.lXjXrX#X|.W.W.%X&XI.I.2X3X2X^.I.^.@XI.I.@X2X@X^.I.T.E.E.OX%X2X;X*X;XQ.Y.|.3XlX,X$X",
"-X%X-X;X@XY.V.R.E..X*X:X:X+X.XE.;XdX;X#X|.N.L.3X=X-X=X-X#XW.T.I.^.@X:X3X3X+X2X@X@X}.I.P.^.^.@X@X@X*XE.E.@X3X4X*X*XT.S.XX;X,X=X$X",
";X*X#X#XW.V.B.P.R.|.>X:X*X.X.XR.lXkX;X#X#XY.G.*X=X-X-X=X&X~.T.K.@X2X+X@X@X2X3X@X+X}.C.I.I.I.+X3X3X@XI.B.E.3XlX;X-XE.R.XX=X=X=X=X"
};
