/* XPM */
static char * player_a_xpm[] = {
"32 32 655 2",
"  	c #60A33B",
". 	c #6FB14D",
"+ 	c #75B656",
"@ 	c #69AA4D",
"# 	c #5EA041",
"$ 	c #5EA03C",
"% 	c #65A93D",
"& 	c #7CC051",
"* 	c #64A839",
"= 	c #71B44A",
"- 	c #65A83F",
"; 	c #5EA13B",
"> 	c #68AA45",
", 	c #6EB048",
"' 	c #64A73C",
") 	c #72B547",
"! 	c #65A438",
"~ 	c #7CBA4E",
"{ 	c #71B047",
"] 	c #6BAD48",
"^ 	c #73B654",
"/ 	c #6AB04F",
"( 	c #5BA244",
"_ 	c #5AA142",
": 	c #62A335",
"< 	c #7DBD4D",
"[ 	c #6FB242",
"} 	c #6AAE3F",
"| 	c #6FB346",
"1 	c #5CA134",
"2 	c #5FA73B",
"3 	c #6DB549",
"4 	c #5EA232",
"5 	c #63A63B",
"6 	c #6CAE47",
"7 	c #6AAC46",
"8 	c #69AC43",
"9 	c #6FB245",
"0 	c #6FB441",
"a 	c #77BC47",
"b 	c #6FB342",
"c 	c #74B849",
"d 	c #6DB045",
"e 	c #73B64D",
"f 	c #72B54D",
"g 	c #63A63C",
"h 	c #69AD3F",
"i 	c #7DC04F",
"j 	c #7ABA46",
"k 	c #72B23F",
"l 	c #66A737",
"m 	c #62A538",
"n 	c #67AB3F",
"o 	c #69AF46",
"p 	c #63AA43",
"q 	c #6AB149",
"r 	c #70B141",
"s 	c #7ABA4A",
"t 	c #72B544",
"u 	c #6FB344",
"v 	c #71B548",
"w 	c #6FB448",
"x 	c #70B84C",
"y 	c #64AC40",
"z 	c #6DB13D",
"A 	c #67AC39",
"B 	c #6DB141",
"C 	c #69AD3D",
"D 	c #6CB03F",
"E 	c #79BD49",
"F 	c #75BB42",
"G 	c #72B83D",
"H 	c #6EB33E",
"I 	c #74B946",
"J 	c #73B748",
"K 	c #77BB50",
"L 	c #780000",
"M 	c #71B33B",
"N 	c #6BAF38",
"O 	c #6BAF3A",
"P 	c #68AD3A",
"Q 	c #6BB140",
"R 	c #65AC3E",
"S 	c #74BB4B",
"T 	c #77B948",
"U 	c #76B646",
"V 	c #6EB141",
"W 	c #73B74A",
"X 	c #76BB4E",
"Y 	c #66AE42",
"Z 	c #80C456",
"` 	c #79BC4E",
" .	c #77BB4D",
"..	c #67AA3C",
"+.	c #67AB3B",
"@.	c #77BB49",
"#.	c #74B945",
"$.	c #6EB43D",
"%.	c #62A730",
"&.	c #73B844",
"*.	c #74B847",
"=.	c #E03028",
"-.	c #F0C830",
";.	c #7BBF4C",
">.	c #7DC14F",
",.	c #76BA4A",
"'.	c #6FB345",
").	c #61A539",
"!.	c #75B645",
"~.	c #73B343",
"{.	c #66A938",
"].	c #6AAD3F",
"^.	c #6CB144",
"/.	c #60A83C",
"(.	c #72B94E",
"_.	c #64A644",
":.	c #70B34F",
"<.	c #76B954",
"[.	c #66A841",
"}.	c #6EB149",
"|.	c #81C45A",
"1.	c #70B44A",
"2.	c #66A93E",
"3.	c #78BD48",
"4.	c #66AA3A",
"5.	c #D07020",
"6.	c #B02020",
"7.	c #6AAD46",
"8.	c #76B953",
"9.	c #70B34D",
"0.	c #5FA13C",
"a.	c #82C35E",
"b.	c #79B94A",
"c.	c #67A738",
"d.	c #73B645",
"e.	c #79BD4F",
"f.	c #5FA438",
"g.	c #5DA539",
"h.	c #6FB74B",
"i.	c #5FA044",
"j.	c #67A849",
"k.	c #6AAC4A",
"l.	c #65A841",
"m.	c #6CAF47",
"n.	c #74B64F",
"o.	c #69AB47",
"p.	c #6DB04B",
"q.	c #7ABF4D",
"r.	c #181818",
"s.	c #67A946",
"t.	c #67A745",
"u.	c #66A442",
"v.	c #79B753",
"w.	c #6DAD3E",
"x.	c #6BAB3B",
"y.	c #77BA49",
"z.	c #73B648",
"A.	c #6CB044",
"B.	c #6FB447",
"C.	c #65AC40",
"D.	c #5C9E3D",
"E.	c #64A641",
"F.	c #65A83E",
"G.	c #6DB140",
"H.	c #61A535",
"I.	c #69AC41",
"J.	c #77BA51",
"K.	c #6BAA40",
"L.	c #73B248",
"M.	c #69A73D",
"N.	c #69A838",
"O.	c #75B545",
"P.	c #7BBE4D",
"Q.	c #68AC3D",
"R.	c #68AB3F",
"S.	c #7BC053",
"T.	c #6BB246",
"U.	c #5EA63A",
"V.	c #60A43B",
"W.	c #7BBF54",
"X.	c #7CC14F",
"Y.	c #7FC54D",
"Z.	c #66AB36",
"`.	c #78BC4B",
" +	c #73B747",
".+	c #F8F8F8",
"++	c #E06058",
"@+	c #7CBD4B",
"#+	c #87C655",
"$+	c #63A232",
"%+	c #74B544",
"&+	c #76B848",
"*+	c #76B948",
"=+	c #6AAD3E",
"-+	c #66A93B",
";+	c #70B546",
">+	c #62A73A",
",+	c #67AC3F",
"'+	c #5BA339",
")+	c #64AC41",
"!+	c #66AF3F",
"~+	c #77BF4E",
"{+	c #73BA4A",
"]+	c #5DA336",
"^+	c #65A941",
"/+	c #73B74F",
"(+	c #74B942",
"_+	c #6FB53B",
":+	c #68AC35",
"<+	c #F8A870",
"[+	c #82C35C",
"}+	c #63A43E",
"|+	c #5FA43A",
"1+	c #6EB245",
"2+	c #74B846",
"3+	c #74B640",
"4+	c #6FB039",
"5+	c #6EAC36",
"6+	c #82BE48",
"7+	c #7DB844",
"8+	c #67AF44",
"9+	c #6BB347",
"0+	c #63AB3C",
"a+	c #65AD3D",
"b+	c #6AB041",
"c+	c #6BB045",
"d+	c #6AAE46",
"e+	c #6BB048",
"f+	c #7AC149",
"g+	c #75BC43",
"h+	c #63A932",
"i+	c #784828",
"j+	c #6DB047",
"k+	c #6CAF48",
"l+	c #67AF46",
"m+	c #65AD41",
"n+	c #74BB49",
"o+	c #70B23B",
"p+	c #6BAA34",
"q+	c #82BF4B",
"r+	c #7EBA47",
"s+	c #75BA4A",
"t+	c #68AE3D",
"u+	c #61A734",
"v+	c #68AE3C",
"w+	c #71B74A",
"x+	c #69AE45",
"y+	c #60A63E",
"z+	c #62AA3A",
"A+	c #6EB549",
"B+	c #68B44D",
"C+	c #5AA53C",
"D+	c #6CB547",
"E+	c #76BE4A",
"F+	c #70B540",
"G+	c #6CAF3B",
"H+	c #7ABB48",
"I+	c #75B442",
"J+	c #7CBF4E",
"K+	c #7ABD4A",
"L+	c #72B742",
"M+	c #6DB23D",
"N+	c #6EB340",
"O+	c #6CB143",
"P+	c #63A83F",
"Q+	c #59A038",
"R+	c #6AB53D",
"S+	c #66B341",
"T+	c #61AF47",
"U+	c #53A138",
"V+	c #5FAA3F",
"W+	c #6FB847",
"X+	c #75BD49",
"Y+	c #79BE4A",
"Z+	c #6FAF40",
"`+	c #6FAE39",
" @	c #7FBF48",
".@	c #86C850",
"+@	c #78BC44",
"@@	c #68AE3F",
"#@	c #6BB348",
"$@	c #7EC648",
"%@	c #6EB941",
"&@	c #62B03D",
"*@	c #64B24A",
"=@	c #66B44B",
"-@	c #69B549",
";@	c #6FB947",
">@	c #6CB441",
",@	c #65AA37",
"'@	c #7EC04F",
")@	c #78B849",
"!@	c #75B139",
"~@	c #80BE43",
"{@	c #87C74C",
"]@	c #82C449",
"^@	c #76BA43",
"/@	c #69AF3E",
"(@	c #64AB40",
"_@	c #68B047",
":@	c #6EB442",
"<@	c #88C745",
"[@	c #85C74A",
"}@	c #7AC24C",
"|@	c #67B344",
"1@	c #63AF48",
"2@	c #62AE44",
"3@	c #6BB546",
"4@	c #6EB13D",
"5@	c #85C553",
"6@	c #77B644",
"7@	c #82BC41",
"8@	c #85C143",
"9@	c #84C244",
"0@	c #81C346",
"a@	c #79BD44",
"b@	c #67AD3A",
"c@	c #63AA3E",
"d@	c #66AD44",
"e@	c #6DB03D",
"f@	c #82C24D",
"g@	c #7BBB43",
"h@	c #83C045",
"i@	c #80C352",
"j@	c #6BB349",
"k@	c #60A940",
"l@	c #78BC47",
"m@	c #7EC048",
"n@	c #7CBB45",
"o@	c #86C24E",
"p@	c #77B340",
"q@	c #8EC748",
"r@	c #8BC646",
"s@	c #7FBC3B",
"t@	c #78B83A",
"u@	c #6EB136",
"v@	c #5FA530",
"w@	c #6DB546",
"x@	c #6FB649",
"y@	c #182880",
"z@	c #76B648",
"A@	c #5FA43F",
"B@	c #68AF46",
"C@	c #74BA4C",
"D@	c #66AB39",
"E@	c #73B53E",
"F@	c #82C24A",
"G@	c #78B63D",
"H@	c #7BB63E",
"I@	c #88C24C",
"J@	c #8FC841",
"K@	c #8BC63F",
"L@	c #8AC742",
"M@	c #83C441",
"N@	c #76B93A",
"O@	c #63A92C",
"P@	c #74BB42",
"Q@	c #307088",
"R@	c #60A141",
"S@	c #6EB24A",
"T@	c #7EC256",
"U@	c #6AAE40",
"V@	c #6CAF3D",
"W@	c #74B540",
"X@	c #6FB036",
"Y@	c #83C347",
"Z@	c #7FBF42",
"`@	c #8CC447",
" #	c #7EB73A",
".#	c #78B43A",
"+#	c #81BF48",
"@#	c #79BB47",
"##	c #65A838",
"$#	c #68AD3F",
"%#	c #60B8A8",
"&#	c #66A939",
"*#	c #68AD42",
"=#	c #6EB147",
"-#	c #69AC3B",
";#	c #6DAE3A",
">#	c #79BA42",
",#	c #7EBE44",
"'#	c #79B93E",
")#	c #89C24E",
"!#	c #6BA533",
"~#	c #66A233",
"{#	c #7AB74C",
"]#	c #77B750",
"^#	c #64A642",
"/#	c #61A445",
"(#	c #67AD2F",
"_#	c #63A83C",
":#	c #5FA239",
"<#	c #6FB248",
"[#	c #6FB145",
"}#	c #70B041",
"|#	c #7FBF4E",
"1#	c #75B441",
"2#	c #75B43F",
"3#	c #7DB947",
"4#	c #69A634",
"5#	c #72B041",
"6#	c #7AB94E",
"7#	c #6EAE48",
"8#	c #64A643",
"9#	c #6CAF51",
"0#	c #62A445",
"a#	c #7ABD49",
"b#	c #62A631",
"c#	c #6EB248",
"d#	c #64A73E",
"e#	c #6CAF46",
"f#	c #76B84E",
"g#	c #7EBE52",
"h#	c #7EBE50",
"i#	c #66A435",
"j#	c #65A333",
"k#	c #7BBC46",
"l#	c #7EC04A",
"m#	c #71B346",
"n#	c #67AB40",
"o#	c #61A43C",
"p#	c #6FB249",
"q#	c #75B944",
"r#	c #76B74F",
"s#	c #6AA949",
"t#	c #65A840",
"u#	c #6CAF45",
"v#	c #74B74D",
"w#	c #77B94E",
"x#	c #76B54B",
"y#	c #6DAC40",
"z#	c #79B74A",
"A#	c #6BAF3D",
"B#	c #79BD4B",
"C#	c #79BD4A",
"D#	c #6CB13D",
"E#	c #68AC39",
"F#	c #62A632",
"G#	c #62A733",
"H#	c #78BC49",
"I#	c #6FB540",
"J#	c #6BAC4A",
"K#	c #66A44B",
"L#	c #5EA237",
"M#	c #77BB4C",
"N#	c #71B546",
"O#	c #6FB144",
"P#	c #71B143",
"Q#	c #66A538",
"R#	c #6FAD40",
"S#	c #5EA23D",
"T#	c #70B44B",
"U#	c #66AB3E",
"V#	c #60A434",
"W#	c #65A936",
"X#	c #69AE39",
"Y#	c #903800",
"Z#	c #63A53C",
"`#	c #67A63D",
" $	c #6FB440",
".$	c #73B342",
"+$	c #67A736",
"@$	c #6CAA3B",
"#$	c #5CA144",
"$$	c #5CA041",
"%$	c #66A946",
"&$	c #68AC44",
"*$	c #6CAF44",
"=$	c #78BC4D",
"-$	c #75B947",
";$	c #78BA3F",
">$	c #78BF46",
",$	c #75BB45",
"'$	c #74BA44",
")$	c #75B844",
"!$	c #77B845",
"~$	c #7BBB49",
"{$	c #7FBE4D",
"]$	c #66A434",
"^$	c #7ABF4C",
"/$	c #73B845",
"($	c #68AD3C",
"_$	c #75B94B",
":$	c #74B740",
"<$	c #70B946",
"[$	c #6FB846",
"}$	c #66AD3C",
"|$	c #69AE3D",
"1$	c #74B747",
"2$	c #75B546",
"3$	c #6EAC3E",
"4$	c #74B144",
"5$	c #75BA46",
"6$	c #6AAE3D",
"7$	c #7CC04F",
"8$	c #70B444",
"9$	c #66A83C",
"0$	c #79BB4C",
"a$	c #7BBC4F",
"b$	c #75BB4B",
"c$	c #6BB242",
"d$	c #69AE3F",
"e$	c #72B647",
"f$	c #61A335",
"g$	c #78B94B",
"h$	c #5EA134",
"i$	c #6DB142",
"j$	c #67AB3A",
"k$	c #7BC04D",
"l$	c #6DB23E",
"m$	c #65A73B",
"n$	c #68AA3E",
"o$	c #71B344",
"p$	c #77BA48",
"q$	c #67A842",
"r$	c #7EBE59",
"s$	c #74B549",
"t$	c #65A739",
"u$	c #77B94C",
"v$	c #7ABE4F",
"w$	c #63A839",
"x$	c #64AA3A",
"y$	c #69B040",
"z$	c #5DA037",
"A$	c #5FA238",
"B$	c #66AA3D",
"C$	c #6AAE3E",
"D$	c #66AA38",
"E$	c #65AA36",
"F$	c #74B944",
"G$	c #76B945",
"H$	c #65A735",
"I$	c #75B749",
"J$	c #79BB50",
"K$	c #6EAF44",
"L$	c #67A93A",
"M$	c #75B846",
"N$	c #74B745",
"O$	c #75B750",
"P$	c #69AB46",
"Q$	c #5C9E39",
"R$	c #66A943",
"S$	c #68AA43",
"T$	c #65A337",
"U$	c #73B144",
"V$	c #7BBB4E",
"W$	c #6BAE3F",
"X$	c #7BC353",
"Y$	c #6CB545",
"Z$	c #5CA836",
"`$	c #5EA13A",
" %	c #76B951",
".%	c #76B950",
"+%	c #7BBF53",
"@%	c #70B446",
"#%	c #65A938",
"$%	c #73B744",
"%%	c #63A533",
"&%	c #6CAE42",
"*%	c #63A539",
"=%	c #70B343",
"-%	c #7BBE4C",
";%	c #66A836",
">%	c #66AA3B",
",%	c #6DB143",
"'%	c #63A638",
")%	c #73B044",
"!%	c #77B649",
"~%	c #69AC3E",
"{%	c #6FB747",
"]%	c #60A939",
"^%	c #61AD3B",
"/%	c #74B64D",
"(%	c #75B84E",
"_%	c #75B84C",
":%	c #5FA336",
"<%	c #6EB244",
"[%	c #76B946",
"}%	c #68AB38",
"|%	c #6CAE40",
"1%	c #6BAD41",
"2%	c #70B246",
"3%	c #72B445",
"4%	c #72B541",
"5%	c #69AF3A",
"6%	c #76BD47",
"7%	c #69B03A",
"8%	c #6AB03B",
"9%	c #74BA45",
"0%	c #75BC46",
"a%	c #7DC44E",
"b%	c #5FA631",
"c%	c #6BAC3E",
"d%	c #74B648",
"e%	c #76B84A",
"f%	c #6EB243",
"g%	c #65A93A",
"h%	c #6CB142",
"i%	c #6EB545",
"j%	c #5FA335",
"k%	c #69AC40",
"l%	c #75B84F",
"m%	c #72B54B",
"n%	c #67AA41",
"o%	c #77BA47",
"p%	c #76B947",
"q%	c #67A93C",
"r%	c #74B64B",
"s%	c #80C256",
"t%	c #70B243",
"u%	c #6BAE3C",
"v%	c #63AA36",
"w%	c #77BF4B",
"x%	c #6EB643",
"y%	c #64AD39",
"z%	c #65AE3A",
"A%	c #6BB340",
"B%	c #77C04C",
"C%	c #63AC38",
"D%	c #5FA636",
"E%	c #6AB040",
"F%	c #76BB4C",
"G%	c #75B94A",
"H%	c #7FC153",
"I%	c #7ABB4D",
"J%	c #75B948",
"K%	c #65A93B",
"L%	c #5EA135",
"M%	c #72B54E",
"N%	c #6EB14C",
"O%	c #7FC14F",
"P%	c #78BB48",
"Q%	c #67A93B",
"R%	c #6DAE43",
"S%	c #77B94D",
"T%	c #75B848",
"U%	c #70B341",
"V%	c #64A835",
"W%	c #6DB446",
"X%	c #71B94C",
"Y%	c #72BA4D",
"Z%	c #70B84B",
"`%	c #69B144",
" &	c #5BA336",
".&	c #61A93C",
"+&	c #6EB649",
"@&	c #6EB848",
"#&	c #5FA938",
"$&	c #72B94A",
"%&	c #7BC051",
"&&	c #6DAF41",
"*&	c #69A93C",
"=&	c #7BB94C",
"-&	c #79B549",
"  . + @ # $ % & * = - ; > , ' ) ! ~ { ] ^ / ( _ : < [ } | 1 2 3 ",
"4 5 6 7 8 9 0 a b c d e f g h i j k l m n o p q r s t u v w x y ",
"z A B C D E F G H I J K L L L L L M N O P Q R S T U V u W X x Y ",
"Z `  ...+.@.#.$.%.&.*.L =.-.=.=.=.L ;.>.,.'.).W !.~.{.].W ^./.(.",
"_.:.<.[.}.|.1.2.3.3.4.L -.-.5.6.=.=.L 7.8.9.0.a.b.c.d.e.| f.g.h.",
"i.j.k.l.m.n.o.p.q.r.r.r.r.r.r.6.6.6.=.L s.t.u.v.w.x.y.z.A.B.C.y ",
"D.E.F.u G.H.I.J.r.r.r.r.r.r.r.r.r.6.6.=.L K.L.M.N.O.P.Q.R.S.T.U.",
"V.W.X.Y.F Z.`.J  +r.r..+++.+.+++r.r.6.6.L @+#+$+%+&+*+=+-+;+>+,+",
"'+)+!+~+{+]+^+/+(+_+:+r.<+r..+++++r.r.6.6.L [+}+|+1+2+3+4+5+6+7+",
"8+9+0+a+b+c+d+e+f+g+h+r.<+r..+<+++r.r.<+<+i+j+k+l+m+n+3.o+p+q+r+",
"X s+t+u+v+w+x+y+i+<+<+<+<+<+<+<+r.r.r.<+++i+z+A+B+C+D+E+F+G+H+I+",
"J+K+L+M+N+O+P+Q+i+++<+<+++++r.<+<+r.<+++++i+R+S+T+U+V+W+X+Y+*+Z+",
"`+ @.@+@H @@#@r.r.r.++++r.r.r.r.<+++++++r.$@%@&@*@=@-@;@>@,@'@)@",
"!@~@{@]@^@/@(@_@:@r.r.r.r.r.<+<+<+++r.r.<@[@}@|@1@2@3@X+#.4@5@6@",
"7@8@9@0@a@b@c@d@e@f@g@i+++++++++++i+i+L L h@i@j@k@y /@l@m@n@o@p@",
"q@r@s@t@u@v@w@x@i+i+i+y@i+i+i+i+i+6.6.6.6.L z@A@B@C@D@E@F@G@H@I@",
"J@K@L@M@N@O@P@i+.+.+y@y@=.6.y@Q@L L 6.=.6.6.L R@S@T@U@V@W@X@Y@Z@",
"`@ #.#+#@###$#i+.+y@y@=.6.y@%#Q@i+i+i+=.=.6.L &#*#=#| -#;#>#,#'#",
")#!#~#{#]#^#/#i+y@y@6.6.6.y@%#i+.+.+-.i+=.6.L (#_#:#<#[#}#|#1#2#",
"3#4#5#6#7#8#9#0#y@Q@y@y@y@%#i+.+.+.+-.-.i+L a#b#c#d#e#f#g#h#i#j#",
"k#l#H+T m#n#o#p#y@.+Q@%#.+.+i+.+.+-.-.-.i+q#r#s#t#u#v#w#x#y#z#z#",
"A#B#C#D#E#F#G#H#r.r.Q@%#.+.+Q@i+-.-.-.i+y@I#J#K#L#M#N#O#P#Q#R#z#",
"S#e+T#U#V#W#X#r.Y#5.r.Q@%#%#%#%#i+i+i+y@y@r.Z#`#,@E  $e@.$+$@$5#",
"#$$$%$&$*$=$-$r.r.5.5.r.Q@Q@%#%#%#Q@Q@y@Y#r.r.;$>$,$'$)$!$~${$]$",
"^$#./$($C M#_$r.r.Y#5.r.y@y@y@Q@Q@Q@Q@y@Y#Y#r.:$<$[$}$|$1$2$3$4$",
"L+5$5$A 6$7$8$r.r.r.Y#r.9$0$y@y@y@y@Q@y@Y#5.r.a$b$c$d$e$) -+f$g$",
"h$i$N#j$G.k$l$P r.r.r.m$n$o$p$p$q$y@y@y@5.-.r.r$s$t$u$v$i$w$x$y$",
"z$z$A$B$C$D$E$F$G$H$I$J$K$L$M$N$O$P$Q$0.r.r.R$S$T$U$V$W$d$X$Y$Z$",
"`$ %.%+%@%#%$%&.)$%%m#&%*%=%-%;%N#N#>%,%` M#e.'%)%!%g$~%>%{%]%^%",
":#/%(%W._%:%<% +[%}%|%1%2%3%N$4%5%6%7%8%9%0%a%b%c%d%e%f%g%h%h%i%",
"j%B$k%l%m%:#n%<#o%p%q%r%s%t%u%E v%w%x%y%z%A%B%C%D%E%F%G%f%~%H%I%",
"J% +K%L%n%M%N%R$O%P%Q%R%S%T%U%V%W%X%Y%Z%`% &.&+&@&#&$&%&&&*&=&-&"};
