/* XPM */
static char *player1678715727[] = {
/* columns rows colors chars-per-pixel */
"64 64 256 2 ",
"   c #030A00",
".  c #160700",
"X  c #041700",
"o  c #141900",
"O  c #290100",
"+  c #3A0500",
"@  c #2C1C02",
"#  c #0A2802",
"$  c #173603",
"%  c #113104",
"&  c #282700",
"*  c #3B2700",
"=  c #363800",
"-  c #273913",
";  c #2B3827",
":  c #490100",
">  c #580A00",
",  c #591500",
"<  c #421900",
"1  c #660200",
"2  c #780600",
"3  c #671B00",
"4  c #791A01",
"5  c #562600",
"6  c #493502",
"7  c #4D330C",
"8  c #6B2401",
"9  c #653402",
"0  c #792E08",
"q  c #4E3826",
"w  c #7A3925",
"e  c #384600",
"r  c #375A19",
"t  c #2D4B0E",
"y  c #355326",
"u  c #2E5F11",
"i  c #464600",
"p  c #58530F",
"a  c #6D4F09",
"s  c #506C11",
"d  c #6D6D11",
"f  c #4D4E30",
"g  c #6C4E2D",
"h  c #4F6D30",
"j  c #6E732E",
"k  c #57574C",
"l  c #675B4A",
"z  c #576E4A",
"x  c #6E6A50",
"c  c #77796B",
"v  c #890700",
"b  c #950301",
"n  c #881601",
"m  c #98180B",
"M  c #A90401",
"N  c #B80405",
"B  c #B21010",
"V  c #8A310B",
"C  c #AE2406",
"Z  c #A4332C",
"A  c #C40207",
"S  c #CC0D14",
"D  c #D91020",
"F  c #9A5800",
"G  c #8D500A",
"H  c #B2580C",
"J  c #8C6E0D",
"K  c #AD680C",
"L  c #8B5228",
"P  c #8F7134",
"I  c #A9712E",
"U  c #A24C33",
"Y  c #D07014",
"T  c #D2732B",
"R  c #DC6E18",
"E  c #917350",
"W  c #AF7749",
"Q  c #8C796C",
"!  c #C6795B",
"~  c #51931C",
"^  c #5B9C2C",
"/  c #569A2A",
"(  c #5B9C34",
")  c #5C9D3A",
"_  c #589933",
"`  c #54902E",
"'  c #65982B",
"]  c #669A38",
"[  c #77983A",
"{  c #6F8B2F",
"}  c #5BA22D",
"|  c #57A52B",
" . c #5DA234",
".. c #5DA33B",
"X. c #59A937",
"o. c #50AB34",
"O. c #61A62E",
"+. c #63A434",
"@. c #64AB34",
"#. c #63A43C",
"$. c #64AA3C",
"%. c #6BAC3C",
"&. c #6BA439",
"*. c #75AA38",
"=. c #6CB33C",
"-. c #68B53A",
";. c #73B43E",
":. c #76B93A",
">. c #70A92C",
",. c #618C19",
"<. c #7CC338",
"1. c #589545",
"2. c #6A9946",
"3. c #789948",
"4. c #6E9351",
"5. c #5BA644",
"6. c #5AB443",
"7. c #44BC40",
"8. c #64A442",
"9. c #6CA444",
"0. c #65AC42",
"q. c #6BAD43",
"w. c #6CAD4B",
"e. c #69A64B",
"r. c #74AC4B",
"t. c #77A847",
"y. c #6CB244",
"u. c #6DB34B",
"i. c #69B846",
"p. c #73B544",
"a. c #75BB45",
"s. c #79BB45",
"d. c #73B54B",
"f. c #7AB44B",
"g. c #74BB4B",
"h. c #7ABC4C",
"j. c #7AB443",
"k. c #78A956",
"l. c #6CB753",
"z. c #74B452",
"x. c #7BB452",
"c. c #7BBD53",
"v. c #78B957",
"b. c #6BA555",
"n. c #739067",
"m. c #77A964",
"M. c #7AB169",
"N. c #79C34B",
"B. c #69C455",
"V. c #7CC253",
"C. c #79C559",
"Z. c #6ECC4C",
"A. c #78CB64",
"S. c #5FC650",
"D. c #3D9E2B",
"F. c #8B8E2F",
"G. c #89B03A",
"H. c #AF8820",
"J. c #D98412",
"K. c #E88A17",
"L. c #D98925",
"P. c #D08D32",
"I. c #EA882F",
"U. c #ECA821",
"Y. c #938F4E",
"T. c #B98956",
"R. c #B18C54",
"E. c #85A849",
"W. c #86B849",
"Q. c #85A957",
"!. c #84B858",
"~. c #97AE55",
"^. c #A5AA59",
"/. c #8D8D78",
"(. c #BA9967",
"). c #B2916D",
"_. c #88B866",
"`. c #8DB26A",
"'. c #B0AE6C",
"]. c #C7894A",
"[. c #CA934A",
"{. c #D6984B",
"}. c #C88B56",
"|. c #CC9354",
" X c #CA9659",
".X c #D49554",
"XX c #D29A53",
"oX c #D5955B",
"OX c #D59A5C",
"+X c #DB9C5B",
"@X c #DA9558",
"#X c #D78A50",
"$X c #EC8D4B",
"%X c #D6A259",
"&X c #E4A556",
"*X c #CA9867",
"=X c #D49563",
"-X c #D79A67",
";X c #CA9C76",
":X c #D89A71",
">X c #CD8D64",
",X c #E39866",
"<X c #E89673",
"1X c #D7A368",
"2X c #CAA479",
"3X c #D7A775",
"4X c #CDA76E",
"5X c #E5A668",
"6X c #E5A676",
"7X c #FFB373",
"8X c #86C74B",
"9X c #82C454",
"0X c #87C859",
"qX c #92C757",
"wX c #8ED155",
"eX c #86C763",
"rX c #95C669",
"tX c #8DD173",
"yX c #A9C755",
"uX c #987F83",
"iX c #7C8D85",
"pX c #948D88",
"aX c #AC9B89",
"sX c #95A991",
"dX c #A8B693",
"fX c #ACAEA4",
"gX c #C9B59A",
"hX c #CDAA85",
"jX c #E5AD82",
"kX c #C6BBB5",
"lX c #B1CD9F",
"zX c #D0CEB6",
"xX c #ECD5B5",
"cX c #F9DEAD",
"vX c #D4D1C9",
"bX c #EBD7CA",
"nX c #D5E8D0",
"mX c #E7E9D7",
"MX c #F3ECD8",
"NX c #E9EBE9",
"BX c #F7ECE8",
"VX c #EDF9E7",
"CX c #F4FDEC",
"ZX c #FDFDED",
"AX c #FBF7E7",
"SX c #EDF7F9",
"DX c #F4F5F4",
"FX c #F5FEF3",
"GX c #FEFDF4",
"HX c #F3F4FC",
"JX c #FCF5FE",
"KX c #F5FDFD",
"LX c #FEFEFE",
"PX c #F9F5F4",
"IX c #F4EAF6",
"UX c #DCF3E1",
/* pixels */
"' &.t.d.c.l.y.X.....8.] ` t.~.`.Q.4.9.x.u.^ ' t.' Q.W.q.+.*.G.G.&.+.q.0Xx. .) v.z.v.l.e.5.5.1.5. .^ p.0XV. .} g.g.q.#.(  ...u.u.",
" .8.y.d.g.g.y.0.5._ _ 2.3.Q.^.^.4.4.k.t.t.] ' ` ] r.t.+.&.%.*.*.O.] p.0X!.&.#.g.z.v.l.e.5.5.5...#.O.j.0Xs. .+.d.g.%.( ^ X.$.u.g.",
"o.o.0.0.r.r.r.0.X.5.l.8.[ { Y.Y.~.3.j p p d t.Q.b.l.w.5.i.-.-.Z.*.%.p.s.p.&.#.0.0.u.u.0.5.8.0.0.%.%.p.h.g.%.%.y.g.y.$.$.0.i.i.0.",
"o.o. .] &.t.r.8.5.l.9.s 6 < 8 4 5 + : > 8 9 d 4.A.l.5.o.X.-.Z.wX8X8X;.@.^ ^ O. . .$.y.0.8.0.l.l.p.j.h.h.a.p.d.p.d.d.g.V.C.g.0. .",
") #.] ] [ E.t.9.c.E.{ * 8 n C b N M N C m v , 7 `.m.7.D.6.l.a.8XwX8X:.O.} O.@.O.} %.=.%.$.y.g.c.s.g.h.j.p.p.p.d.a.g.V.V.C.l.0. .",
"f.f.f.q.r.x.r.2.[ [ g + n M S A A A A N M B m 4 g x m.M.A.l.O.*.s.s.j.=.;.a.s.=.-.y.p.%.$.$.p.g.g.j.p.;.0.%.%.p.u.d.d.d.y.y.y.u.",
"0X0XC.l.B.B.i.8.3.Y.P 2 m M N A M N B N N A B b 1 w E m.b.y.+.O.:.:.s.s.N.V.8Xh.p.s.g.%. ...y.g.j.p.p.y.%.+.$.y.d.d.y.8.X...u.V.",
"C.C.B.B.B.B.w.[ d a 4 1 C M N N B M M N A N S S v 2 , 6 j k.*.^ s.g.a.s.s.V.V.V.g.c.g.0. .$.y.c.g.j.p.j.%.} +.y.d.g.g.y.....i.V.",
"i.X.6.l.C.r.[ P > n b M N A A A N M N A A A B B B B m 4 O Y.t.9X$.#.0.c.z...#.d.z.c.u.u._ ( eXeXh.j.&.#.q.h.V.p.d.y.$. ...X.y.g.",
"/ 0.i.l.v.!.Y.j 5 4 v B B A N N A N S S N N B b v v Z 1 + F.!.6.$...8.d.u.#.#.u.v.v.z.z.) ] eXC.V.s.$.' %.N.V.V.d.=. ._  ...y.C.",
"o.6.i.6.u.v.3.{ o 6 3 1 b N S A A N N b m > + : + + O 7 & k.5.B.i.0.0.0.8...8.e.w.z.w.w.8.8._.c.j.y.%.+.=.h.V.d.y.y.0.#.....0.u.",
"5._ ) ..5.8.2.k.3.g 5 > v b N A D B B v : 0 T.T.g 7 .   r v.l.A.l.l.w.8. .) ) 5...) ..8.#.8.d.f.+.@.&.p.s.N.a.#.$.p.V.h.u.0...X.",
"[ { ` ] 2.) 9.v.3.j 7 : n b S N b 1 : 9 T. X! ,X>X>XL @ e k.`.t.v.l.u.$.) ( ....) ] ) #.9.q.9.q.^ +.;.j.V.9Xy.^  .u.0X9XV.i.X._ ",
"' 2.t.r.z.x.k.3.p ).;X0 2 m Z v Z : 8 T.1X X+X@X<X<X;XY.& h Q.3.g.l.i.0... .$.y.g.y.p.p.c.s.+.&.@.t.f.a.s.c.p.+. .u.c.g.0.0.$...",
"/ 0.C.A.A.c.4.j Y.;X<X! 0 + O : O E jX<X}..X+X+XXXR.3X(.P & j 3.f.y.i.g.$. .@.V.0Xs.N.f.0X0X' @.j.a.s.j.a.g.p.&.^ y.g.y...$.i.0.",
"o.o.6.tXtX4.p p ;X:X! jX:X;XE Y.2X).>X-X@X@XOX[.[.6XT.;X;Xp & j x.d.h.V.i.} @.N.0XN.N.h.wX0X/ ' =.a.N.p.j.s.y.#.) y.h.-. . .$.$.",
"o./ 6.w.4.h * ;X(.;XT.>X:X>X(.(.4XR.3XT.-X+X].1XXXOX1X X3XW * = 3._ f.eXV.X.| X.-.@.$.s.0X9X9._ X.| @.<.:.*.*.!.v.) } :.>.wX=.V.",
"o.o.X.e.Y.* E :X>XP 5 I }.5X X4X*X4XT.9 L +X-X[.|.-X X X*X*XL * h ] _.!.#.^ -.=.-.X.-.V.0X!.2._ _ -.<.O.>.W.`.`._.k.} wX<.:.wX=.",
"o.B.X.k.j < :X>XT.a : I {.,X[.XX*XW 5 + G -X+XXXXX+X}.+X X1X4Xa o 3.!.9.rX9X/ -.@.| } $.s.x.d.w.b.e.| @.!._.4.r y 1.~ >.:.8X0Xg.",
"-.l.l.v.& j ;X:XT.T.OX5XP.H P.+X}.3X>X3X6X-X].1X-X[.|.5XT. X3XR.e e 3.rX9.] h.g.Z.-.| }  .%.y.z.m.m.m.` y t 1.sXn.t 2.^ wX:.8Xj.",
"c.z.v.Q.  (.(.*X1X[.I K H T Y V W jX! }.}.-X}.|.+X].+X-XXX|.|.3X^.e i ~.`.t.f.W.0. ./ / _ $.0.k.iXz h n.zXVXCXVXVX% s qX:.:.:.j.",
"c.v.v.4.o ).2X>X*XI F P.T I.T $X8 W jX:X}.-XoX+X.X.X+X[.1X5XT.1X4XY.i e ^.rX3.!.x.z.u.w.z.z.z.k.z sXnXFXSXSXLXKXCXsXt ` *.qXj.*.",
"!.f.0X` & (.:X*X1XI 8 T $X$XT T V L >X>X=X=X.XoX#X+X@X[.+X5X.X}.%X4XR.p @ p E.3.m.M.k.b.5.1.h y UXKXLXKXKXKXLXHXKXFXzXu Q.t.W.] ",
"qXt.qXh & 2XT.6X}.oXG 1 b C C 1 : > :X<X>XoXoX@X@X+X{.@X|.].5X-X%X X1X4Xj @   # $ $ % % % % #   k pXvXJXLXLXKXLXLXCXAXlXt !.] f.",
">.E.E.{ = (.;X>X=X=X> n m 2 v v 4 : L :X,X-X#X.XXX.X.X.X.X.X@X.X1X].oX3XR.'.f f nXVXUXnXnXUXnXnXMXbXzXpXvXLXLXJXLXLXGXCXh m.!.r.",
">.G.t.{ @ (.:X=X*X>X> n v m m Z V , > <X=X}..X+X.XXX@X{..X.X@X@X#X&X[.-X2X).aXq vXDXGXKXKXLXSXbXQ ).BXGXHXIXHXKXDXLXGXvX  Q.rXr.",
">.G.W.E.. R.>X:X=X! 8 4 n m 2 1 0 > , :XoX}.|.%XXX.XXX.XoX@X@X@XI.7X,XW W P @ fXLXLXLXKXHXJXJXAXhXE aXAXJXLXLXKXLXJXGXAXk y b.rX",
"G.G.E.E.. W <X,X:X<XW V 2 v 2 V 1 > W }.-XOX.X%XXX{.XX.X@X@X@X@X@X#XW 0 w Q MXJXLXJXJXLXJXJXLXAXMXR.g vXDXLXLXLXBXLXJXGXmXt b.2.",
":.G.W.E.@ T.:X>X-X=X#X#X<X<XU 8 0 L <X|.=X+XOX|.XXXXXXXXOXoXoXoX5X-XW ).@ gXJXJXLXSXLXLXDXBXAXAXcX*Xf zXHXKXSXLXPXJXJXPXCXr e._ ",
"W.8XqX' p  X,X@X|.OX5X,X! <X=X:X}.<X}.5XoX|.%X[.XXXX XXXOXoX=XoXW 3X3XhXl l PXJXLXKXKXJXmXxXxXMXcX(.7 zXKXKXSXKXLXIXJXJX/.y ] 0X",
"qX8XqXi F.*X-X@X].[.|.@X$X@X-X X5X6X}.+X1X].XXXXXXXXXXXXoXoX=X=X7XR.).E - vXLXLXSXFXGXZXAXzX2XhXT.E q JXKXKXSXLXJXLXHXkX  n.k.qX",
"qXqX~.e R.*X-XoX+XXX[.{.$X#X%X X X].6XW 5XXX[.%XXX{.XXXXoXoX=X=XW /.* E AXAXLXFXLXGXVXAXAXxXdXxXhXE . NXKXKXKXKXLXPXpXpXo `.f.wX",
"G.yXF.& ).;X>X<X%X{.{.{.{.XX-X*X X*X XXX#X{.{.&X{.{.+X.X+XXX XL q kXmXPXLXPXLXGXGXPXGXZXMXzXbXZXcX/.q MXGXKXLXKXJXLXzXo t rX%.8X",
"yXG.s i ).aXhX! XX{.P.P.{.%X*X*X*X X[.|.+X&X{.].{.+X].[.3X3X3XE l mXLXJXGXPXLXLXBXGXGXvXkXBXGXAXbXgXf AXGXGXLXLXJXCXZXt ` k.8X:.",
"G.yXX & g q ! hXOX&X&X&X{.].}.=X1X1X1XXX[.{.@X+X#X5X3X;X2XR.E Q fXLXLXLXLXDXLXLXLXBXvXBXZXAXMXGXxXl /.AXGXDXLXLXLXLXGX/.h Q.W.s.",
"G.yX& h AXBXq hX*X[.[.P.{.+X-X-X|.[.|.oX+X1XOX*XT.W ).W E x E /.HXKXHXLXLXPXLXGXLXGXGXBXBXGXPXMXQ f MXZXGXPXJXJXJXLXVXmX% k.f.h.",
"tX4.X dXGXJXbXE ;X;X+XXXXX.X=X*X X-X1X*X}.T.*X3XE O g f x pXmXLXLXLXDXLXLXLXGXLXLXmXJXGXPXPXJXpXk MXMXGXKXLXLXJXJXLXLXCXt h h.f.",
"_.b.# UXKXJXPXbX).;X*X=X*X=X*X*XL I T.3XjX;X*X).E g AXGXLXLXKXKXKXLXLXLXPXLXLXLXAXLXLXGXGXbXpXk zXGXAXLXLXLXKXJXJXJXLXZXf t x.9.",
"b.n.X UXLXNXJXBXPXcXhX4X).).P g 2XW g g E hXhX).q /.GXLXKXLXKXKXHXLXLXLXDXLXLXLXLXLXIXIXkXf f bXPXmXJXLXLXHXJXLXJXLXPXGXh $ 2.2.",
"sX4.X nXLXJXIXJXBXZXZXxXhXaXgXbXZXMXbXgXQ l q q l BXGXLXSXKXKXKXLXDXKXLXLXLXJXGXLXGXJXvXiXaXPXGXNXLXLXLXDXLXLXJXLXJXKXPXz X 4.2.",
"v.m.  dXKXJXJXJXJXGXGXGXGXZXGXGXGXGXGXGXGXGXGXGXGXLXLXLXLXLXLXLXLXLXLXLXLXLXLXLXLXLXLXGXLXLXGXLXLXJXLXLXLXKXHXLXJXLXGXVXt t Q.!.",
"rX2.r y mXKXNXJXLXJXJXLXLXLXKXKXLXLXLXLXLXLXLXLXLXLXLXLXLXLXLXLXLXLXLXLXLXLXLXLXLXLXLXLXLXLXLXLXJXLXLXLXLXLXLXDXLXPXCXmX  h tXk.",
"[ ~.r X nXGXLXLXHXLXJXSXHXKXKXKXKXKXKXLXLXLXLXLXLXLXLXLXLXGXLXLXLXLXLXLXLXLXLXLXLXLXLXLXLXLXLXLXLXLXLXLXSXNXFXLXLXCXGXz # `.e.!.",
"[ t.{ X x ZXKXHXLXLXLXLXKXKXKXKXKXKXKXKXKXKXLXLXLXLXLXLXLXLXGXLXLXLXLXLXLXLXLXLXLXLXLXLXLXLXLXLXJXLXLXHXFXKXLXmXGXZX/.# 2.2.x.c.",
"+.9.M.y X dXSXKXHXHXKXLXLXLXKXLXKXKXKXLXKXKXLXLXLXLXLXLXLXGXGXLXLXLXLXLXLXLXLXLXLXLXLXLXLXLXLXLXLXLXLXKXFXFXGXCXAXsXX h 2.] V.a.",
"` w.5.b.y % sXKXLXKXHXHXLXJXKXLXLXLXLXLXLXLXLXLXLXLXLXLXLXLXLXLXLXLXLXLXLXLXLXLXLXLXLXLXLXLXLXLXLXLXLXLXKXFXCXVXn.- h k.2.f.O.-.",
"X./ 6.1.1.; X iXSXLXLXLXJXGXGXZXGXLXLXGXLXLXLXLXLXLXLXLXLXLXLXLXLXLXLXLXLXLXLXLXLXLXLXLXLXLXLXLXIXLXLXNXVXFXlXf - x `.`.wX-.-.~ ",
"o.X.1.b.1.M.z # ; sXCXGXZXGXZXGXGXGXGXGXLXLXLXLXLXLXLXLXLXLXLXLXLXLXLXLXLXLXLXLXLXLXLXLXLXLXLXLXLXVXVXVXdXy % h `.`.k.rX9XwX| | ",
"u.N.l.y.w.v.k.2.r # % n.vXVXCXFXFXKXKXKXLXLXLXLXKXLXJXNXLXHXLXLXKXSXKXLXKXLXHXKXLXKXLXLXHXHXJXHXUXdXh % # u ] _.r.!.x.f.q.q.p.%.",
"C.C.V.d.f.c.z.2.v.b.1.r # # y n.pXfXVXFXKXVXHXLXLXLXLXLXLXJXGXLXKXKXKXJXKXKXKXPXLXLXLXSXvXsXk ; X # r ) k.r.] ( j.j.j.p.&.%.d.f.",
"N.N.N.N.a.g.p.] ` r._._.m.m.4.z r t % # # % - - - - f k k c c /.pXaXuXpXc z z y - o X X X % y D.m.`.k.k.9.&.&.%.p.a.p.@.( $.d.!.",
"@.-.=.=.s.s.%.+.2.!.rXM.k.m.4.` E.E.Q.t.k.2.h r z h z z h f   O O O O O . . s h 4.[ 2.b.1.5.v.tXm.Q.Q.e.9.r.g.N.p.=.@.^ ^ #.d.c.",
"| } =.:.s.a.=.@.^ s.rXeXk.9.9.t.W.qXW.8Xp.p.i.0.5.e.E.Q.'.Y.& a I H 4 H a 9 F.~.E.*.h.x.&.[ Q.'.`.k.9.] r.!.0X9Xi.=. .}  .9.u.u.",
"| } @.=.:.-.>.O.s.;.:.=.q.%.%.%.8X8XG.>.' >.' d ,.{ d J F.a i P.T R V P.L.F J J F.>.G.G.{ F.^.^.t.9.] &.s.0Xa.@.-.=.$.$.$.0.0.$.",
"} ^ O.O.O.} O.@.| >.N.:.-.@.=.s.=.N.W.' d J I H.K Y H H F G J K.I.Y V L.L.Y R L.J.H.K K J H.H.>.*.f.r.q.p.s.N.y.@.=.Z.g.u.0.8.#.",
"+.} ^ / ^ } @.=.a.=.O.~ | @.a.N.V.y.` d F.[.].Y Y H R K.K.J.U.J.R K 0 L.I.I.R K.J.L.L.L.J.H.H.s u ~ j.h.h.g.=.| } i.0X0Xg.i.#...",
"#.8.r.g.g.0.u.V.N.@.| @.-.-.=.Z.i.A.` t e a a 8 a Y L.R Y Y J.U.J.4 F $XI.H I.R K F F K J.P.L.H.t / h.p.=.N.p.X.X.=.N.y.$.$.0.0.",
"_ ..z.eXeXc.v.eXg.$. .i.N.g.i.a.B.0X&.~ { ~.F.J I {.I.V 3 R R J.F < F L.H n R I.I.H V a J a a 6 s %.9Xa.a.N.-.X.| -.i.i. . .$.0.",
") #.z.eXeXz.v.eXC.e...0.g.u.a.-.i.=.@.' F.G.P a %XP.3 0 F T $XK 6 i H.P.K 9 9 K I.$XI J F.W.E.` O.:.s.a.s.g.$.-.} $.i.0.$.$.q.y.",
"#.) 0.z.w.w.z.A.A.w._ ( $.y.a.g.N.:.:.s.*.>.d s e a a L G ].L G ~.= H.{.p p J J 8 V a e u -.l.` q.%.%.i.V.g.=.l...$.=.y.d.f.g.j.",
"_ /  .8.0.e.g.eXA.w._ _  .0.d.a.N.:.:.N.i.X.i.g.eXc.t.E.i * 6 '.j # j P e d [ [ F.,.s ~ Z.Z.;.O.+.+.+.p.V.g.y.c.p.0.$.y.c.9XW.g.",
"@.+.%.y.y.8.w.z.k.w.e.9.e.q.q.%.;.=.:.i.X.o.o.A.6.tX..k.] *.^.Q.Q.h X X h qX^ y.Z.o.| -.Z.N.O.^ &.&.&.0.V.c.u.g.g.$. .y.9X0XW.j.",
"N.:.a.g.y.+.) ] 8.w.z.z.f.r.t.#.9XeXc.g.u._ ^ !.eXq.V.=.-.Z.~ j.[ 3.l.v...f.f.f.o.S.6.( &.t.y.u.y.f.q.#.d.C.v.d.l.%.#.9.h.W.g.j.",
"N.=.:.p.$. ._ #.8.w.x.x.r.q.9.#._.eXv.z.!.&.] !.t.h.;.a.<.-.7.~ *._.6.S.i.C.g.g.S.o.D._ E.[ e.A.z.V.9.` 0.eXeXg.d.8.+.p.g.f.j.f."
};
