/* XPM */
static char * player_d_xpm[] = {
"32 32 647 2",
"  	c #60A33B",
". 	c #6FB14D",
"+ 	c #75B656",
"@ 	c #69AA4D",
"# 	c #5EA041",
"$ 	c #5EA03C",
"% 	c #65A93D",
"& 	c #7CC051",
"* 	c #64A839",
"= 	c #71B44A",
"- 	c #65A83F",
"; 	c #5EA13B",
"> 	c #68AA45",
", 	c #6EB048",
"' 	c #64A73C",
") 	c #72B547",
"! 	c #65A438",
"~ 	c #7CBA4E",
"{ 	c #71B047",
"] 	c #6BAD48",
"^ 	c #73B654",
"/ 	c #6AB04F",
"( 	c #5BA244",
"_ 	c #5AA142",
": 	c #62A335",
"< 	c #7DBD4D",
"[ 	c #6FB242",
"} 	c #6AAE3F",
"| 	c #6FB346",
"1 	c #5CA134",
"2 	c #5FA73B",
"3 	c #6DB549",
"4 	c #5EA232",
"5 	c #63A63B",
"6 	c #6CAE47",
"7 	c #6AAC46",
"8 	c #69AC43",
"9 	c #6FB245",
"0 	c #6FB441",
"a 	c #77BC47",
"b 	c #6FB342",
"c 	c #74B849",
"d 	c #6DB045",
"e 	c #73B64D",
"f 	c #72B54D",
"g 	c #63A63C",
"h 	c #69AD3F",
"i 	c #7DC04F",
"j 	c #7ABA46",
"k 	c #72B23F",
"l 	c #66A737",
"m 	c #62A538",
"n 	c #67AB3F",
"o 	c #69AF46",
"p 	c #63AA43",
"q 	c #6AB149",
"r 	c #70B141",
"s 	c #7ABA4A",
"t 	c #72B544",
"u 	c #6FB344",
"v 	c #71B548",
"w 	c #6FB448",
"x 	c #70B84C",
"y 	c #64AC40",
"z 	c #6DB13D",
"A 	c #67AC39",
"B 	c #6DB141",
"C 	c #69AD3D",
"D 	c #6CB03F",
"E 	c #79BD49",
"F 	c #75BB42",
"G 	c #72B83D",
"H 	c #6EB33E",
"I 	c #74B946",
"J 	c #73B748",
"K 	c #77BB50",
"L 	c #68AC3D",
"M 	c #780000",
"N 	c #6BAF3A",
"O 	c #68AD3A",
"P 	c #6BB140",
"Q 	c #65AC3E",
"R 	c #74BB4B",
"S 	c #77B948",
"T 	c #76B646",
"U 	c #6EB141",
"V 	c #73B74A",
"W 	c #76BB4E",
"X 	c #66AE42",
"Y 	c #80C456",
"Z 	c #79BC4E",
"` 	c #77BB4D",
" .	c #67AA3C",
"..	c #67AB3B",
"+.	c #77BB49",
"@.	c #74B945",
"#.	c #6EB43D",
"$.	c #62A730",
"%.	c #73B844",
"&.	c #74B847",
"*.	c #66AA3C",
"=.	c #E03028",
"-.	c #F0C830",
";.	c #76BA4A",
">.	c #6FB345",
",.	c #61A539",
"'.	c #75B645",
").	c #73B343",
"!.	c #66A938",
"~.	c #6AAD3F",
"{.	c #6CB144",
"].	c #60A83C",
"^.	c #72B94E",
"/.	c #64A644",
"(.	c #70B34F",
"_.	c #76B954",
":.	c #66A841",
"<.	c #6EB149",
"[.	c #81C45A",
"}.	c #70B44A",
"|.	c #66A93E",
"1.	c #78BD48",
"2.	c #66AA3A",
"3.	c #5EA233",
"4.	c #B02020",
"5.	c #D07020",
"6.	c #76B953",
"7.	c #70B34D",
"8.	c #5FA13C",
"9.	c #82C35E",
"0.	c #79B94A",
"a.	c #67A738",
"b.	c #73B645",
"c.	c #79BD4F",
"d.	c #5FA438",
"e.	c #5DA539",
"f.	c #6FB74B",
"g.	c #5FA044",
"h.	c #67A849",
"i.	c #6AAC4A",
"j.	c #65A841",
"k.	c #6CAF47",
"l.	c #74B64F",
"m.	c #69AB47",
"n.	c #6DB04B",
"o.	c #7ABF4D",
"p.	c #6DB23F",
"q.	c #181818",
"r.	c #66A442",
"s.	c #79B753",
"t.	c #6DAD3E",
"u.	c #6BAB3B",
"v.	c #77BA49",
"w.	c #73B648",
"x.	c #6CB044",
"y.	c #6FB447",
"z.	c #65AC40",
"A.	c #5C9E3D",
"B.	c #64A641",
"C.	c #65A83E",
"D.	c #6DB140",
"E.	c #61A535",
"F.	c #69AC41",
"G.	c #77BA51",
"H.	c #75B94A",
"I.	c #62A637",
"J.	c #69A73D",
"K.	c #69A838",
"L.	c #75B545",
"M.	c #7BBE4D",
"N.	c #68AB3F",
"O.	c #7BC053",
"P.	c #6BB246",
"Q.	c #5EA63A",
"R.	c #60A43B",
"S.	c #7BBF54",
"T.	c #7CC14F",
"U.	c #7FC54D",
"V.	c #66AB36",
"W.	c #78BC4B",
"X.	c #73B747",
"Y.	c #62A638",
"Z.	c #E06058",
"`.	c #F8F8F8",
" +	c #87C655",
".+	c #63A232",
"++	c #74B544",
"@+	c #76B848",
"#+	c #76B948",
"$+	c #6AAD3E",
"%+	c #66A93B",
"&+	c #70B546",
"*+	c #62A73A",
"=+	c #67AC3F",
"-+	c #5BA339",
";+	c #64AC41",
">+	c #66AF3F",
",+	c #77BF4E",
"'+	c #73BA4A",
")+	c #5DA336",
"!+	c #65A941",
"~+	c #73B74F",
"{+	c #74B942",
"]+	c #F8A870",
"^+	c #6AAF40",
"/+	c #71B449",
"(+	c #82C35C",
"_+	c #63A43E",
":+	c #5FA43A",
"<+	c #6EB245",
"[+	c #74B846",
"}+	c #74B640",
"|+	c #6FB039",
"1+	c #6EAC36",
"2+	c #82BE48",
"3+	c #7DB844",
"4+	c #67AF44",
"5+	c #6BB347",
"6+	c #63AB3C",
"7+	c #65AD3D",
"8+	c #6AB041",
"9+	c #6BB045",
"0+	c #6AAE46",
"a+	c #6BB048",
"b+	c #7AC149",
"c+	c #784828",
"d+	c #69AE3E",
"e+	c #62A83B",
"f+	c #6DB047",
"g+	c #6CAF48",
"h+	c #67AF46",
"i+	c #65AD41",
"j+	c #74BB49",
"k+	c #70B23B",
"l+	c #6BAA34",
"m+	c #82BF4B",
"n+	c #7EBA47",
"o+	c #75BA4A",
"p+	c #68AE3D",
"q+	c #61A734",
"r+	c #68AE3C",
"s+	c #71B74A",
"t+	c #69AE45",
"u+	c #60A63E",
"v+	c #73BD48",
"w+	c #6EB549",
"x+	c #68B44D",
"y+	c #5AA53C",
"z+	c #6CB547",
"A+	c #76BE4A",
"B+	c #70B540",
"C+	c #6CAF3B",
"D+	c #7ABB48",
"E+	c #75B442",
"F+	c #7CBF4E",
"G+	c #7ABD4A",
"H+	c #72B742",
"I+	c #6DB23D",
"J+	c #6EB340",
"K+	c #6CB143",
"L+	c #63A83F",
"M+	c #59A038",
"N+	c #67B13F",
"O+	c #66B341",
"P+	c #61AF47",
"Q+	c #53A138",
"R+	c #5FAA3F",
"S+	c #6FB847",
"T+	c #75BD49",
"U+	c #79BE4A",
"V+	c #6FAF40",
"W+	c #6FAE39",
"X+	c #7FBF48",
"Y+	c #86C850",
"Z+	c #78BC44",
"`+	c #68AE3F",
" @	c #6BB348",
".@	c #6BB24A",
"+@	c #6CB544",
"@@	c #71BA47",
"#@	c #64B24A",
"$@	c #66B44B",
"%@	c #69B549",
"&@	c #6FB947",
"*@	c #6CB441",
"=@	c #65AA37",
"-@	c #7EC04F",
";@	c #78B849",
">@	c #75B139",
",@	c #80BE43",
"'@	c #87C74C",
")@	c #82C449",
"!@	c #76BA43",
"~@	c #69AF3E",
"{@	c #64AB40",
"]@	c #68B047",
"^@	c #6EB442",
"/@	c #78BD49",
"(@	c #6EB23E",
"_@	c #7AC24C",
":@	c #67B344",
"<@	c #63AF48",
"[@	c #62AE44",
"}@	c #6BB546",
"|@	c #6EB13D",
"1@	c #85C553",
"2@	c #77B644",
"3@	c #82BC41",
"4@	c #85C143",
"5@	c #84C244",
"6@	c #81C346",
"7@	c #79BD44",
"8@	c #67AD3A",
"9@	c #63AA3E",
"0@	c #66AD44",
"a@	c #6DB03D",
"b@	c #82C24D",
"c@	c #89C13F",
"d@	c #83C045",
"e@	c #80C352",
"f@	c #6BB349",
"g@	c #60A940",
"h@	c #78BC47",
"i@	c #7EC048",
"j@	c #7CBB45",
"k@	c #86C24E",
"l@	c #77B340",
"m@	c #8EC748",
"n@	c #8BC646",
"o@	c #7FBC3B",
"p@	c #78B83A",
"q@	c #6EB136",
"r@	c #5FA530",
"s@	c #6DB546",
"t@	c #6FB649",
"u@	c #65A633",
"v@	c #182880",
"w@	c #5FA43F",
"x@	c #68AF46",
"y@	c #74BA4C",
"z@	c #66AB39",
"A@	c #73B53E",
"B@	c #82C24A",
"C@	c #78B63D",
"D@	c #7BB63E",
"E@	c #88C24C",
"F@	c #8FC841",
"G@	c #8BC63F",
"H@	c #8AC742",
"I@	c #83C441",
"J@	c #76B93A",
"K@	c #63A92C",
"L@	c #74BB42",
"M@	c #78C14A",
"N@	c #307088",
"O@	c #6EB24A",
"P@	c #7EC256",
"Q@	c #6AAE40",
"R@	c #6CAF3D",
"S@	c #74B540",
"T@	c #6FB036",
"U@	c #83C347",
"V@	c #7FBF42",
"W@	c #8CC447",
"X@	c #7EB73A",
"Y@	c #78B43A",
"Z@	c #81BF48",
"`@	c #79BB47",
" #	c #65A838",
".#	c #68AD3F",
"+#	c #6CB345",
"@#	c #60B8A8",
"##	c #68AD42",
"$#	c #6EB147",
"%#	c #69AC3B",
"&#	c #6DAE3A",
"*#	c #79BA42",
"=#	c #7EBE44",
"-#	c #79B93E",
";#	c #89C24E",
">#	c #6BA533",
",#	c #66A233",
"'#	c #7AB74C",
")#	c #77B750",
"!#	c #64A642",
"~#	c #61A445",
"{#	c #5DA040",
"]#	c #63A83C",
"^#	c #5FA239",
"/#	c #6FB248",
"(#	c #6FB145",
"_#	c #70B041",
":#	c #7FBF4E",
"<#	c #75B441",
"[#	c #75B43F",
"}#	c #7DB947",
"|#	c #69A634",
"1#	c #72B041",
"2#	c #7AB94E",
"3#	c #6EAE48",
"4#	c #64A643",
"5#	c #6CAF51",
"6#	c #62A445",
"7#	c #76B547",
"8#	c #62A631",
"9#	c #6EB248",
"0#	c #64A73E",
"a#	c #6CAF46",
"b#	c #76B84E",
"c#	c #7EBE52",
"d#	c #7EBE50",
"e#	c #66A435",
"f#	c #65A333",
"g#	c #7BBC46",
"h#	c #7EC04A",
"i#	c #71B346",
"j#	c #67AB40",
"k#	c #61A43C",
"l#	c #6FB249",
"m#	c #75B745",
"n#	c #7AB948",
"o#	c #6AA949",
"p#	c #65A840",
"q#	c #6CAF45",
"r#	c #74B74D",
"s#	c #77B94E",
"t#	c #76B54B",
"u#	c #6DAC40",
"v#	c #79B74A",
"w#	c #6BAF3D",
"x#	c #79BD4B",
"y#	c #79BD4A",
"z#	c #6CB13D",
"A#	c #68AC39",
"B#	c #62A632",
"C#	c #62A733",
"D#	c #78BC49",
"E#	c #6DB33F",
"F#	c #73B746",
"G#	c #66A44B",
"H#	c #5EA237",
"I#	c #77BB4C",
"J#	c #71B546",
"K#	c #6FB144",
"L#	c #71B143",
"M#	c #66A538",
"N#	c #6FAD40",
"O#	c #5EA23D",
"P#	c #70B44B",
"Q#	c #66AB3E",
"R#	c #60A434",
"S#	c #65A936",
"T#	c #69AE39",
"U#	c #7AC049",
"V#	c #62AD38",
"W#	c #903800",
"X#	c #6FB440",
"Y#	c #73B342",
"Z#	c #67A736",
"`#	c #6CAA3B",
" $	c #5CA144",
".$	c #5CA041",
"+$	c #66A946",
"@$	c #68AC44",
"#$	c #6CAF44",
"$$	c #78BC4D",
"%$	c #75B947",
"&$	c #75BA46",
"*$	c #78BF46",
"=$	c #75BB45",
"-$	c #74BA44",
";$	c #75B844",
">$	c #77B845",
",$	c #7BBB49",
"'$	c #7FBE4D",
")$	c #66A434",
"!$	c #7ABF4C",
"~$	c #73B845",
"{$	c #68AD3C",
"]$	c #75B94B",
"^$	c #70B446",
"/$	c #70B946",
"($	c #6FB846",
"_$	c #66AD3C",
":$	c #69AE3D",
"<$	c #74B747",
"[$	c #75B546",
"}$	c #6EAC3E",
"|$	c #74B144",
"1$	c #6AAE3D",
"2$	c #7CC04F",
"3$	c #70B444",
"4$	c #77B749",
"5$	c #75B447",
"6$	c #75BB4B",
"7$	c #6BB242",
"8$	c #69AE3F",
"9$	c #72B647",
"0$	c #61A335",
"a$	c #78B94B",
"b$	c #5EA134",
"c$	c #6DB142",
"d$	c #67AB3A",
"e$	c #7BC04D",
"f$	c #6DB23E",
"g$	c #77BA48",
"h$	c #67A842",
"i$	c #6DAD4A",
"j$	c #66A744",
"k$	c #6BAB48",
"l$	c #7EBE59",
"m$	c #74B549",
"n$	c #65A739",
"o$	c #77B94C",
"p$	c #7ABE4F",
"q$	c #63A839",
"r$	c #64AA3A",
"s$	c #69B040",
"t$	c #5DA037",
"u$	c #5FA238",
"v$	c #66AA3D",
"w$	c #6AAE3E",
"x$	c #66AA38",
"y$	c #65AA36",
"z$	c #74B944",
"A$	c #76B945",
"B$	c #79BB50",
"C$	c #6EAF44",
"D$	c #67A93A",
"E$	c #75B846",
"F$	c #74B745",
"G$	c #75B750",
"H$	c #69AB46",
"I$	c #5C9E39",
"J$	c #5FA23C",
"K$	c #63A640",
"L$	c #66A943",
"M$	c #68AA43",
"N$	c #65A337",
"O$	c #73B144",
"P$	c #7BBB4E",
"Q$	c #6BAE3F",
"R$	c #7BC353",
"S$	c #6CB545",
"T$	c #5CA836",
"U$	c #5EA13A",
"V$	c #76B951",
"W$	c #76B950",
"X$	c #7BBF53",
"Y$	c #65A938",
"Z$	c #73B744",
"`$	c #63A533",
" %	c #6CAE42",
".%	c #63A539",
"+%	c #70B343",
"@%	c #7BBE4C",
"#%	c #66A836",
"$%	c #66AA3B",
"%%	c #6DB143",
"&%	c #63A638",
"*%	c #73B044",
"=%	c #77B649",
"-%	c #69AC3E",
";%	c #6FB747",
">%	c #60A939",
",%	c #61AD3B",
"'%	c #74B64D",
")%	c #75B84E",
"!%	c #75B84C",
"~%	c #5FA336",
"{%	c #6EB244",
"]%	c #76B946",
"^%	c #68AB38",
"/%	c #6CAE40",
"(%	c #6BAD41",
"_%	c #70B246",
":%	c #72B445",
"<%	c #72B541",
"[%	c #69AF3A",
"}%	c #76BD47",
"|%	c #69B03A",
"1%	c #6AB03B",
"2%	c #74BA45",
"3%	c #75BC46",
"4%	c #7DC44E",
"5%	c #5FA631",
"6%	c #6BAC3E",
"7%	c #74B648",
"8%	c #76B84A",
"9%	c #6EB243",
"0%	c #65A93A",
"a%	c #6CB142",
"b%	c #6EB545",
"c%	c #5FA335",
"d%	c #69AC40",
"e%	c #75B84F",
"f%	c #72B54B",
"g%	c #67AA41",
"h%	c #77BA47",
"i%	c #76B947",
"j%	c #67A93C",
"k%	c #74B64B",
"l%	c #80C256",
"m%	c #70B243",
"n%	c #6BAE3C",
"o%	c #63AA36",
"p%	c #77BF4B",
"q%	c #6EB643",
"r%	c #64AD39",
"s%	c #65AE3A",
"t%	c #6BB340",
"u%	c #77C04C",
"v%	c #63AC38",
"w%	c #5FA636",
"x%	c #6AB040",
"y%	c #76BB4C",
"z%	c #7FC153",
"A%	c #7ABB4D",
"B%	c #75B948",
"C%	c #65A93B",
"D%	c #5EA135",
"E%	c #72B54E",
"F%	c #6EB14C",
"G%	c #7FC14F",
"H%	c #78BB48",
"I%	c #67A93B",
"J%	c #6DAE43",
"K%	c #77B94D",
"L%	c #75B848",
"M%	c #70B341",
"N%	c #64A835",
"O%	c #6DB446",
"P%	c #71B94C",
"Q%	c #72BA4D",
"R%	c #70B84B",
"S%	c #69B144",
"T%	c #5BA336",
"U%	c #61A93C",
"V%	c #6EB649",
"W%	c #6EB848",
"X%	c #5FA938",
"Y%	c #72B94A",
"Z%	c #7BC051",
"`%	c #6DAF41",
" &	c #69A93C",
".&	c #7BB94C",
"+&	c #79B549",
"  . + @ # $ % & * = - ; > , ' ) ! ~ { ] ^ / ( _ : < [ } | 1 2 3 ",
"4 5 6 7 8 9 0 a b c d e f g h i j k l m n o p q r s t u v w x y ",
"z A B C D E F G H I J K = L M M M M M N O P Q R S T U u V W x X ",
"Y Z `  ...+.@.#.$.%.&.h *.M =.=.=.-.=.M ;.>.,.V '.).!.~.V {.].^.",
"/.(._.:.<.[.}.|.1.1.2.3.M =.=.4.5.-.-.M 6.7.8.9.0.a.b.c.| d.e.f.",
"g.h.i.j.k.l.m.n.o.p.>.M =.4.4.4.q.q.q.q.q.q.r.s.t.u.v.w.x.y.z.y ",
"A.B.C.u D.E.F.G.H.I.M =.4.4.q.q.q.q.q.q.q.q.q.J.K.L.M.L N.O.P.Q.",
"R.S.T.U.F V.W.J X.Y.M 4.4.q.q.Z.`.`.Z.`.q.q. +.+++@+#+$+%+&+*+=+",
"-+;+>+,+'+)+!+~+{+M 4.4.q.q.Z.Z.`.q.]+q.^+/+(+_+:+<+[+}+|+1+2+3+",
"4+5+6+7+8+9+0+a+b+c+]+]+q.q.Z.]+`.q.]+q.d+e+f+g+h+i+j+1.k+l+m+n+",
"W o+p+q+r+s+t+u+v+c+Z.]+q.q.q.]+]+]+]+]+]+]+c+w+x+y+z+A+B+C+D+E+",
"F+G+H+I+J+K+L+M+N+c+Z.Z.]+q.]+]+q.Z.Z.]+]+Z.c+O+P+Q+R+S+T+U+#+V+",
"W+X+Y+Z+H `+ @.@+@@@q.Z.Z.Z.]+q.q.q.q.Z.Z.q.q.q.#@$@%@&@*@=@-@;@",
">@,@'@)@!@~@{@]@^@/@(@q.q.Z.]+]+]+q.q.q.q.q._@:@<@[@}@T+@.|@1@2@",
"3@4@5@6@7@8@9@0@a@b@M M c+c+Z.Z.Z.Z.Z.c+c@d@e@f@g@y ~@h@i@j@k@l@",
"m@n@o@p@q@r@s@t@u@M 4.4.4.4.c+c+c+c+c+v@c+c+c+w@x@y@z@A@B@C@D@E@",
"F@G@H@I@J@K@L@M@M 4.4.=.4.M M N@v@4.=.v@v@`.`.c+O@P@Q@R@S@T@U@V@",
"W@X@Y@Z@`@ #.#+#M 4.=.=.c+c+c+N@@#v@4.=.v@v@`.c+##$#| %#&#*#=#-#",
";#>#,#'#)#!#~#{#M 4.=.c+-.`.`.c+@#v@4.4.4.v@v@c+]#^#/#(#_#:#<#[#",
"}#|#1#2#3#4#5#6#7#M c+-.-.`.`.`.c+@#v@v@v@N@v@8#9#0#a#b#c#d#e#f#",
"g#h#D+S i#j#k#l#m#n#c+-.-.-.`.`.c+`.`.@#N@`.v@o#p#q#r#s#t#u#v#v#",
"w#x#y#z#A#B#C#D#E#F#v@c+-.-.-.c+N@`.`.@#N@q.q.G#H#I#J#K#L#M#N#v#",
"O#a+P#Q#R#S#T#U#V#q.v@v@c+c+c+@#@#@#@#N@q.5.W#q.=@E X#a@Y#Z#`#1#",
" $.$+$@$#$$$%$&$q.q.W#v@N@N@@#@#@#N@N@q.5.5.q.q.*$=$-$;$>$,$'$)$",
"!$@.~${$C I#]$^$q.W#W#v@N@N@N@N@v@v@v@q.5.W#q.q./$($_$:$<$[$}$|$",
"H+&$&$A 1$2$3$} q.5.W#v@N@v@v@v@v@4$5$q.W#q.q.q.6$7$8$9$) %+0$a$",
"b$c$J#d$D.e$f$O q.-.5.v@v@v@g$g$h$i$j$k$q.q.q.l$m$n$o$p$c$q$r$s$",
"t$t$u$v$w$x$y$z$A$q.q.B$C$D$E$F$G$H$I$8.J$K$L$M$N$O$P$Q$8$R$S$T$",
"U$V$W$X$^$Y$Z$%.;$`$i# %.%+%@%#%J#J#$%%%Z I#c.&%*%=%a$-%$%;%>%,%",
"^#'%)%S.!%~%{%X.]%^%/%(%_%:%F$<%[%}%|%1%2%3%4%5%6%7%8%9%0%a%a%b%",
"c%v$d%e%f%^#g%/#h%i%j%k%l%m%n%E o%p%q%r%s%t%u%v%w%x%y%H.9%-%z%A%",
"B%X.C%D%g%E%F%L$G%H%I%J%K%L%M%N%O%P%Q%R%S%T%U%V%W%X%Y%Z%`% &.&+&"};
