/* XPM */
static char * player_w_xpm[] = {
"32 32 655 2",
"  	c #60A33B",
". 	c #6FB14D",
"+ 	c #75B656",
"@ 	c #69AA4D",
"# 	c #5EA041",
"$ 	c #5EA03C",
"% 	c #65A93D",
"& 	c #7CC051",
"* 	c #64A839",
"= 	c #71B44A",
"- 	c #65A83F",
"; 	c #5EA13B",
"> 	c #68AA45",
", 	c #6EB048",
"' 	c #64A73C",
") 	c #72B547",
"! 	c #65A438",
"~ 	c #7CBA4E",
"{ 	c #71B047",
"] 	c #6BAD48",
"^ 	c #73B654",
"/ 	c #6AB04F",
"( 	c #5BA244",
"_ 	c #5AA142",
": 	c #62A335",
"< 	c #7DBD4D",
"[ 	c #6FB242",
"} 	c #6AAE3F",
"| 	c #6FB346",
"1 	c #5CA134",
"2 	c #5FA73B",
"3 	c #6DB549",
"4 	c #5EA232",
"5 	c #63A63B",
"6 	c #6CAE47",
"7 	c #6AAC46",
"8 	c #69AC43",
"9 	c #6FB245",
"0 	c #6FB441",
"a 	c #77BC47",
"b 	c #6FB342",
"c 	c #74B849",
"d 	c #6DB045",
"e 	c #73B64D",
"f 	c #72B54D",
"g 	c #63A63C",
"h 	c #69AD3F",
"i 	c #7DC04F",
"j 	c #7ABA46",
"k 	c #72B23F",
"l 	c #66A737",
"m 	c #62A538",
"n 	c #67AB3F",
"o 	c #69AF46",
"p 	c #63AA43",
"q 	c #6AB149",
"r 	c #70B141",
"s 	c #7ABA4A",
"t 	c #72B544",
"u 	c #6FB344",
"v 	c #71B548",
"w 	c #6FB448",
"x 	c #70B84C",
"y 	c #64AC40",
"z 	c #6DB13D",
"A 	c #67AC39",
"B 	c #6DB141",
"C 	c #69AD3D",
"D 	c #6CB03F",
"E 	c #79BD49",
"F 	c #75BB42",
"G 	c #72B83D",
"H 	c #6EB33E",
"I 	c #74B946",
"J 	c #73B748",
"K 	c #77BB50",
"L 	c #68AC3D",
"M 	c #181818",
"N 	c #6BAF3A",
"O 	c #68AD3A",
"P 	c #6BB140",
"Q 	c #65AC3E",
"R 	c #74BB4B",
"S 	c #77B948",
"T 	c #76B646",
"U 	c #6EB141",
"V 	c #73B74A",
"W 	c #76BB4E",
"X 	c #66AE42",
"Y 	c #80C456",
"Z 	c #79BC4E",
"` 	c #77BB4D",
" .	c #67AA3C",
"..	c #67AB3B",
"+.	c #77BB49",
"@.	c #74B945",
"#.	c #6EB43D",
"$.	c #62A730",
"%.	c #73B844",
"&.	c #74B847",
"*.	c #66AA3C",
"=.	c #76BA4A",
"-.	c #6FB345",
";.	c #61A539",
">.	c #75B645",
",.	c #73B343",
"'.	c #66A938",
").	c #6AAD3F",
"!.	c #6CB144",
"~.	c #60A83C",
"{.	c #72B94E",
"].	c #64A644",
"^.	c #70B34F",
"/.	c #76B954",
"(.	c #66A841",
"_.	c #6EB149",
":.	c #81C45A",
"<.	c #70B44A",
"[.	c #66A93E",
"}.	c #78BD48",
"|.	c #66AA3A",
"1.	c #5EA233",
"2.	c #B02020",
"3.	c #D07020",
"4.	c #F0C830",
"5.	c #70B34D",
"6.	c #5FA13C",
"7.	c #82C35E",
"8.	c #79B94A",
"9.	c #67A738",
"0.	c #73B645",
"a.	c #79BD4F",
"b.	c #5FA438",
"c.	c #5DA539",
"d.	c #6FB74B",
"e.	c #5FA044",
"f.	c #67A849",
"g.	c #6AAC4A",
"h.	c #65A841",
"i.	c #6CAF47",
"j.	c #74B64F",
"k.	c #69AB47",
"l.	c #6DB04B",
"m.	c #7ABF4D",
"n.	c #6DB23F",
"o.	c #71B449",
"p.	c #780000",
"q.	c #E03028",
"r.	c #67A745",
"s.	c #66A442",
"t.	c #79B753",
"u.	c #6DAD3E",
"v.	c #6BAB3B",
"w.	c #77BA49",
"x.	c #73B648",
"y.	c #6CB044",
"z.	c #6FB447",
"A.	c #65AC40",
"B.	c #5C9E3D",
"C.	c #64A641",
"D.	c #65A83E",
"E.	c #6DB140",
"F.	c #61A535",
"G.	c #69AC41",
"H.	c #77BA51",
"I.	c #75B94A",
"J.	c #62A637",
"K.	c #75B84E",
"L.	c #73B248",
"M.	c #69A73D",
"N.	c #69A838",
"O.	c #75B545",
"P.	c #7BBE4D",
"Q.	c #68AB3F",
"R.	c #7BC053",
"S.	c #6BB246",
"T.	c #5EA63A",
"U.	c #60A43B",
"V.	c #7BBF54",
"W.	c #7CC14F",
"X.	c #7FC54D",
"Y.	c #66AB36",
"Z.	c #78BC4B",
"`.	c #73B747",
" +	c #62A638",
".+	c #784828",
"++	c #63A232",
"@+	c #74B544",
"#+	c #76B848",
"$+	c #76B948",
"%+	c #6AAD3E",
"&+	c #66A93B",
"*+	c #70B546",
"=+	c #62A73A",
"-+	c #67AC3F",
";+	c #5BA339",
">+	c #64AC41",
",+	c #66AF3F",
"'+	c #77BF4E",
")+	c #73BA4A",
"!+	c #5DA336",
"~+	c #65A941",
"{+	c #73B74F",
"]+	c #74B942",
"^+	c #F8A870",
"/+	c #5FA43A",
"(+	c #6EB245",
"_+	c #74B846",
":+	c #74B640",
"<+	c #6FB039",
"[+	c #6EAC36",
"}+	c #82BE48",
"|+	c #7DB844",
"1+	c #67AF44",
"2+	c #6BB347",
"3+	c #63AB3C",
"4+	c #65AD3D",
"5+	c #6AB041",
"6+	c #6BB045",
"7+	c #6AAE46",
"8+	c #6BB048",
"9+	c #7AC149",
"0+	c #E06058",
"a+	c #67AF46",
"b+	c #65AD41",
"c+	c #74BB49",
"d+	c #70B23B",
"e+	c #6BAA34",
"f+	c #82BF4B",
"g+	c #7EBA47",
"h+	c #75BA4A",
"i+	c #68AE3D",
"j+	c #61A734",
"k+	c #68AE3C",
"l+	c #71B74A",
"m+	c #69AE45",
"n+	c #60A63E",
"o+	c #73BD48",
"p+	c #75BE48",
"q+	c #6EB549",
"r+	c #68B44D",
"s+	c #5AA53C",
"t+	c #6CB547",
"u+	c #76BE4A",
"v+	c #70B540",
"w+	c #6CAF3B",
"x+	c #7ABB48",
"y+	c #75B442",
"z+	c #7CBF4E",
"A+	c #7ABD4A",
"B+	c #72B742",
"C+	c #6DB23D",
"D+	c #6EB340",
"E+	c #6CB143",
"F+	c #63A83F",
"G+	c #59A038",
"H+	c #67B13F",
"I+	c #70BA47",
"J+	c #61AF47",
"K+	c #53A138",
"L+	c #5FAA3F",
"M+	c #6FB847",
"N+	c #75BD49",
"O+	c #79BE4A",
"P+	c #6FAF40",
"Q+	c #6FAE39",
"R+	c #7FBF48",
"S+	c #86C850",
"T+	c #78BC44",
"U+	c #68AE3F",
"V+	c #6BB348",
"W+	c #6BB24A",
"X+	c #6CB544",
"Y+	c #64B24A",
"Z+	c #66B44B",
"`+	c #69B549",
" @	c #6FB947",
".@	c #6CB441",
"+@	c #65AA37",
"@@	c #7EC04F",
"#@	c #78B849",
"$@	c #75B139",
"%@	c #80BE43",
"&@	c #87C74C",
"*@	c #82C449",
"=@	c #76BA43",
"-@	c #69AF3E",
";@	c #64AB40",
">@	c #68B047",
",@	c #182880",
"'@	c #63AF48",
")@	c #62AE44",
"!@	c #6BB546",
"~@	c #6EB13D",
"{@	c #85C553",
"]@	c #77B644",
"^@	c #82BC41",
"/@	c #85C143",
"(@	c #84C244",
"_@	c #81C346",
":@	c #79BD44",
"<@	c #67AD3A",
"[@	c #63AA3E",
"}@	c #66AD44",
"|@	c #60A940",
"1@	c #78BC47",
"2@	c #7EC048",
"3@	c #7CBB45",
"4@	c #86C24E",
"5@	c #77B340",
"6@	c #8EC748",
"7@	c #8BC646",
"8@	c #7FBC3B",
"9@	c #78B83A",
"0@	c #6EB136",
"a@	c #5FA530",
"b@	c #6DB546",
"c@	c #6FB649",
"d@	c #5FA43F",
"e@	c #68AF46",
"f@	c #74BA4C",
"g@	c #66AB39",
"h@	c #73B53E",
"i@	c #82C24A",
"j@	c #78B63D",
"k@	c #7BB63E",
"l@	c #88C24C",
"m@	c #8FC841",
"n@	c #8BC63F",
"o@	c #8AC742",
"p@	c #83C441",
"q@	c #76B93A",
"r@	c #63A92C",
"s@	c #74BB42",
"t@	c #78C14A",
"u@	c #60A141",
"v@	c #6EB24A",
"w@	c #7EC256",
"x@	c #6AAE40",
"y@	c #6CAF3D",
"z@	c #74B540",
"A@	c #6FB036",
"B@	c #83C347",
"C@	c #7FBF42",
"D@	c #8CC447",
"E@	c #7EB73A",
"F@	c #78B43A",
"G@	c #81BF48",
"H@	c #79BB47",
"I@	c #65A838",
"J@	c #68AD3F",
"K@	c #6CB345",
"L@	c #6AB042",
"M@	c #307088",
"N@	c #84C652",
"O@	c #66A939",
"P@	c #68AD42",
"Q@	c #6EB147",
"R@	c #69AC3B",
"S@	c #6DAE3A",
"T@	c #79BA42",
"U@	c #7EBE44",
"V@	c #79B93E",
"W@	c #89C24E",
"X@	c #6BA533",
"Y@	c #66A233",
"Z@	c #7AB74C",
"`@	c #77B750",
" #	c #64A642",
".#	c #61A445",
"+#	c #5DA040",
"@#	c #76B74A",
"##	c #80C44A",
"$#	c #67AD2F",
"%#	c #63A83C",
"&#	c #5FA239",
"*#	c #6FB248",
"=#	c #6FB145",
"-#	c #70B041",
";#	c #7FBF4E",
">#	c #75B441",
",#	c #75B43F",
"'#	c #7DB947",
")#	c #69A634",
"!#	c #72B041",
"~#	c #7AB94E",
"{#	c #6EAE48",
"]#	c #64A643",
"^#	c #6CAF51",
"/#	c #62A445",
"(#	c #60B8A8",
"_#	c #7ABD49",
":#	c #62A631",
"<#	c #6EB248",
"[#	c #64A73E",
"}#	c #6CAF46",
"|#	c #76B84E",
"1#	c #7EBE52",
"2#	c #7EBE50",
"3#	c #66A435",
"4#	c #65A333",
"5#	c #7BBC46",
"6#	c #7EC04A",
"7#	c #71B346",
"8#	c #67AB40",
"9#	c #61A43C",
"0#	c #6FB249",
"a#	c #75B944",
"b#	c #76B74F",
"c#	c #6AA949",
"d#	c #65A840",
"e#	c #6CAF45",
"f#	c #74B74D",
"g#	c #77B94E",
"h#	c #76B54B",
"i#	c #6DAC40",
"j#	c #79B74A",
"k#	c #6BAF3D",
"l#	c #79BD4B",
"m#	c #79BD4A",
"n#	c #6CB13D",
"o#	c #68AC39",
"p#	c #62A632",
"q#	c #62A733",
"r#	c #78BC49",
"s#	c #6DB33F",
"t#	c #6FB540",
"u#	c #6BAC4A",
"v#	c #66A44B",
"w#	c #5EA237",
"x#	c #77BB4C",
"y#	c #71B546",
"z#	c #6FB144",
"A#	c #71B143",
"B#	c #66A538",
"C#	c #6FAD40",
"D#	c #5EA23D",
"E#	c #70B44B",
"F#	c #66AB3E",
"G#	c #60A434",
"H#	c #65A936",
"I#	c #69AE39",
"J#	c #7AC049",
"K#	c #903800",
"L#	c #69B043",
"M#	c #63A53C",
"N#	c #67A63D",
"O#	c #6FB440",
"P#	c #6DB03D",
"Q#	c #73B342",
"R#	c #67A736",
"S#	c #6CAA3B",
"T#	c #5CA144",
"U#	c #5CA041",
"V#	c #66A946",
"W#	c #68AC44",
"X#	c #6CAF44",
"Y#	c #78BC4D",
"Z#	c #75B947",
"`#	c #75BA46",
" $	c #6DBB45",
".$	c #69AE48",
"+$	c #6BAE3C",
"@$	c #78BA3F",
"#$	c #78BF46",
"$$	c #75BB45",
"%$	c #74BA44",
"&$	c #75B844",
"*$	c #77B845",
"=$	c #7BBB49",
"-$	c #7FBE4D",
";$	c #66A434",
">$	c #7ABF4C",
",$	c #73B845",
"'$	c #68AD3C",
")$	c #75B94B",
"!$	c #70B446",
"~$	c #65AA36",
"{$	c #70B442",
"]$	c #77BA4C",
"^$	c #6EB044",
"/$	c #6CAE42",
"($	c #73B646",
"_$	c #73B542",
":$	c #74B642",
"<$	c #65A62F",
"[$	c #74B740",
"}$	c #70B946",
"|$	c #6FB846",
"1$	c #66AD3C",
"2$	c #69AE3D",
"3$	c #74B747",
"4$	c #75B546",
"5$	c #6EAC3E",
"6$	c #74B144",
"7$	c #6AAE3D",
"8$	c #7CC04F",
"9$	c #70B444",
"0$	c #6FB23F",
"a$	c #71B441",
"b$	c #71B345",
"c$	c #63A539",
"d$	c #66A83C",
"e$	c #79BB4C",
"f$	c #79B94C",
"g$	c #73B346",
"h$	c #61A033",
"i$	c #7BBC4F",
"j$	c #75BB4B",
"k$	c #6BB242",
"l$	c #69AE3F",
"m$	c #72B647",
"n$	c #61A335",
"o$	c #78B94B",
"p$	c #5EA134",
"q$	c #6DB142",
"r$	c #67AB3A",
"s$	c #7BC04D",
"t$	c #6DB23E",
"u$	c #7DC04C",
"v$	c #76B946",
"w$	c #6AAC3E",
"x$	c #65A73B",
"y$	c #68AA3E",
"z$	c #71B344",
"A$	c #6EAE4B",
"B$	c #67A744",
"C$	c #7EBE59",
"D$	c #74B549",
"E$	c #65A739",
"F$	c #77B94C",
"G$	c #7ABE4F",
"H$	c #63A839",
"I$	c #64AA3A",
"J$	c #69B040",
"K$	c #5DA037",
"L$	c #5FA238",
"M$	c #66AA3D",
"N$	c #6AAE3E",
"O$	c #66AA38",
"P$	c #74B944",
"Q$	c #76B945",
"R$	c #65A735",
"S$	c #75B749",
"T$	c #79BB50",
"U$	c #6EAF44",
"V$	c #67A93A",
"W$	c #75B846",
"X$	c #63A640",
"Y$	c #66A943",
"Z$	c #68AA43",
"`$	c #65A337",
" %	c #73B144",
".%	c #7BBB4E",
"+%	c #6BAE3F",
"@%	c #7BC353",
"#%	c #6CB545",
"$%	c #5CA836",
"%%	c #5EA13A",
"&%	c #76B951",
"*%	c #76B950",
"=%	c #7BBF53",
"-%	c #65A938",
";%	c #73B744",
">%	c #63A533",
",%	c #70B343",
"'%	c #7BBE4C",
")%	c #66A836",
"!%	c #63A638",
"~%	c #73B044",
"{%	c #77B649",
"]%	c #69AC3E",
"^%	c #66AA3B",
"/%	c #6FB747",
"(%	c #60A939",
"_%	c #61AD3B",
":%	c #74B64D",
"<%	c #75B84C",
"[%	c #5FA336",
"}%	c #6EB244",
"|%	c #68AB38",
"1%	c #6CAE40",
"2%	c #6BAD41",
"3%	c #70B246",
"4%	c #72B445",
"5%	c #74B745",
"6%	c #72B541",
"7%	c #69AF3A",
"8%	c #76BD47",
"9%	c #69B03A",
"0%	c #6AB03B",
"a%	c #74BA45",
"b%	c #75BC46",
"c%	c #7DC44E",
"d%	c #5FA631",
"e%	c #6BAC3E",
"f%	c #74B648",
"g%	c #76B84A",
"h%	c #6EB243",
"i%	c #65A93A",
"j%	c #6CB142",
"k%	c #6EB545",
"l%	c #5FA335",
"m%	c #69AC40",
"n%	c #75B84F",
"o%	c #72B54B",
"p%	c #67AA41",
"q%	c #77BA47",
"r%	c #76B947",
"s%	c #67A93C",
"t%	c #74B64B",
"u%	c #80C256",
"v%	c #70B243",
"w%	c #63AA36",
"x%	c #77BF4B",
"y%	c #6EB643",
"z%	c #64AD39",
"A%	c #65AE3A",
"B%	c #6BB340",
"C%	c #77C04C",
"D%	c #63AC38",
"E%	c #5FA636",
"F%	c #6AB040",
"G%	c #76BB4C",
"H%	c #7FC153",
"I%	c #7ABB4D",
"J%	c #75B948",
"K%	c #65A93B",
"L%	c #5EA135",
"M%	c #72B54E",
"N%	c #6EB14C",
"O%	c #7FC14F",
"P%	c #78BB48",
"Q%	c #67A93B",
"R%	c #6DAE43",
"S%	c #77B94D",
"T%	c #75B848",
"U%	c #70B341",
"V%	c #64A835",
"W%	c #6DB446",
"X%	c #71B94C",
"Y%	c #72BA4D",
"Z%	c #70B84B",
"`%	c #69B144",
" &	c #5BA336",
".&	c #61A93C",
"+&	c #6EB649",
"@&	c #6EB848",
"#&	c #5FA938",
"$&	c #72B94A",
"%&	c #7BC051",
"&&	c #6DAF41",
"*&	c #69A93C",
"=&	c #7BB94C",
"-&	c #79B549",
"  . + @ # $ % & * = - ; > , ' ) ! ~ { ] ^ / ( _ : < [ } | 1 2 3 ",
"4 5 6 7 8 9 0 a b c d e f g h i j k l m n o p q r s t u v w x y ",
"z A B C D E F G H I J K = L M M M M M N O P Q R S T U u V W x X ",
"Y Z `  ...+.@.#.$.%.&.h *.M M M M M M M =.-.;.V >.,.'.).V !.~.{.",
"].^./.(._.:.<.[.}.}.|.1.M M 2.3.4.3.2.M M 5.6.7.8.9.0.a.| b.c.d.",
"e.f.g.h.i.j.k.l.m.n.-.o.M p.p.q.q.q.q.2.p.r.s.t.u.v.w.x.y.z.A.y ",
"B.C.D.u E.F.G.H.I.J.K.M p.q.q.q.q.q.q.q.2.p.L.M.N.O.P.L Q.R.S.T.",
"U.V.W.X.F Y.Z.J `. +.+p.2.q.q.q.q.q.q.q.2.p..+++@+#+$+%+&+*+=+-+",
";+>+,+'+)+!+~+{+]+.+^+p.2.q.q.q.q.q.q.q.2.p.^+.+/+(+_+:+<+[+}+|+",
"1+2+3+4+5+6+7+8+9+.+0+p.2.p.q.q.q.q.q.q.2.p.0+.+a+b+c+}.d+e+f+g+",
"W h+i+j+k+l+m+n+o+p+.+p.2.2.p.p.p.q.q.2.2.p..+q+r+s+t+u+v+w+x+y+",
"z+A+B+C+D+E+F+G+H+I+.+M p.2.2.2.2.2.2.2.p.p.2.p.J+K+L+M+N+O+$+P+",
"Q+R+S+T+H U+V+W+X+.+0+M M p.2.2.2.2.2.p.M 2.q.p.Y+Z+`+ @.@+@@@#@",
"$@%@&@*@=@-@;@>@.+^+p.p.M M p.p.p.p.p.M ,@2.q.p.'@)@!@N+@.~@{@]@",
"^@/@(@_@:@<@[@}@p.p.q.q.2.M M M M M M ,@2.q.2.p.|@y -@1@2@3@4@5@",
"6@7@8@9@0@a@b@c@p.q.q.q.2.,@2.2.2.2.,@,@2.q.p.d@e@f@g@h@i@j@k@l@",
"m@n@o@p@q@r@s@t@p.q.2.2.,@,@q.q.q.2.,@,@2.2.p.u@v@w@x@y@z@A@B@C@",
"D@E@F@G@H@I@J@K@L@p.2.2.M@,@q.q.q.2.,@,@2.p.N@O@P@Q@| R@S@T@U@V@",
"W@X@Y@Z@`@ #.#+#@#,@,@,@M@,@2.2.2.,@M@,@2.p.##$#%#&#*#=#-#;#>#,#",
"'#)#!#~#{#]#^#/#,@M@M@M@(#M@,@,@,@M@M@M@,@8._#:#<#[#}#|#1#2#3#4#",
"5#6#x+S 7#8#9#0#,@M@M@(#(#(#M@M@M@(#(#M@,@a#b#c#d#e#f#g#h#i#j#j#",
"k#l#m#n#o#p#q#r#s#,@,@M@(#(#(#(#(#,@(#M@,@t#u#v#w#x#y#z#A#B#C#j#",
"D#8+E#F#G#H#I#J#M K#K#,@M@M@M@,@,@M@(#M@,@L#M#N#+@E O#P#Q#R#S#!#",
"T#U#V#W#X#Y#Z#`# $M M M ,@,@,@M@M@M@M@M@,@.$+$@$#$$$%$&$*$=$-$;$",
">$@.,$'$C x#)$!$~${$]$^$/$($,@M M M M@,@_$:$<$[$}$|$1$2$3$4$5$6$",
"B+`#`#A 7$8$9$} 0$a$b$c$d$e$M M K#K#M M f$g$h$i$j$k$l$m$) &+n$o$",
"p$q$y#r$E.s$t$O u$v$w$x$y$z$M M M K#3.3.M A$B$C$D$E$F$G$q$H$I$J$",
"K$K$L$M$N$O$~$P$Q$R$S$T$U$V$W$M M M K#3.M X$Y$Z$`$ %.%+%l$@%#%$%",
"%%&%*%=%!$-%;%%.&$>%7#/$c$,%'%)%M M M M Z x#a.!%~%{%o$]%^%/%(%_%",
"&#:%K.V.<%[%}%`.v$|%1%2%3%4%5%6%7%8%9%0%a%b%c%d%e%f%g%h%i%j%j%k%",
"l%M$m%n%o%&#p%*#q%r%s%t%u%v%+$E w%x%y%z%A%B%C%D%E%F%G%I.h%]%H%I%",
"J%`.K%L%p%M%N%Y$O%P%Q%R%S%T%U%V%W%X%Y%Z%`% &.&+&@&#&$&%&&&*&=&-&"};
