/* XPM */
static char *wall1678715727[] = {
/* columns rows colors chars-per-pixel */
"64 64 202 2 ",
"   c #674719",
".  c #75521C",
"X  c #6F5228",
"o  c #6E5222",
"O  c #7D5B26",
"+  c #765A2C",
"@  c #7C5C2D",
"#  c #755526",
"$  c #7A5D33",
"%  c #7F6027",
"&  c #7E622D",
"*  c #7F6238",
"=  c #825D24",
"-  c #815D29",
";  c #805F32",
":  c #84632B",
">  c #89692D",
",  c #86652A",
"<  c #92712E",
"1  c #836234",
"2  c #8A6733",
"3  c #8D6C34",
"4  c #846539",
"5  c #866A3A",
"6  c #8C6B3B",
"7  c #886738",
"8  c #916E35",
"9  c #916C3D",
"0  c #8E723B",
"q  c #8B7338",
"w  c #927436",
"e  c #93733C",
"r  c #9B763D",
"t  c #96783E",
"y  c #9B7B3C",
"u  c #8D6D43",
"i  c #946E44",
"p  c #8E7143",
"a  c #947344",
"s  c #9A7543",
"d  c #967A44",
"f  c #9C7C44",
"g  c #967549",
"h  c #9B7649",
"j  c #94794B",
"k  c #9C7C4B",
"l  c #9C7E53",
"z  c #977A50",
"x  c #A27D45",
"c  c #A17D4B",
"v  c #A27D51",
"b  c #A37F5B",
"n  c #A5843F",
"m  c #9E8145",
"M  c #9E8249",
"N  c #9E8252",
"B  c #9F8258",
"V  c #A28345",
"C  c #AA8545",
"Z  c #A3844C",
"A  c #A9854D",
"S  c #A6894C",
"D  c #AB8B4C",
"F  c #A38A47",
"G  c #B08D4D",
"H  c #A48454",
"J  c #A98553",
"K  c #A68953",
"L  c #AB8B54",
"P  c #A4855A",
"I  c #AA865A",
"U  c #A68A5C",
"Y  c #AC8C5B",
"T  c #B18D54",
"R  c #B28E5C",
"E  c #A69057",
"W  c #AD9154",
"Q  c #AE915B",
"!  c #B29255",
"~  c #B99656",
"^  c #B09850",
"/  c #B99956",
"(  c #B3935C",
")  c #BA955B",
"_  c #B6995C",
"`  c #BC9B5C",
"'  c #BDA25E",
"]  c #A68D61",
"[  c #AC8D62",
"{  c #AF8D6A",
"}  c #B28E61",
"|  c #AD9264",
" . c #AF9967",
".. c #AD946C",
"X. c #B49463",
"o. c #BA9564",
"O. c #B69A64",
"+. c #BA9B64",
"@. c #B5956A",
"#. c #BB966A",
"$. c #B59A6B",
"%. c #BC9C6B",
"&. c #AE9A77",
"*. c #B79B71",
"=. c #BD9D72",
"-. c #BB9A78",
";. c #BEA164",
":. c #B6A16B",
">. c #BDA26C",
",. c #BDA272",
"<. c #BCA37B",
"1. c #B9A579",
"2. c #C09D5E",
"3. c #C2A15D",
"4. c #C19E64",
"5. c #C19D6C",
"6. c #C0976B",
"7. c #C39E73",
"8. c #C89E73",
"9. c #C49E78",
"0. c #C3A364",
"q. c #C9A767",
"w. c #C7A867",
"e. c #CBAA65",
"r. c #C3A36C",
"t. c #C9A56C",
"y. c #C5A96D",
"u. c #CCAB6C",
"i. c #D1AF6F",
"p. c #CBB36E",
"a. c #D3B26E",
"s. c #C4A473",
"d. c #CAA575",
"f. c #C5AA73",
"g. c #CBAB74",
"h. c #C4A57A",
"j. c #CAA57A",
"k. c #C5AA7B",
"l. c #CCAC7B",
"z. c #D1AD73",
"x. c #D1AD7C",
"c. c #CDB176",
"v. c #CEB27C",
"b. c #C7B27B",
"n. c #D2B274",
"m. c #D2B37C",
"M. c #D6B87F",
"N. c #DBBB7B",
"B. c #D9B778",
"V. c #DBC37D",
"C. c #B6A281",
"Z. c #C5A480",
"A. c #C4AC83",
"S. c #CCAD82",
"D. c #C1AC89",
"F. c #CEA988",
"G. c #D2AD82",
"H. c #D8AF81",
"J. c #CDB283",
"K. c #CEB983",
"L. c #CDB38B",
"P. c #D3B483",
"I. c #D9B584",
"U. c #D5BA83",
"Y. c #DBBB85",
"T. c #D4B58A",
"R. c #DCB68B",
"E. c #D6BA8C",
"W. c #DBBB8B",
"Q. c #CBB590",
"!. c #D7B592",
"~. c #D5BC94",
"^. c #DBBD92",
"/. c #DAB490",
"(. c #E1BD8C",
"). c #E3BC93",
"_. c #DFC087",
"`. c #D7C188",
"'. c #DDC18B",
"]. c #D7C294",
"[. c #DDC292",
"{. c #DDC994",
"}. c #DBC298",
"|. c #DFC89F",
" X c #D6C09B",
".X c #E1C384",
"XX c #E2C38D",
"oX c #E7C98F",
"OX c #E2C493",
"+X c #E6CB95",
"@X c #EACC97",
"#X c #E3C49A",
"$X c #E8C79D",
"%X c #E4CB9A",
"&X c #ECCC9A",
"*X c #EBC793",
"=X c #F1D19E",
"-X c #DDC7A2",
";X c #ECCCA3",
":X c #EFCDAA",
">X c #EBD1A5",
",X c #F3D4A8",
/* pixels */
"B.z.d.z.t.o.+.g.+X( @Xl.b.g.OX:.+.g.0.g.+.0.+.m.o.Y.W.s.s.%.+.f.r.r.g.g.r.m.c.S Y.OXh.9.:XZ.C.{ } W.l.&Xr.d.4.t.B.6.W.P.R.;XS.;X",
"Y.z.g.u.0._ ( >.m.+.c.%.U.U.'.f.r.%.Q _ f.m.f.m.;.r.X.( s.x.f.#.g.+.( +.M..XI.Y >.).P.T.:X!.L.F.9.W.+.l.5.z.8.d.d.4.8.%.j.^.#X:X",
"N.n.z.z.r._ W ( S r.+.+.c.>.f.M.+.( S L g.c.g.f._ +.r.%.+.f.m.l.f.+.t ( Y.Y.Y.t.f.XXd.T.:X:X!.Z.h.P.r.s.g.f.g.t.I.*Xx.%.=.j.E.E.",
"t.u.i.u.0.! L W t r.W r.O.O.r.b.! _ r.( g.0.t.>.r.l.XXW.X.Y s.r.+.s.f L g.f.Y.M.r.Y.s.l.G.$XP.h.[.{.f.Y ;.+.R.Y.4.m.l.7.k.k.~.;X",
") 0.e.2.G S D W ^ _ m y.O.c.b._ +.g.Y.y.m.;.s.>.O.( s.l.l.P.m.o.%.P.X.L ` ;.c.f.S m.U.m.#.P.J.OXU.E.b.:.`.c..Xg.U ( l.,.k.A.*.,X",
"e.i.i.2.D D / ;.W D m ;.^ c.c.Q s.B.B.r.m.c.g.t.T K ( f.Y.OXY.%.f.P.5.Z L >.+.T _ f.Y.Y.r.m.l.'.K.U.p.,.@XXXXX+.t.O.P.>.s.$.j |.",
"i.B.a.3.' 3.w.` m W W W ^ :.E ;.0.f.+.W _ t.y.g.P.P.m.l.m.5.( U l.O.f.Y L y.! ! n._ y.` y.m.v.g.%X{.:.N :.c.XX`.Q >.,.,.K.<.] ].",
"2.e.a.i.u.n.w.^ D / W m y.p.m W +.f.W Z t ( r._.f.m.d.r.l.r.X.%.7.P E.s.( l.+.n.u.m W m ( 0.n.`.,.{.U.,.>.:.g.g.k f.X.,.{.K.1.D.",
"e./ B.y N.N.^ ^ > ;.F L w F M ;.+.t.r.Y.t.( K m.f.m.%.r.5.( XXY 7.=.U P.f.r.+.t.S n.w.c.V r.q.M.K.{.b.b._ U _ Y.n.M | b.].].1.L.",
"3.e./ / N.q.` y w ' Q ^ W y.^ _ L _ S W S Y Z +.Y.+.d.L L ( l.P.T.G.I o.Y _ S w S ! m S m n.;.Y.%X>.b.XX:.'.n.r.U.s.>.,.l.J.1.A.",
"e.q.D 2.3.` S w w S ;.` ;.V.E E m._ f +._ c Z W.g.H X.X.l.l.l.s.j.W.%.,.%.g.>.t ! ! F _ +.M._ m.f.k.{.b.O.v.K s.g.XXU.k.T.K.L.E.",
"q.C 3.` / g.d V w.y.oX_.f.b.m M L ;._ L S _ +.r.+.X.d Y m.s.=Xl.j.#XR.s.X.O.+.Z _ g.+.m.m.r.( U.J.U.>.K >.U.f ( M l.#.s.E.A.K.L.",
"` f i.4.q.u.V S L w W r.Q :.% t m ( O.+.n.c.g.s.d y.r.%.s.Y (.l.S.W.k.#.Y Y t.+.+..XO.m.f.Y J.OXK.k.$.r.X.x.g.+.s o.H 7.^.s.<.T.",
"u.q.! A L f S d Q 3 0 f.:.'._ ,.s.3 O V s.S Z t.L g.=XP.P.f.+.X.j.h.#.%.I.l.m.X.g.W.r.I.l.%.[.I.X.`.f.l.+.o.4.g.4.( c 5.E.s.,.L.",
"z.z.w , > t d f t.( d v.M f.E E y.u.( > Y q.g.O.Y.U.Y.+.P.l.r.f.k.7.X.@.W.f.o.& f.f.W.x.@.S.^.j.k.W.K K B.I.x 4.x.L v } %.@.[ <.",
"T T 8 = > g.w ( _ g.L U.& O.W O.d r.m.L +.f.g.Y O.I.%.l.XXQ l.f.l.=.U k k.l.l.k #.K W.U 1 ,.P.P.v.%.r.%.%.I.R I.I.L X.@.@.=.} -.",
") g.) = y ) a.y < e.G w.y _ 2 o.g.+.R.m.s.I.l.s.s.%.P.OXv.f.c.g.f.$.#.Y =.h.X.E.*.K.B <.E 1.J.:.].U ,.,.#.b.d OX=.W.7.h.j.@.S.$X",
"B.z.4.u.i.^ e.e.n 3.n ~ y T 8 L I.d.I.d.d.P.s.=.O.#.S.m.>.>.b.f.g.+.X.,.s.T.@.S.<.:. .:.:.:.M.b.Y.O.K O.s.J.X.J.X.P.k.F.S.{ A.).",
"o.u.4.q.G G 3.a.e.3.G ^ C ` L T (.B.z.5.l.P.#.@.l.S.E.m.>.g.v.>.P.r.%.l.s.J.@...| j 1. .1. .:.:.f.v.H r.v.U.k.$.U S.T.^.L.-.Z.^.",
"t t.) A < n 2./ N.u.3.;.` +.4.! t.z.d.5.l.d.Y X.%.>.r.>.:.;.;.^ Y.s.P.K.s.@...l L. .>XK.{.`.K.`.>.oX>.r.%.g.P.s.P s.T.^.T.Z.A.T.",
"Q t._ n.^ C D / p.0.u.3._ D Y S t.B.d.4.t.+.X.%.s.+.+.l.V.b.p.n.v.s.OXv.k.H =.] =.] ^.,.$.K.f.U.y..XB.( J m.l.l.U @.F.T.A.A.-.-.",
"r.4._ u.4.! 2.p.0.u.n.q.) A V V t.n.t.4._ J +.l.+.Y K +.f.O.W >.+.r.W.l.P.U L.Z.] | ~.K.:.`.,.b.D ` z.2.+.XXY X.,.*.L.L.D.L.1.&.",
"_ %.W m D ! n.0.;.c.0.;.+._ K _ 0.q.2.0.T S y.l.>.s.:.>.>.^ W y.Q f.,.v.P.j.L.L.U  .^.OXh.J.$.r.y D 4.2.4.Y.Z K J.,.~.~.Q.-XC.&.",
"+.0.O.Z ( L r.D ( t.S L +.r.D ;.G ! ! u.! S f.t.Q t.>.E ^ M F y.Q P.U U.k.W.h.h.F.h.E.E.,.X.+.m.D ~ G G x ) L >.S.=.}.~.Q.-XQ.C.",
"t.;.g.Y >.V X.0 f f.D +.r.f >.XXG D ` / w V g.o.>.L s.( ;.W W V.S f.v.J.X.=.*.7.,.h.^.@.X.k.s.z.i.C q.G ! _ l.U.W.h.S.-X~.1.C.C.",
"Q +.N.Y ( K r.L r.s.Z Q t.m.r.0.q.0.` q.w ! Y S +._ >.f K Q ,.{.l.x.l.l.,.j.h.Z.F.S.^.} o.s.f.I.0.~ ` q.T 0.W r.E.{.%X~.~.Q.Q.Q.",
"d M Y.S Z Y O.Q +.X.O.%.r.'.;.;.e.~ / ~ L r.k V Y R f.U O.Q O.b.U.v.P.P.P.*.*.@.S.H.T.H Y I K ) ~ 2.0.N.u.t.M O.%.W.E.A.L.L.D.L.",
"m f Y.O.X.O.U P N U f.l.b.c.c.y.~ y 0.y z.r.K K O.X.s.f.k.d f $.>.>.K.,.h.[ @.@.-.T.j.@.Y J 6 e D G q.e.(.( Z X.$.b.k.S.|.E.A. X",
"W d v.:.Y k 4 N @.U | ,.{.O.U._ ! C i.y B.+.k L j.s.s.@.@.6 N >.| O.,.N X.@.h.{ @.T.7.G.#.d.J J f F ! _ c.S K O.r.l.$.=.W.L.1.J.",
"Q M f.O.j + $ U =.$.N Q m.d y.E C ! 4.T T %.a P @.S.j.H P j =.,.>.f.,.Q s.S.=.u 8.G.#.H.5.x.5.) V ( Z ;.W E L +.%.s.U k X.,.X.[ ",
">.Q :.:.M p z  .l =.| $.| m K ;.y 0.` 2.Z %.Y X.P T.S.U U N k.$.f.K.l.k.S.W.#.g G.-.#.d.7.6.g.c S ;.L ;.N W O.+.:.X.J L O.h.s.$.",
"_ M q K P N P z 4 =.,.k.Q ,.m >.F u.n.+.( #.l.#.@.P.j.[ | k ,.,.k.U.f.k.@.k.h.F.T.[ -.6.j.R W.a L Q O.Q L f v.X.Q e d r.l.r.t.l.",
"( ( d P U U %.z p k.,.b.E p W ,.w.V.L r.U X.k ] F.7.-.@.X.6 +.U.s.U P.J.J.K.L.[ *.S.h.@.*.h.h.-.#.o.8.l.7.X.Y K W.O.f.+.A ! G , ",
"m.X.( X.X.@.| [ [ k.J.K *  .^ p.n..X0.+.X.I I %.=.X.Y %.%.S +.r.X.U E.E.T.,.P.[.T.<.@.] l ] -.T.I.6.6.d.8.#.s.s.X.Y +.T ) 4.G C ",
"W.Y >.r.@.X.l @...=.$.p q :.W :.' e._ _ o.k I { h.-.U %.( K _ r.O.$.P.l.E.S.A.^.=.@.-.@.l z ..Z.x.o.6.R.I.h.,.%.h r.+.w x i.2.2.",
">.V X.r.#.| H [ $.P. .1.:.:.:.:._ ' ` v.m.%.@.{ -.k.#.S.R K L +.O.J.P.$.J.W.s.k.U <.E.h.] { -.[ } b o.l.S.=.X.l | v.s.D T i.~ 2.",
"r.r.5.m.d.$.j.$.U l.U ,.| K K S ' ;.W _.v.m.X.H k @.#.^.f.+.L V K P.T.%.s.S.%.P.h.^.#Xh.] [ @.} 6.o.o.8.5.j.l.%.=.O.+.g.4.t.G 2.",
"g.d.K Y k 7 H u S.T.U.$.E b.E f.;.0.F g.Y %.l 7 g v g %.l.v.r.K #.f.s.l.J.f.P J.h.j.=.%.@.I P -.5.#.#.5.%.,.S.S.X.X.K Z 8 z.2.~ ",
"XXt.Y T c a H P s.$.X.U N f.W y.+.q.+.g.L X.X.k X.H 6 a #.s.m.+.v.f.>.E.U.j.k 7.P X.H P 9.@.P 7.I c I -.[ l P @.@.k.h - 2 B.2.) ",
"+.: 9 d d k g %.Y H & %.c.O.O.>.S ;.n.g.Q U j.[ 7.X.k 9 Y R l.O.o.S.W.OXj.s.I k.} S.I u =.Z.X.-.j.R 6.I.=.k K k.E.J.a R x.m.8 z.",
"c = s f R v k 7 @.%.# L O.K _ E +.t 0.g.>.s W.Y -.o.a O.%.h O.} Z O.r.P.l.Y X.O.X.k.#.g @.l.-.R.d.o.k k S.E.| k %.P.E.s.r.%.A Y ",
"A Z A R o.X.7 a s.[ L H U.W O.S y.` +.s.f.+.Y.%.f.%.L #.O.k Y R k s.l.x.l.%.%.K #.h.@.g 6.h.X.l.s.P.W.l.%.$.$.<.,.J.l.,.l.m.) ! ",
"8 A s A } ) - v d.%.+.%.s.g.L ( M.m._ r.f.g.s.s.s.s.#.+.O.Y X.X.f X.%.d.g.t.7.J (.G.7.H R.T.%.7.x.s.%.%.,.k.<.| ] $.$.%.x.I.f.r.",
"2.4.T T R R 6 Y d.f.+.r.( y.W y.'.f.( r.s.r.r.m.O.+.s.$.#.s.O.O.J L T l.l.X.o.X.P.s.d.U l.@.[ 8.x.s.l.s.U U | P U ,.=.<.k.l.I.P.",
") r A s A c c L m.f.4.k ( d 0.g..XY +.v.r.L s.Y.+.%.s.+.%.k.X.H %.+.o.x.g.R o.5.#.5.P.#.o.v I R.X.T =.>.P N | ] | $.] $.O.X.s.#.",
"4.C t.6.t.6.G.z.R.l.L c A t _ c.XXY f.v.( w W l.d.f.s.5.s.7.U e R 4.+.5.5.5.l.5.d.5.8.#.%.6.o.G.(.s.%.l.].%X~.k.] ] j [ } [ s.K ",
"z.4.t.2.T c c o.(.4.f +.Y r.S n.Y.r.+.+.V c d s.+.f.#.s.d.=.7.c R +.) 4.t.r.x.t.x.o.c R I d.h h I.v.s.>.,.@.] ] ] ..| A.=.X.G.@.",
"A 6.T c 9 s 8 x.(.f +.! Y.M.Y m.r.n.Y L H f.V .XS >.L f.l.s.W.s.m.%.R x.I.5.5.8.l.j.} 7.c #.7 9 f.g.%.#.k.=.@.k.p  .$.l.H 1 } K ",
"R W.} f.%.L _ 0.0.F ` ! u.t.x.m.m.T o.r.J ! 0.T L m.T c %.+.Y U l.f.L W.} %.d.G.H.x.8.8.h b H.i o.x 6.d.8.8.b 8.8.x.R Y ( T +.! ",
"i T.P.s.L ;.+.' ! ! u.S ! t.Y.R.( %.m.+.s.S S f ! M.r.L +.+.+.o.m.l.[ P.O.s.s.P.8.H.F./.H.8.8.v J = x R z.).8.8.o.8.R A T T _ ` ",
"z B *.K.v.f.S 0.V / g.L ) z.4.f X.&XXX) d.( S 0.L n.c.0.o.%.g.%.P.l.O.l.#.f.X.S.9.#.8.).Z.8.H.v x.2.T x c 6.6.x.8.j.8.c w 8 , w ",
"X u a p d Y S d r.g.c.D L +.R T 6 XXx.P.t.m.y Y D +.u.g.4.+.P.d.m.g.s.7.O.7.h s.6.R.6.6./.8.} R.R c 6.6.b 6.6.8.b T 8.R T 4.^ n.",
"$ U N j 6 0 r.+.L ) d.r.L s s I.%.I.R X.Z n.0.n.+.L ) m.r.#.W.W.r.s.f.7.#.%.g %.#.[ 8.j.6.b } 6.x.6.T x i b b R #.8.I.r.o.! f ` ",
"* p a $.O.5 X.M 3 d Y d.6.c 1 8.h.X.%.4.d.f.m.+.u._ L r._ Y P.W.O.#.r.s.%.%.Y 5.} j.#.J { i   v 9 r 6.8.6.6.6.6.a c R Y Y S f _ ",
"+ j |  .h.l.l.O X.L 9 f Y #.c j.l.c k e ( c +.g.g.t.+.+.J c #.%.O.X.X.%.s.%.j.%.I.6.j.7.} b i v 6.6.8.8.b x 6.8.H Y v L Y S W +.",
"$   j k [ U ( h a k ; @ i #.c #.X.c a J _ c Z g.t.Y.m.r.R H U M %.X.K #.5.%.P.} } b #.6.8.8.b #.8.} I 8.8.R 6.6.s.l.K L L d ( +.",
"o   5 U K U X.[ H a 7 g 9 i } } v ; #.%.! s c f m.l.Y.5.X.X.J k.l.H %.c #.%.#XY #.o.#.I H.9.#.} G.I ).6.h #.R f.j.W.f.s.r.K X.m.",
"Q O.:.Y a [ s.[   $ v 7.} h c i k a I 5.J r.T ( +.4.( R Y v } s.,.Z %.X.X.Y I.d.7.7.o.} G.j.9.8.#.8.[ v 8.x.8.P.t.(.s.( Y K Q %.",
"t M E Q X.P.j.a o 7 ; g } R o.R X.X.} X.L r.Z k Y 4.k Z H s %.h.'.Q Y f.%.| s.j.j.G.#.#.9.G.j./.9.#.[ j.@.s.=XL l.Y.Y 5 j U O.K ",
"p.E L O.%.l.f.k g H ; 7 Y 5.6.o.U I 7.J =.+.R L _ s.T U I v %.h.,X%.L l.s.s.@.s.G.G.7.d.#.G.9.H.{ ).9.h.s.} s.H e X.O.X.%.%.U 4 ",
"p.;.;.;.K Q +.L [ j.I a c c T X.[ I s.Y %.Y ( d.X.+.g.%.6.7.} s.OXl.+.Y.5.s.#.l.8.j.7.j.#.9.6.9.{ F.F.6.#.X.#.X.f X.O.Q k j $.>.",
"M F ^ m 0 K X.a Y %.} R J s c x o.{ X.#.h Y L m.J L f.8.j.P.[ X.OXP.%.P.f.s.Y X.8.8.j.G.6.8.9.9./.b 9.9.H l.I.%.( ( | %.X.| =.| ",
"V.' F q 1 Z X.H a H } l.4.c t - v v I [ 9 +.r.m.Y Y T } k.P.%.| XXl.%.P.R.f.I } j.6.x.9.9.9.H.9.F.Z.#.{ k.x.} f.'.r.H K P X.J.*.",
"V.^ ' ' W V Q o.O.@.%.o.6 . s T O.b f.I J o.f.L t.r.i k 7.Z.H.@.%.+.s.#XW.#.X.W.j.} 9.#.6.#.F.6.6.b { Z.#.[ O.K O.r.b.k.E U A.*."
};
