/* XPM */
static char * coin_1_xpm[] = {
"32 32 908 2",
"  	c #60A33B",
". 	c #6FB14D",
"+ 	c #75B656",
"@ 	c #69AA4D",
"# 	c #5EA041",
"$ 	c #5EA03C",
"% 	c #65A93D",
"& 	c #7CC051",
"* 	c #64A839",
"= 	c #71B44A",
"- 	c #65A83F",
"; 	c #5EA13B",
"> 	c #68AA45",
", 	c #6EB048",
"' 	c #64A73C",
") 	c #72B547",
"! 	c #65A438",
"~ 	c #7CBA4E",
"{ 	c #71B047",
"] 	c #6BAD48",
"^ 	c #73B654",
"/ 	c #6AB04F",
"( 	c #5BA244",
"_ 	c #5AA142",
": 	c #62A335",
"< 	c #7DBD4D",
"[ 	c #6FB242",
"} 	c #6AAE3F",
"| 	c #6FB346",
"1 	c #5CA134",
"2 	c #5FA73B",
"3 	c #6DB549",
"4 	c #5EA232",
"5 	c #63A63B",
"6 	c #6CAE47",
"7 	c #6AAC46",
"8 	c #69AC43",
"9 	c #6FB245",
"0 	c #6FB441",
"a 	c #77BC47",
"b 	c #6FB342",
"c 	c #74B849",
"d 	c #6DB045",
"e 	c #73B64D",
"f 	c #72B54D",
"g 	c #63A63C",
"h 	c #69AD3F",
"i 	c #7DC04F",
"j 	c #7ABA46",
"k 	c #72B23F",
"l 	c #66A737",
"m 	c #62A538",
"n 	c #67AB3F",
"o 	c #69AF46",
"p 	c #63AA43",
"q 	c #6AB149",
"r 	c #70B141",
"s 	c #7ABA4A",
"t 	c #72B544",
"u 	c #6FB344",
"v 	c #71B548",
"w 	c #6FB448",
"x 	c #70B84C",
"y 	c #64AC40",
"z 	c #6DB13D",
"A 	c #67AC39",
"B 	c #6DB141",
"C 	c #69AD3D",
"D 	c #6CB03F",
"E 	c #79BD49",
"F 	c #75BB42",
"G 	c #72B83D",
"H 	c #6EB33E",
"I 	c #74B946",
"J 	c #73B748",
"K 	c #77BB50",
"L 	c #69AC3D",
"M 	c #70B441",
"N 	c #78BB47",
"O 	c #82C34A",
"P 	c #72B33B",
"Q 	c #6BAF38",
"R 	c #6BAF3A",
"S 	c #68AD3A",
"T 	c #6BB140",
"U 	c #65AC3E",
"V 	c #74BB4B",
"W 	c #77B948",
"X 	c #76B646",
"Y 	c #6EB141",
"Z 	c #73B74A",
"` 	c #76BB4E",
" .	c #66AE42",
"..	c #80C456",
"+.	c #79BC4E",
"@.	c #77BB4D",
"#.	c #67AA3C",
"$.	c #67AB3B",
"%.	c #77BB49",
"&.	c #74B945",
"*.	c #6EB43D",
"=.	c #62A730",
"-.	c #73B844",
";.	c #79B847",
">.	c #B2B83B",
",.	c #DDC636",
"'.	c #E8CB39",
").	c #E7C741",
"!.	c #DAB034",
"~.	c #D19E27",
"{.	c #D4A02A",
"].	c #C4A733",
"^.	c #A2B746",
"/.	c #77BA4A",
"(.	c #6FB345",
"_.	c #61A539",
":.	c #75B645",
"<.	c #73B343",
"[.	c #66A938",
"}.	c #6AAD3F",
"|.	c #6CB144",
"1.	c #60A83C",
"2.	c #72B94E",
"3.	c #64A644",
"4.	c #70B34F",
"5.	c #76B954",
"6.	c #66A841",
"7.	c #6EB149",
"8.	c #81C45A",
"9.	c #70B44A",
"0.	c #66A93E",
"a.	c #78BD48",
"b.	c #84BE47",
"c.	c #DEC737",
"d.	c #FDD632",
"e.	c #FFD733",
"f.	c #FED732",
"g.	c #FFD833",
"h.	c #FED53A",
"i.	c #F6CA3C",
"j.	c #F2B431",
"k.	c #F4B224",
"l.	c #EEAD23",
"m.	c #C3B43E",
"n.	c #75B34C",
"o.	c #5FA13C",
"p.	c #82C35E",
"q.	c #79B94A",
"r.	c #67A738",
"s.	c #73B645",
"t.	c #79BD4F",
"u.	c #5FA438",
"v.	c #5DA539",
"w.	c #6FB74B",
"x.	c #5FA044",
"y.	c #67A849",
"z.	c #6AAC4A",
"A.	c #65A841",
"B.	c #6CAF47",
"C.	c #74B64F",
"D.	c #69AB47",
"E.	c #6DB04B",
"F.	c #8BC04B",
"G.	c #E9CD35",
"H.	c #FED035",
"I.	c #FEC322",
"J.	c #FABF1A",
"K.	c #FABE19",
"L.	c #F9BD1B",
"M.	c #FAC82B",
"N.	c #FFD339",
"O.	c #FDDA7F",
"P.	c #FBC833",
"Q.	c #FBC426",
"R.	c #F8C027",
"S.	c #D6B734",
"T.	c #6CA442",
"U.	c #79B753",
"V.	c #6DAD3E",
"W.	c #6BAB3B",
"X.	c #77BA49",
"Y.	c #73B648",
"Z.	c #6CB044",
"`.	c #6FB447",
" +	c #65AC40",
".+	c #5C9E3D",
"++	c #64A641",
"@+	c #65A83E",
"#+	c #6DB140",
"$+	c #61A535",
"%+	c #69AC41",
"&+	c #78BA51",
"*+	c #DAC73E",
"=+	c #FDD731",
"-+	c #F5B91B",
";+	c #FAC41F",
">+	c #FDD12B",
",+	c #FED32C",
"'+	c #FFCF2A",
")+	c #FAC21E",
"!+	c #FAC024",
"~+	c #FCD149",
"{+	c #FAD675",
"]+	c #FCC926",
"^+	c #FCC327",
"/+	c #FEC428",
"(+	c #C1B93C",
"_+	c #69A73D",
":+	c #69A838",
"<+	c #75B545",
"[+	c #7BBE4D",
"}+	c #68AC3D",
"|+	c #68AB3F",
"1+	c #7BC053",
"2+	c #6BB246",
"3+	c #5EA63A",
"4+	c #60A43B",
"5+	c #7BBF54",
"6+	c #7CC14F",
"7+	c #7FC54D",
"8+	c #66AB36",
"9+	c #78BC4B",
"0+	c #A0BB44",
"a+	c #FECE35",
"b+	c #F5BD1F",
"c+	c #FBC924",
"d+	c #FFD832",
"e+	c #FFD731",
"f+	c #FFD732",
"g+	c #FCBF1F",
"h+	c #FBC028",
"i+	c #FDD13F",
"j+	c #F9C32F",
"k+	c #F8BA27",
"l+	c #F8BB27",
"m+	c #F3BB2B",
"n+	c #7CA531",
"o+	c #74B544",
"p+	c #76B848",
"q+	c #76B948",
"r+	c #6AAD3E",
"s+	c #66A93B",
"t+	c #70B546",
"u+	c #62A73A",
"v+	c #67AC3F",
"w+	c #5BA339",
"x+	c #64AC41",
"y+	c #66AF3F",
"z+	c #77BF4E",
"A+	c #73BA4A",
"B+	c #5DA336",
"C+	c #65A941",
"D+	c #E4C73C",
"E+	c #FCC62C",
"F+	c #FAC322",
"G+	c #FFD631",
"H+	c #FDD531",
"I+	c #FED730",
"J+	c #FED731",
"K+	c #F6B81C",
"L+	c #FCC72E",
"M+	c #F9C43B",
"N+	c #F6B427",
"O+	c #F6B426",
"P+	c #F8B727",
"Q+	c #C1AD33",
"R+	c #5FA43A",
"S+	c #6EB245",
"T+	c #74B846",
"U+	c #74B640",
"V+	c #6FB039",
"W+	c #6EAC36",
"X+	c #82BE48",
"Y+	c #7DB844",
"Z+	c #67AF44",
"`+	c #6BB347",
" @	c #63AB3C",
".@	c #65AD3D",
"+@	c #6AB041",
"@@	c #6BB045",
"#@	c #87B243",
"$@	c #FCD033",
"%@	c #FAB91E",
"&@	c #FFD530",
"*@	c #FFD630",
"=@	c #FED12F",
"-@	c #F8BC1F",
";@	c #FED631",
">@	c #FACB2D",
",@	c #F8B420",
"'@	c #FCC736",
")@	c #F4B325",
"!@	c #F5B326",
"~@	c #F7B629",
"{@	c #E4B32F",
"]@	c #6AAF46",
"^@	c #65AD41",
"/@	c #74BB49",
"(@	c #70B23B",
"_@	c #6BAA34",
":@	c #82BF4B",
"<@	c #7EBA47",
"[@	c #75BA4A",
"}@	c #68AE3D",
"|@	c #61A734",
"1@	c #68AE3C",
"2@	c #71B74A",
"3@	c #BDBC3D",
"4@	c #FDD12C",
"5@	c #F9C122",
"6@	c #FFD632",
"7@	c #FED230",
"8@	c #FBC327",
"9@	c #FFD233",
"0@	c #FFD430",
"a@	c #FFD232",
"b@	c #FFD036",
"c@	c #F8B21F",
"d@	c #FCC432",
"e@	c #F4B62C",
"f@	c #F3B022",
"g@	c #F3B123",
"h@	c #F2B125",
"i@	c #84B349",
"j@	c #5AA53C",
"k@	c #6CB547",
"l@	c #76BE4A",
"m@	c #70B540",
"n@	c #6CAF3B",
"o@	c #7ABB48",
"p@	c #75B442",
"q@	c #7CBF4E",
"r@	c #7ABD4A",
"s@	c #72B742",
"t@	c #6DB23D",
"u@	c #6EB340",
"v@	c #6CB143",
"w@	c #DDC337",
"x@	c #FBC226",
"y@	c #FCD028",
"z@	c #FFD331",
"A@	c #FFD433",
"B@	c #FAC52F",
"C@	c #FECD32",
"D@	c #FFD031",
"E@	c #FFCE32",
"F@	c #FEC933",
"G@	c #FCBD2A",
"H@	c #FCBB27",
"I@	c #F6BB34",
"J@	c #F0AB20",
"K@	c #F0AC21",
"L@	c #AFAD3B",
"M@	c #53A138",
"N@	c #5FAA3F",
"O@	c #6FB847",
"P@	c #75BD49",
"Q@	c #79BE4A",
"R@	c #6FAF40",
"S@	c #6FAE39",
"T@	c #7FBF48",
"U@	c #86C850",
"V@	c #78BC44",
"W@	c #68AE3F",
"X@	c #EDCA39",
"Y@	c #FCB51E",
"Z@	c #FFD72E",
"`@	c #FFD533",
" #	c #F8C72C",
".#	c #FED033",
"+#	c #FFD033",
"@#	c #F7B925",
"##	c #FFCB32",
"$#	c #FECA32",
"%#	c #F8C12E",
"&#	c #FEC731",
"*#	c #FDC12E",
"=#	c #F7B120",
"-#	c #F9BE35",
";#	c #EEA721",
">#	c #EDA31F",
",#	c #EEA720",
"'#	c #C8AA33",
")#	c #66B44B",
"!#	c #69B549",
"~#	c #6FB947",
"{#	c #6CB441",
"]#	c #65AA37",
"^#	c #7EC04F",
"/#	c #78B849",
"(#	c #75B139",
"_#	c #80BE43",
":#	c #87C74C",
"<#	c #82C449",
"[#	c #76BA43",
"}#	c #6DAF3E",
"|#	c #F8CA32",
"1#	c #FDB919",
"2#	c #FED432",
"3#	c #F8C11F",
"4#	c #FFD133",
"5#	c #FDC72D",
"6#	c #F7AE18",
"7#	c #FFC831",
"8#	c #FEC32F",
"9#	c #F6AB19",
"0#	c #FFC531",
"a#	c #FFC331",
"b#	c #F7AA1F",
"c#	c #FBC436",
"d#	c #E99F1D",
"e#	c #E89A1B",
"f#	c #EBA11D",
"g#	c #D9A62B",
"h#	c #62AE44",
"i#	c #6BB546",
"j#	c #6EB13D",
"k#	c #85C553",
"l#	c #77B644",
"m#	c #82BC41",
"n#	c #85C143",
"o#	c #84C244",
"p#	c #81C346",
"q#	c #79BD44",
"r#	c #7CAF39",
"s#	c #FCCB32",
"t#	c #F9BE1F",
"u#	c #FFD134",
"v#	c #FCCB34",
"w#	c #FDCE32",
"x#	c #F9BC29",
"y#	c #F5A716",
"z#	c #FEC534",
"A#	c #F8B72D",
"B#	c #FCBF30",
"C#	c #FEC330",
"D#	c #FDC233",
"E#	c #F5A51D",
"F#	c #FCC138",
"G#	c #E6981D",
"H#	c #E3981D",
"I#	c #E99E1D",
"J#	c #E09D22",
"K#	c #6AAC3F",
"L#	c #69AF3E",
"M#	c #78BC47",
"N#	c #7EC048",
"O#	c #7CBB45",
"P#	c #86C24E",
"Q#	c #77B340",
"R#	c #8EC748",
"S#	c #8BC646",
"T#	c #7FBC3B",
"U#	c #78B83A",
"V#	c #6EB136",
"W#	c #80A930",
"X#	c #FBC830",
"Y#	c #FAC121",
"Z#	c #FDCB32",
"`#	c #F7BA24",
" $	c #F7AF26",
".$	c #F39E17",
"+$	c #F9BB2D",
"@$	c #F3A722",
"#$	c #FFC032",
"$$	c #FFC130",
"%$	c #FEC331",
"&$	c #F6A81C",
"*$	c #F9B12A",
"=$	c #E09119",
"-$	c #E2931A",
";$	c #E3931A",
">$	c #DB9720",
",$	c #7AB84B",
"'$	c #66AB39",
")$	c #73B53E",
"!$	c #82C24A",
"~$	c #78B63D",
"{$	c #7BB63E",
"]$	c #88C24C",
"^$	c #8FC841",
"/$	c #8BC63F",
"($	c #8AC742",
"_$	c #83C441",
":$	c #76B93A",
"<$	c #84AD2D",
"[$	c #FBBE2B",
"}$	c #FAB71F",
"|$	c #FDC72B",
"1$	c #FECC33",
"2$	c #F7AF17",
"3$	c #F8A814",
"4$	c #F6A412",
"5$	c #F5A112",
"6$	c #FAB027",
"7$	c #FFC031",
"8$	c #F6A71F",
"9$	c #F9A81F",
"0$	c #E18F18",
"a$	c #E08E1A",
"b$	c #E08F1A",
"c$	c #DA9220",
"d$	c #84C054",
"e$	c #6AAE40",
"f$	c #6CAF3D",
"g$	c #74B540",
"h$	c #6FB036",
"i$	c #83C347",
"j$	c #7FBF42",
"k$	c #8CC447",
"l$	c #7EB73A",
"m$	c #78B43A",
"n$	c #81BF48",
"o$	c #79BB47",
"p$	c #7EA836",
"q$	c #F7AC1E",
"r$	c #F7A91B",
"s$	c #FAB61D",
"t$	c #FBB61E",
"u$	c #FDBF27",
"v$	c #F9B116",
"w$	c #F8AB11",
"x$	c #F6A510",
"y$	c #F6A40F",
"z$	c #FDBB2A",
"A$	c #FFBF33",
"B$	c #FEBE2E",
"C$	c #FAB423",
"D$	c #F39E1D",
"E$	c #FAA71F",
"F$	c #DE8A1F",
"G$	c #DF8F1A",
"H$	c #D88F20",
"I$	c #74B046",
"J$	c #69AC3B",
"K$	c #6DAE3A",
"L$	c #79BA42",
"M$	c #7EBE44",
"N$	c #79B93E",
"O$	c #89C24E",
"P$	c #6BA533",
"Q$	c #66A233",
"R$	c #7AB74C",
"S$	c #77B750",
"T$	c #74A641",
"U$	c #F5AB21",
"V$	c #F2A018",
"W$	c #FCAF1D",
"X$	c #FBB01C",
"Y$	c #FBB51D",
"Z$	c #F6A717",
"`$	c #F7A513",
" %	c #F7A212",
".%	c #F79F11",
"+%	c #FDB528",
"@%	c #FBAF24",
"#%	c #FBAB1F",
"$%	c #FAA81B",
"%%	c #F19E18",
"&%	c #F6A31F",
"*%	c #DA861E",
"=%	c #DF8C1C",
"-%	c #DE8B1C",
";%	c #CD8D25",
">%	c #60A239",
",%	c #6FB248",
"'%	c #6FB145",
")%	c #70B041",
"!%	c #7FBF4E",
"~%	c #75B441",
"{%	c #75B43F",
"]%	c #7DB947",
"^%	c #69A634",
"/%	c #72B041",
"(%	c #7AB94E",
"_%	c #6EAE48",
":%	c #65A643",
"<%	c #EEA827",
"[%	c #F29F18",
"}%	c #FBAA1D",
"|%	c #FBAB1C",
"1%	c #FBB21C",
"2%	c #F8AB1B",
"3%	c #F19C13",
"4%	c #F29A14",
"5%	c #F29A13",
"6%	c #FBAA1C",
"7%	c #F8A71D",
"8%	c #F3A01A",
"9%	c #F29F20",
"0%	c #D8801E",
"a%	c #DB841F",
"b%	c #DB851E",
"c%	c #C2912E",
"d%	c #64A73E",
"e%	c #6CAF46",
"f%	c #76B84E",
"g%	c #7EBE52",
"h%	c #7EBE50",
"i%	c #66A435",
"j%	c #65A333",
"k%	c #7BBC46",
"l%	c #7EC04A",
"m%	c #71B346",
"n%	c #67AB40",
"o%	c #D8A82A",
"p%	c #F5A11A",
"q%	c #FAA61D",
"r%	c #FBAD1C",
"s%	c #F9AB1D",
"t%	c #F4AD25",
"u%	c #F8AB20",
"v%	c #FAA81D",
"w%	c #FBA91C",
"x%	c #F7A31B",
"y%	c #EC9620",
"z%	c #D77C20",
"A%	c #DA811F",
"B%	c #DB841E",
"C%	c #AC9632",
"D%	c #6CAF45",
"E%	c #74B74D",
"F%	c #77B94E",
"G%	c #76B54B",
"H%	c #6DAC40",
"I%	c #79B74A",
"J%	c #6BAF3D",
"K%	c #79BD4B",
"L%	c #79BD4A",
"M%	c #6CB13D",
"N%	c #68AC39",
"O%	c #62A632",
"P%	c #C3A82B",
"Q%	c #F7A71D",
"R%	c #F6A119",
"S%	c #FAAA1D",
"T%	c #FBA81D",
"U%	c #F29A19",
"V%	c #E18920",
"W%	c #D77D20",
"X%	c #D87F21",
"Y%	c #889A33",
"Z%	c #77BB4C",
"`%	c #71B546",
" &	c #6FB144",
".&	c #71B143",
"+&	c #66A538",
"@&	c #6FAD40",
"#&	c #5EA23D",
"$&	c #6BB048",
"%&	c #70B44B",
"&&	c #66AB3E",
"*&	c #60A434",
"=&	c #65A936",
"-&	c #94AD35",
";&	c #F8AB1E",
">&	c #F29C16",
",&	c #F9A41D",
"'&	c #F39F1C",
")&	c #F7A721",
"!&	c #D87E1E",
"~&	c #D77B21",
"{&	c #D08125",
"]&	c #6CA936",
"^&	c #6FB440",
"/&	c #6DB03D",
"(&	c #73B342",
"_&	c #67A736",
":&	c #6CAA3B",
"<&	c #5CA144",
"[&	c #5CA041",
"}&	c #66A946",
"|&	c #68AC44",
"1&	c #6CAF44",
"2&	c #78BC4D",
"3&	c #78B947",
"4&	c #E1AE2B",
"5&	c #F6A41D",
"6&	c #F7A41A",
"7&	c #FAA91C",
"8&	c #FBA91D",
"9&	c #F0981C",
"0&	c #EE9A1F",
"a&	c #D77B20",
"b&	c #B99B2F",
"c&	c #78BF46",
"d&	c #75BB45",
"e&	c #74BA44",
"f&	c #75B844",
"g&	c #77B845",
"h&	c #7BBB49",
"i&	c #7FBE4D",
"j&	c #66A434",
"k&	c #7ABF4C",
"l&	c #73B845",
"m&	c #68AD3C",
"n&	c #75B94B",
"o&	c #A5B13E",
"p&	c #F9AA20",
"q&	c #F29E16",
"r&	c #F9A81A",
"s&	c #FAAA1C",
"t&	c #FBAA1E",
"u&	c #F39F1A",
"v&	c #FBA823",
"w&	c #DD8421",
"x&	c #D87B20",
"y&	c #D57F21",
"z&	c #84B33D",
"A&	c #70B946",
"B&	c #6FB846",
"C&	c #66AD3C",
"D&	c #69AE3D",
"E&	c #74B747",
"F&	c #75B546",
"G&	c #6EAC3E",
"H&	c #74B144",
"I&	c #75BA46",
"J&	c #6AAE3D",
"K&	c #7CC04F",
"L&	c #70B444",
"M&	c #6CAE3F",
"N&	c #DCAB2C",
"O&	c #F9A920",
"P&	c #F39E16",
"Q&	c #F9A41B",
"R&	c #FCAA1E",
"S&	c #FCAA1D",
"T&	c #FBA91E",
"U&	c #F39E19",
"V&	c #EF9A1B",
"W&	c #FBA91F",
"X&	c #EF9E1F",
"Y&	c #D77C21",
"Z&	c #D87B21",
"`&	c #A6912D",
" *	c #7BBC4F",
".*	c #75BB4B",
"+*	c #6BB242",
"@*	c #69AE3F",
"#*	c #72B647",
"$*	c #61A335",
"%*	c #78B94B",
"&*	c #5EA134",
"**	c #6DB142",
"=*	c #67AB3A",
"-*	c #7BC04D",
";*	c #6DB23E",
">*	c #8EBE49",
",*	c #EDAB26",
"'*	c #FBAB1D",
")*	c #F4A31D",
"!*	c #F29B15",
"~*	c #F39C16",
"{*	c #EF9913",
"]*	c #F2A01B",
"^*	c #F9AA21",
"/*	c #F5A121",
"(*	c #DA7C20",
"_*	c #BC9033",
":*	c #69A744",
"<*	c #7EBE59",
"[*	c #74B549",
"}*	c #65A739",
"|*	c #77B94C",
"1*	c #7ABE4F",
"2*	c #63A839",
"3*	c #64AA3A",
"4*	c #69B040",
"5*	c #5DA037",
"6*	c #5FA238",
"7*	c #66AA3D",
"8*	c #6AAE3E",
"9*	c #66AA38",
"0*	c #65AA36",
"a*	c #74B944",
"b*	c #76B945",
"c*	c #86A733",
"d*	c #E8AC28",
"e*	c #FDAE25",
"f*	c #FBB028",
"g*	c #FBB126",
"h*	c #FAAB20",
"i*	c #F3A020",
"j*	c #DB8322",
"k*	c #B88D2D",
"l*	c #6AA53F",
"m*	c #66A943",
"n*	c #68AA43",
"o*	c #65A337",
"p*	c #73B144",
"q*	c #7BBB4E",
"r*	c #6BAE3F",
"s*	c #7BC353",
"t*	c #6CB545",
"u*	c #5CA836",
"v*	c #5EA13A",
"w*	c #76B951",
"x*	c #76B950",
"y*	c #7BBF53",
"z*	c #70B446",
"A*	c #65A938",
"B*	c #73B744",
"C*	c #63A533",
"D*	c #7AB345",
"E*	c #B7AC36",
"F*	c #E4A924",
"G*	c #F1A921",
"H*	c #F0A526",
"I*	c #E19722",
"J*	c #CF8828",
"K*	c #C88D2D",
"L*	c #B9912B",
"M*	c #92A63C",
"N*	c #7ABC4E",
"O*	c #63A638",
"P*	c #73B044",
"Q*	c #77B649",
"R*	c #69AC3E",
"S*	c #66AA3B",
"T*	c #6FB747",
"U*	c #60A939",
"V*	c #61AD3B",
"W*	c #5FA239",
"X*	c #74B64D",
"Y*	c #75B84E",
"Z*	c #75B84C",
"`*	c #5FA336",
" =	c #6EB244",
".=	c #73B747",
"+=	c #76B946",
"@=	c #68AB38",
"#=	c #6CAE40",
"$=	c #6BAD41",
"%=	c #70B246",
"&=	c #77B344",
"*=	c #7BB544",
"==	c #77B440",
"-=	c #6AAF3A",
";=	c #76BD47",
">=	c #69B03A",
",=	c #6AB03B",
"'=	c #74BA45",
")=	c #75BC46",
"!=	c #7DC44E",
"~=	c #5FA631",
"{=	c #6BAC3E",
"]=	c #74B648",
"^=	c #76B84A",
"/=	c #6EB243",
"(=	c #65A93A",
"_=	c #6CB142",
":=	c #6EB545",
"<=	c #5FA335",
"[=	c #69AC40",
"}=	c #75B84F",
"|=	c #72B54B",
"1=	c #67AA41",
"2=	c #77BA47",
"3=	c #76B947",
"4=	c #67A93C",
"5=	c #74B64B",
"6=	c #80C256",
"7=	c #70B243",
"8=	c #6BAE3C",
"9=	c #63AA36",
"0=	c #77BF4B",
"a=	c #6EB643",
"b=	c #64AD39",
"c=	c #65AE3A",
"d=	c #6BB340",
"e=	c #77C04C",
"f=	c #63AC38",
"g=	c #5FA636",
"h=	c #6AB040",
"i=	c #76BB4C",
"j=	c #75B94A",
"k=	c #7FC153",
"l=	c #7ABB4D",
"m=	c #75B948",
"n=	c #65A93B",
"o=	c #5EA135",
"p=	c #72B54E",
"q=	c #6EB14C",
"r=	c #7FC14F",
"s=	c #78BB48",
"t=	c #67A93B",
"u=	c #6DAE43",
"v=	c #77B94D",
"w=	c #75B848",
"x=	c #70B341",
"y=	c #64A835",
"z=	c #6DB446",
"A=	c #71B94C",
"B=	c #72BA4D",
"C=	c #70B84B",
"D=	c #69B144",
"E=	c #5BA336",
"F=	c #61A93C",
"G=	c #6EB649",
"H=	c #6EB848",
"I=	c #5FA938",
"J=	c #72B94A",
"K=	c #7BC051",
"L=	c #6DAF41",
"M=	c #69A93C",
"N=	c #7BB94C",
"O=	c #79B549",
"  . + @ # $ % & * = - ; > , ' ) ! ~ { ] ^ / ( _ : < [ } | 1 2 3 ",
"4 5 6 7 8 9 0 a b c d e f g h i j k l m n o p q r s t u v w x y ",
"z A B C D E F G H I J K = L M N O P Q R S T U V W X Y u Z ` x  .",
"..+.@.#.$.%.&.*.=.-.;.>.,.'.).!.~.{.].^./.(._.Z :.<.[.}.Z |.1.2.",
"3.4.5.6.7.8.9.0.a.b.c.d.e.f.g.h.i.j.k.l.m.n.o.p.q.r.s.t.| u.v.w.",
"x.y.z.A.B.C.D.E.F.G.H.I.J.K.L.M.N.O.P.Q.R.S.T.U.V.W.X.Y.Z.`. +y ",
".+++@+u #+$+%+&+*+=+-+;+>+,+'+)+!+~+{+]+^+/+(+_+:+<+[+}+|+1+2+3+",
"4+5+6+7+F 8+9+0+a+b+c+d+e+e+f+d+g+h+i+j+k+l+m+n+o+p+q+r+s+t+u+v+",
"w+x+y+z+A+B+C+D+E+F+g.G+f+H+I+G+J+K+L+M+N+O+P+Q+R+S+T+U+V+W+X+Y+",
"Z+`+ @.@+@@@#@$@%@&@*@*@=@-@J+*@;@>@,@'@)@!@~@{@]@^@/@a.(@_@:@<@",
"` [@}@|@1@2@3@4@5@6@G+&@7@8@9@0@a@b@c@d@e@f@g@h@i@j@k@l@m@n@o@p@",
"q@r@s@t@u@v@w@x@y@*@G+z@A@B@C@D@E@F@G@H@I@J@K@K@L@M@N@O@P@Q@q+R@",
"S@T@U@V@H W@X@Y@Z@`@ #.#+#@###$#%#&#*#=#-#;#>#,#'#)#!#~#{#]#^#/#",
"(#_#:#<#[#}#|#1#`@2#3#4#5#6#7#8#9#0#a#b#c#d#e#f#g#h#i#P@&.j#k#l#",
"m#n#o#p#q#r#s#t#A@u#v#w#x#y#z#A#B#C#D#E#F#G#H#I#J#K#L#M#N#O#P#Q#",
"R#S#T#U#V#W#X#Y#+#+#Z#`# $.$+$@$#$$$%$&$*$=$-$;$>$,$'$)$!$~${$]$",
"^$/$($_$:$<$[$}$|$##1$2$3$4$5$6$7$$$C#8$9$0$a$b$c$d$e$f$g$h$i$j$",
"k$l$m$n$o$p$q$r$s$t$u$v$w$x$y$z$A$B$C$D$E$F$G$b$H$I$| J$K$L$M$N$",
"O$P$Q$R$S$T$U$V$W$X$Y$Z$`$ %.%+%@%#%$%%%&%*%=%-%;%>%,%'%)%!%~%{%",
"]%^%/%(%_%:%<%[%}%|%1%2%3%4%5%6%6%6%7%8%9%0%a%b%c%d%e%f%g%h%i%j%",
"k%l%o@W m%n%o%p%q%6%r%s%t%u%v%w%w%6%p%x%y%z%A%B%C%D%E%F%G%H%I%I%",
"J%K%L%M%N%O%P%Q%R%6%w%S%T%T%w%w%6%w%U%#%V%z%W%X%Y%Z%`% &.&+&@&I%",
"#&$&%&&&*&=&-&;&>&}%w%6%w%w%6%w%6%,&'&)&!&z%~&{&]&E ^&/&(&_&:&/%",
"<&[&}&|&1&2&3&4&5&6&6%6%6%w%6%7&8&9&9$0&a&a&z%b&c&d&e&f&g&h&i&j&",
"k&&.l&m&C Z%n&o&p&q&r&w%6%w%s&t&'&u&v&w&a&x&y&z&A&B&C&D&E&F&G&H&",
"s@I&I&A J&K&L&M&N&O&P&Q&R&S&T&U&V&W&X&Y&a&Z&`& *.*+*@*#*) s+$*%*",
"&***`%=*#+-*;*S >*,*'*)*!*~*{*]*^*/*(*z%z%_*:*<*[*}*|*1***2*3*4*",
"5*5*6*7*8*9*0*a*b*c*d*b#e*f*g*h*i*j*W%W%k*l*m*n*o*p*q*r*@*s*t*u*",
"v*w*x*y*z*A*B*-.f&C*D*E*F*G*H*I*J*K*L*M*N*Z%t.O*P*Q*%*R*S*T*U*V*",
"W*X*Y*5+Z*`* =.=+=@=#=$=%=&=*===-=;=>=,='=)=!=~={=]=^=/=(=_=_=:=",
"<=7*[=}=|=W*1=,%2=3=4=5=6=7=8=E 9=0=a=b=c=d=e=f=g=h=i=j=/=R*k=l=",
"m=.=n=o=1=p=q=m*r=s=t=u=v=w=x=y=z=A=B=C=D=E=F=G=H=I=J=K=L=M=N=O="};
