/* XPM */
static char * exit_xpm[] = {
"32 32 11 1",
" 	c #291000",
".	c #1D0B00",
"+	c #100700",
"@	c #5B2304",
"#	c #522100",
"$	c #68240A",
"%	c #782710",
"&	c #421A00",
"*	c #4B1E00",
"=	c #361600",
"-	c #000000",
"   .   +   .   +   .   +   .   +",
"@@#.$$$@@@#.%$$$@@#.$$$@@@#.%$$$",
"&&&.$##**&&.$##*&&&.$##**&&.$##&",
"&&=.@#**&&=.@#*&&&=.@#**&&=.@#*&",
"   +   .   + +.+++++   .   +   .",
"$$$@@@#.%$# +------+ ##.%$$$$@@.",
"$##&&&&.$#+----------+&.$##*&&&.",
"@#*&&&=.@ ------------ .@#**&&=.",
"   .   +++------------++   .   +",
"@@#.$$$@@--------------$@@#.$$$@",
"*&&.$##**--------------$**&.$##*",
"&&=.@#**=--------------@*&=.@#**",
"   +   +----------------.  +   .",
"%$$$$$@#----------------$$$$@@#.",
"$##****&----------------$###&&&.",
"@#&&**&=----------------@##&&&=.",
"   .   ------------------  .   +",
"@@#.$$$#----------------$@#.%$$$",
"&&&.$##&----------------$#&.$##*",
"&&=.@#*=----------------@#=.@#&&",
"   +   ------------------  +   .",
"$$$@@@@#----------------%$$$$@@.",
"$##**&&&----------------$##**&&.",
"@#*&&&&=----------------@#**&&=.",
"   .   ------------------  .   +",
"@@#.$$$#----------------$$#.$$$@",
"*&&.$##&----------------$#&.$##*",
"&&=.@#*=----------------@#=.@#**",
"   +   ------------------  +   .",
"%$$$$$@#----------------$$$$@@#.",
"$##****&----------------$###&&&.",
"@#****&=----------------@##&&&=."};
